<svg width="48" height="48" viewBox="0 0 48 48" fill="none" xmlns="http://www.w3.org/2000/svg">
<path d="M36 14V34C36 35.24 35.96 36.34 35.82 37.32C35.24 42.58 32.76 44 26 44H22C15.24 44 12.76 42.58 12.18 37.32C12.04 36.34 12 35.24 12 34V14C12 12.76 12.04 11.66 12.18 10.68C12.76 5.42 15.24 4 22 4H26C32.76 4 35.24 5.42 35.82 10.68C35.96 11.66 36 12.76 36 14Z" stroke="#FFCA0A" stroke-width="3" stroke-linecap="round" stroke-linejoin="round"/>
<path d="M12 33.9999C12 35.2399 12.04 36.3399 12.18 37.3199C11.9 37.3399 11.64 37.3399 11.34 37.3399H10.66C5.34 37.3399 4 35.9999 4 30.6599V17.3399C4 11.9999 5.34 10.6599 10.66 10.6599H11.34C11.64 10.6599 11.9 10.6599 12.18 10.6799C12.04 11.6599 12 12.7599 12 13.9999V33.9999Z" stroke="#FFCA0A" stroke-width="3" stroke-linecap="round" stroke-linejoin="round"/>
<path d="M44.0003 17.3399V30.6599C44.0003 35.9999 42.6603 37.3399 37.3403 37.3399H36.6603C36.3603 37.3399 36.1003 37.3399 35.8203 37.3199C35.9603 36.3399 36.0003 35.2399 36.0003 33.9999V13.9999C36.0003 12.7599 35.9603 11.6599 35.8203 10.6799C36.1003 10.6599 36.3603 10.6599 36.6603 10.6599H37.3403C42.6603 10.6599 44.0003 11.9999 44.0003 17.3399Z" stroke="#FFCA0A" stroke-width="3" stroke-linecap="round" stroke-linejoin="round"/>
</svg>
