<svg width="48" height="48" viewBox="0 0 48 48" fill="none" xmlns="http://www.w3.org/2000/svg">
<path d="M11.0825 22.24C1.7225 22.9 1.7225 36.52 11.0825 37.18H14.9226" stroke="#FFCA0A" stroke-width="3" stroke-miterlimit="10" stroke-linecap="round" stroke-linejoin="round"/>
<path d="M11.184 22.24C4.76397 4.38004 31.8439 -2.75995 34.9439 16C43.6039 17.1 47.104 28.6401 40.544 34.3801C38.544 36.2001 35.9639 37.2 33.2639 37.18H33.0839" stroke="#FFCA0A" stroke-width="3" stroke-miterlimit="10" stroke-linecap="round" stroke-linejoin="round"/>
<path d="M34 33.0601C34 34.5401 33.68 35.9401 33.08 37.1801C32.92 37.5401 32.74 37.8801 32.54 38.2001C30.82 41.1001 27.64 43.0601 24 43.0601C20.36 43.0601 17.18 41.1001 15.46 38.2001C15.26 37.8801 15.08 37.5401 14.92 37.1801C14.32 35.9401 14 34.5401 14 33.0601C14 27.5401 18.48 23.0601 24 23.0601C29.52 23.0601 34 27.5401 34 33.0601Z" stroke="#FFCA0A" stroke-width="3" stroke-miterlimit="10" stroke-linecap="round" stroke-linejoin="round"/>
<path d="M20.8828 33.0601L22.8628 35.0401L27.1228 31.1001" stroke="#FFCA0A" stroke-width="3" stroke-linecap="round" stroke-linejoin="round"/>
</svg>
