<svg width="48" height="48" viewBox="0 0 48 48" fill="none" xmlns="http://www.w3.org/2000/svg">
<path d="M44 30V18C44 8 40 4 30 4H18C8 4 4 8 4 18V30C4 40 8 44 18 44H30C40 44 44 40 44 30Z" stroke="#FFCA0A" stroke-width="3" stroke-linecap="round" stroke-linejoin="round"/>
<path d="M5.03906 14.22H42.9591" stroke="#FFCA0A" stroke-width="3" stroke-linecap="round" stroke-linejoin="round"/>
<path d="M17.0391 4.21997V13.94" stroke="#FFCA0A" stroke-width="3" stroke-linecap="round" stroke-linejoin="round"/>
<path d="M30.9609 4.21997V13.04" stroke="#FFCA0A" stroke-width="3" stroke-linecap="round" stroke-linejoin="round"/>
<path d="M19.5 28.9V26.5C19.5 23.42 21.68 22.16 24.34 23.7L26.42 24.9L28.5 26.1C31.16 27.64 31.16 30.16 28.5 31.7L26.42 32.9L24.34 34.1C21.68 35.64 19.5 34.38 19.5 31.3V28.9V28.9Z" stroke="#FFCA0A" stroke-width="3" stroke-miterlimit="10" stroke-linecap="round" stroke-linejoin="round"/>
</svg>
