<svg width="148" height="42" viewBox="0 0 148 42" fill="none" xmlns="http://www.w3.org/2000/svg">
<path d="M148 37.7899C148 40.1159 146.095 42 143.738 42H4.26741C1.91194 42 0 40.1159 0 37.7899V4.21561C0 1.8907 1.91194 0 4.26741 0H143.737C146.095 0 147.999 1.8907 147.999 4.21561L148 37.7899Z" fill="white"/>
<path d="M32.5472 19.9289C32.5151 16.4997 35.4717 14.8313 35.6069 14.7536C33.9324 12.4097 31.3371 12.0894 30.4251 12.0639C28.2453 11.8436 26.1309 13.3162 25.0206 13.3162C23.888 13.3162 22.1781 12.0851 20.3352 12.1213C17.9638 12.1564 15.7452 13.4747 14.5284 15.5219C12.0173 19.6959 13.8901 25.8299 16.296 29.2038C17.4994 30.8562 18.9057 32.7012 20.7464 32.6363C22.5471 32.565 23.2198 31.534 25.3929 31.534C27.5461 31.534 28.1777 32.6363 30.055 32.5948C31.9876 32.565 33.2044 30.935 34.3657 29.2677C35.7565 27.3737 36.315 25.5086 36.3372 25.4128C36.2917 25.3979 32.5838 24.0392 32.5472 19.9289Z" fill="#333333"/>
<path d="M29.0011 9.84435C29.9696 8.6814 30.6323 7.09923 30.4484 5.49365C29.0465 5.55324 27.2934 6.42465 26.2839 7.56207C25.3907 8.56436 24.5928 10.2072 24.7989 11.7521C26.3736 11.8649 27.9904 10.9892 29.0011 9.84435Z" fill="#333333"/>
<path d="M58.6124 32.4006H56.0957L54.7172 28.2414H49.9254L48.6123 32.4006H46.1621L50.9095 18.2408H53.8417L58.6124 32.4006ZM54.3016 26.4964L53.0549 22.799C52.923 22.4213 52.6759 21.5318 52.3113 20.1316H52.267C52.1218 20.7338 51.888 21.6233 51.5666 22.799L50.3421 26.4964H54.3016Z" fill="#333333"/>
<path d="M70.8226 27.1708C70.8226 28.9073 70.3339 30.2798 69.3565 31.2874C68.481 32.1844 67.3939 32.6323 66.0963 32.6323C64.6955 32.6323 63.6893 32.1493 63.0765 31.1832H63.0322V36.5617H60.6696V25.5525C60.6696 24.4608 60.6397 23.3404 60.582 22.1913H62.6598L62.7917 23.8096H62.836C63.624 22.5903 64.8197 21.9817 66.4243 21.9817C67.6787 21.9817 68.726 22.4573 69.5637 23.4096C70.4037 24.3629 70.8226 25.6163 70.8226 27.1708ZM68.4157 27.2538C68.4157 26.26 68.183 25.4408 67.7153 24.796C67.2044 24.1235 66.5185 23.7873 65.6585 23.7873C65.0756 23.7873 64.5459 23.9746 64.0728 24.3438C63.5985 24.7162 63.2882 25.2024 63.143 25.8046C63.0699 26.0855 63.0333 26.3154 63.0333 26.4962V28.1986C63.0333 28.9413 63.2704 29.568 63.7447 30.0798C64.219 30.5916 64.8352 30.8469 65.5932 30.8469C66.483 30.8469 67.1756 30.5171 67.671 29.8595C68.1674 29.2009 68.4157 28.3327 68.4157 27.2538Z" fill="#333333"/>
<path d="M83.05 27.1708C83.05 28.9073 82.5613 30.2798 81.5828 31.2874C80.7085 32.1844 79.6213 32.6323 78.3237 32.6323C76.923 32.6323 75.9167 32.1493 75.305 31.1832H75.2607V36.5617H72.8981V25.5525C72.8981 24.4608 72.8682 23.3404 72.8105 22.1913H74.8884L75.0202 23.8096H75.0646C75.8514 22.5903 77.0471 21.9817 78.6528 21.9817C79.9062 21.9817 80.9534 22.4573 81.7934 23.4096C82.63 24.3629 83.05 25.6163 83.05 27.1708ZM80.6431 27.2538C80.6431 26.26 80.4093 25.4408 79.9416 24.796C79.4307 24.1235 78.747 23.7873 77.886 23.7873C77.302 23.7873 76.7734 23.9746 76.2991 24.3438C75.8248 24.7162 75.5156 25.2024 75.3704 25.8046C75.2984 26.0855 75.2607 26.3154 75.2607 26.4962V28.1986C75.2607 28.9413 75.4979 29.568 75.9699 30.0798C76.4442 30.5905 77.0604 30.8469 77.8206 30.8469C78.7104 30.8469 79.403 30.5171 79.8984 29.8595C80.3949 29.2009 80.6431 28.3327 80.6431 27.2538Z" fill="#333333"/>
<path d="M96.7291 28.4293C96.7291 29.6338 96.2936 30.6137 95.4193 31.3702C94.4585 32.1969 93.1209 32.6098 91.4022 32.6098C89.8153 32.6098 88.5431 32.3161 87.5801 31.7277L88.1275 29.837C89.1648 30.4392 90.3029 30.7414 91.5429 30.7414C92.4327 30.7414 93.1254 30.5477 93.6229 30.1626C94.1183 29.7774 94.3654 29.2603 94.3654 28.6155C94.3654 28.0409 94.1615 27.5568 93.7526 27.1642C93.3459 26.7716 92.6666 26.4066 91.718 26.0694C89.1359 25.1447 87.846 23.7903 87.846 22.0091C87.846 20.8451 88.2982 19.8907 89.2035 19.148C90.1056 18.4043 91.3091 18.033 92.814 18.033C94.1559 18.033 95.2708 18.2575 96.1606 18.7054L95.57 20.5546C94.7388 20.1205 93.7991 19.9035 92.7475 19.9035C91.9163 19.9035 91.267 20.1003 90.8015 20.4919C90.4081 20.8419 90.2109 21.2686 90.2109 21.774C90.2109 22.3336 90.4358 22.7965 90.888 23.1604C91.2814 23.4966 91.9961 23.8605 93.0334 24.2531C94.3022 24.7436 95.2342 25.3171 95.8337 25.9747C96.431 26.6301 96.7291 27.4504 96.7291 28.4293Z" fill="#333333"/>
<path d="M104.539 23.8932H101.935V28.8503C101.935 30.1112 102.394 30.7411 103.313 30.7411C103.736 30.7411 104.086 30.7059 104.363 30.6357L104.428 32.3583C103.963 32.5254 103.35 32.6094 102.591 32.6094C101.658 32.6094 100.928 32.336 100.402 31.7902C99.8778 31.2433 99.6141 30.3261 99.6141 29.0376V23.891H98.0625V22.1886H99.6141V20.3192L101.935 19.6467V22.1886H104.539V23.8932Z" fill="#333333"/>
<path d="M116.287 27.2112C116.287 28.7806 115.819 30.0692 114.886 31.0768C113.908 32.1142 112.609 32.6313 110.99 32.6313C109.429 32.6313 108.187 32.1344 107.261 31.1406C106.334 30.1468 105.871 28.8924 105.871 27.3804C105.871 25.7983 106.348 24.5023 107.304 23.4947C108.258 22.486 109.546 21.9817 111.165 21.9817C112.725 21.9817 113.981 22.4786 114.928 23.4734C115.835 24.4385 116.287 25.6844 116.287 27.2112ZM113.835 27.2847C113.835 26.343 113.626 25.5354 113.202 24.8619C112.706 24.0469 111.998 23.6405 111.081 23.6405C110.131 23.6405 109.409 24.048 108.914 24.8619C108.49 25.5365 108.28 26.3569 108.28 27.3272C108.28 28.2689 108.49 29.0764 108.914 29.7489C109.425 30.5639 110.139 30.9704 111.06 30.9704C111.962 30.9704 112.67 30.5554 113.181 29.7276C113.616 29.0413 113.835 28.2252 113.835 27.2847Z" fill="#333333"/>
<path d="M123.965 24.1861C123.731 24.1446 123.482 24.1233 123.22 24.1233C122.389 24.1233 121.746 24.4244 121.294 25.0277C120.901 25.5597 120.704 26.2321 120.704 27.044V32.4012H118.342L118.364 25.4065C118.364 24.2297 118.334 23.1582 118.275 22.1921H120.333L120.42 24.1456H120.485C120.735 23.4742 121.128 22.9337 121.667 22.5283C122.193 22.1634 122.762 21.9814 123.375 21.9814C123.593 21.9814 123.79 21.9963 123.965 22.0229V24.1861Z" fill="#333333"/>
<path d="M134.532 26.8124C134.532 27.2189 134.505 27.5615 134.446 27.8413H127.358C127.386 28.85 127.728 29.6214 128.387 30.1534C128.984 30.629 129.756 30.8673 130.705 30.8673C131.754 30.8673 132.712 30.7067 133.573 30.3843L133.943 31.959C132.937 32.3804 131.749 32.59 130.378 32.59C128.729 32.59 127.435 32.1239 126.493 31.1929C125.553 30.2619 125.082 29.0117 125.082 27.4434C125.082 25.9038 125.52 24.6217 126.396 23.5992C127.314 22.5075 128.554 21.9617 130.114 21.9617C131.647 21.9617 132.807 22.5075 133.595 23.5992C134.219 24.4663 134.532 25.5388 134.532 26.8124ZM132.28 26.2241C132.295 25.5516 132.141 24.9707 131.821 24.4802C131.412 23.8492 130.784 23.5343 129.938 23.5343C129.166 23.5343 128.537 23.8418 128.057 24.4589C127.664 24.9494 127.43 25.5378 127.358 26.223H132.28V26.2241Z" fill="#333333"/>
<path d="M53.5222 9.52779C53.5222 10.7801 53.131 11.7228 52.3497 12.3559C51.626 12.94 50.5975 13.2326 49.2654 13.2326C48.6049 13.2326 48.0396 13.205 47.5664 13.1496V6.30706C48.1837 6.2113 48.8487 6.16235 49.5668 6.16235C50.8358 6.16235 51.7922 6.42729 52.4372 6.95716C53.1598 7.55619 53.5222 8.41271 53.5222 9.52779ZM52.2976 9.55864C52.2976 8.74681 52.0737 8.12437 51.626 7.69026C51.1782 7.25721 50.5244 7.04015 49.6632 7.04015C49.2975 7.04015 48.9861 7.06356 48.7279 7.11251V12.3144C48.8708 12.3357 49.1324 12.3453 49.5125 12.3453C50.4013 12.3453 51.0874 12.108 51.5706 11.6334C52.0538 11.1589 52.2976 10.4673 52.2976 9.55864Z" fill="#333333"/>
<path d="M60.0172 10.6229C60.0172 11.3943 59.7878 12.0264 59.329 12.5222C58.848 13.0318 58.2108 13.2861 57.415 13.2861C56.6481 13.2861 56.0375 13.0425 55.582 12.553C55.1276 12.0647 54.9004 11.4486 54.9004 10.7059C54.9004 9.92921 55.1342 9.29188 55.6041 8.79712C56.074 8.30236 56.7058 8.05444 57.5015 8.05444C58.2684 8.05444 58.8846 8.2981 59.3512 8.78647C59.7945 9.26102 60.0172 9.87388 60.0172 10.6229ZM58.8126 10.6591C58.8126 10.1963 58.7084 9.7994 58.5011 9.4685C58.2573 9.06843 57.9104 8.8684 57.4594 8.8684C56.9928 8.8684 56.6381 9.06843 56.3943 9.4685C56.186 9.7994 56.0829 10.2027 56.0829 10.6793C56.0829 11.1422 56.1871 11.539 56.3943 11.8699C56.6459 12.27 56.9961 12.47 57.4483 12.47C57.8916 12.47 58.2396 12.2668 58.4901 11.8593C58.7051 11.522 58.8126 11.122 58.8126 10.6591Z" fill="#333333"/>
<path d="M68.7237 8.15747L67.089 13.1732H66.0251L65.348 10.9952C65.1762 10.4515 65.0365 9.91094 64.9279 9.37469H64.9069C64.806 9.92584 64.6664 10.4653 64.4868 10.9952L63.7676 13.1732H62.6915L61.1543 8.15747H62.3479L62.9386 10.5419C63.0816 11.1058 63.199 11.6431 63.2932 12.1517H63.3143C63.4007 11.7325 63.5437 11.1984 63.7454 10.5525L64.4868 8.15854H65.4333L66.1437 10.5015C66.3155 11.0728 66.4551 11.6229 66.5626 12.1528H66.5948C66.6734 11.6368 66.792 11.0867 66.9494 10.5015L67.5833 8.15854H68.7237V8.15747Z" fill="#333333"/>
<path d="M74.7395 13.1718H73.578V10.299C73.578 9.41377 73.2278 8.97114 72.5252 8.97114C72.1805 8.97114 71.9023 9.09244 71.6862 9.33609C71.4723 9.57975 71.3637 9.86703 71.3637 10.1958V13.1708H70.2023V9.58933C70.2023 9.14883 70.1879 8.67109 70.1602 8.15399H71.1809L71.2352 8.93816H71.2673C71.4025 8.6945 71.6042 8.49341 71.8691 8.33274C72.1838 8.14548 72.5363 8.05078 72.9219 8.05078C73.4096 8.05078 73.8152 8.20187 74.1377 8.50511C74.5389 8.87645 74.7395 9.43079 74.7395 10.1671V13.1718Z" fill="#333333"/>
<path d="M77.9455 13.1724H76.7852V5.85522H77.9455V13.1724Z" fill="#333333"/>
<path d="M84.7809 10.6229C84.7809 11.3943 84.5515 12.0264 84.0927 12.5222C83.6117 13.0318 82.9733 13.2861 82.1787 13.2861C81.4107 13.2861 80.8 13.0425 80.3456 12.553C79.8913 12.0647 79.6641 11.4486 79.6641 10.7059C79.6641 9.92921 79.8979 9.29188 80.3678 8.79712C80.8377 8.30236 81.4694 8.05444 82.264 8.05444C83.0321 8.05444 83.6472 8.2981 84.1148 8.78647C84.5582 9.26102 84.7809 9.87388 84.7809 10.6229ZM83.5751 10.6591C83.5751 10.1963 83.4709 9.7994 83.2637 9.4685C83.021 9.06843 82.673 8.8684 82.223 8.8684C81.7554 8.8684 81.4007 9.06843 81.158 9.4685C80.9496 9.7994 80.8466 10.2027 80.8466 10.6793C80.8466 11.1422 80.9508 11.539 81.158 11.8699C81.4096 12.27 81.7598 12.47 82.212 12.47C82.6553 12.47 83.0021 12.2668 83.2526 11.8593C83.4687 11.522 83.5751 11.122 83.5751 10.6591Z" fill="#333333"/>
<path d="M90.4023 13.1723H89.3594L89.2729 12.5945H89.2408C88.8839 13.0552 88.3752 13.2861 87.7147 13.2861C87.2215 13.2861 86.8226 13.134 86.5222 12.8318C86.2496 12.5573 86.1133 12.2157 86.1133 11.8104C86.1133 11.1975 86.3793 10.7304 86.9146 10.4069C87.4487 10.0835 88.2001 9.92495 89.1677 9.9324V9.83877C89.1677 9.17803 88.8064 8.84819 88.0827 8.84819C87.5673 8.84819 87.1129 8.97268 86.7206 9.21952L86.4845 8.48749C86.97 8.19915 87.5695 8.05444 88.2766 8.05444C89.642 8.05444 90.3269 8.74604 90.3269 10.1292V11.9763C90.3269 12.4775 90.3524 12.8765 90.4023 13.1723ZM89.1965 11.4486V10.6751C87.9153 10.6538 87.2747 10.9911 87.2747 11.6859C87.2747 11.9476 87.3479 12.1434 87.4975 12.2743C87.6471 12.4051 87.8377 12.47 88.0649 12.47C88.3198 12.47 88.5581 12.3924 88.7753 12.2381C88.9937 12.0827 89.1278 11.8859 89.1776 11.6444C89.1898 11.5901 89.1965 11.5241 89.1965 11.4486Z" fill="#333333"/>
<path d="M97.0028 13.1724H95.9721L95.9178 12.3669H95.8857C95.5565 12.9798 94.9957 13.2862 94.2078 13.2862C93.5783 13.2862 93.0541 13.0489 92.6385 12.5744C92.2229 12.0998 92.0156 11.4838 92.0156 10.7273C92.0156 9.91545 92.2406 9.2579 92.6928 8.75569C93.1305 8.28753 93.6669 8.05345 94.3053 8.05345C95.0068 8.05345 95.4978 8.28008 95.7771 8.73441H95.7992V5.85522H96.9618V11.8211C96.9618 12.3094 96.9751 12.7595 97.0028 13.1724ZM95.7992 11.0571V10.2208C95.7992 10.0761 95.7881 9.95907 95.7671 9.8697C95.7017 9.60157 95.561 9.376 95.3471 9.19406C95.1309 9.01211 94.8705 8.92061 94.5702 8.92061C94.1368 8.92061 93.7977 9.08553 93.5483 9.41643C93.3012 9.74734 93.176 10.1697 93.176 10.6858C93.176 11.1816 93.2946 11.5838 93.5328 11.8934C93.7844 12.2233 94.1235 12.3882 94.548 12.3882C94.9292 12.3882 95.234 12.2509 95.4656 11.9754C95.6895 11.7211 95.7992 11.4146 95.7992 11.0571Z" fill="#333333"/>
<path d="M106.935 10.6229C106.935 11.3943 106.706 12.0264 106.247 12.5222C105.766 13.0318 105.13 13.2861 104.333 13.2861C103.567 13.2861 102.957 13.0425 102.5 12.553C102.046 12.0647 101.818 11.4486 101.818 10.7059C101.818 9.92921 102.052 9.29188 102.522 8.79712C102.992 8.30236 103.624 8.05444 104.421 8.05444C105.186 8.05444 105.804 8.2981 106.269 8.78647C106.712 9.26102 106.935 9.87388 106.935 10.6229ZM105.732 10.6591C105.732 10.1963 105.627 9.7994 105.42 9.4685C105.175 9.06843 104.83 8.8684 104.377 8.8684C103.912 8.8684 103.557 9.06843 103.312 9.4685C103.104 9.7994 103.001 10.2027 103.001 10.6793C103.001 11.1422 103.105 11.539 103.312 11.8699C103.564 12.27 103.914 12.47 104.366 12.47C104.81 12.47 105.159 12.2668 105.409 11.8593C105.623 11.522 105.732 11.122 105.732 10.6591Z" fill="#333333"/>
<path d="M113.176 13.1716H112.016V10.2988C112.016 9.41352 111.665 8.9709 110.962 8.9709C110.617 8.9709 110.339 9.09219 110.124 9.33585C109.909 9.57951 109.801 9.86679 109.801 10.1956V13.1705H108.639V9.58908C108.639 9.14859 108.625 8.67085 108.598 8.15375H109.617L109.672 8.93791H109.704C109.84 8.69426 110.042 8.49316 110.305 8.3325C110.621 8.14523 110.973 8.05054 111.359 8.05054C111.846 8.05054 112.252 8.20163 112.574 8.50487C112.976 8.8762 113.176 9.43055 113.176 10.1668V13.1716Z" fill="#333333"/>
<path d="M120.99 8.99136H119.711V11.4279C119.711 12.0472 119.939 12.3568 120.389 12.3568C120.597 12.3568 120.77 12.3398 120.906 12.3047L120.936 13.1505C120.707 13.2335 120.405 13.275 120.034 13.275C119.575 13.275 119.218 13.141 118.96 12.8728C118.701 12.6047 118.572 12.1536 118.572 11.5205V8.99136H117.809V8.15612H118.572V7.23682L119.71 6.90698V8.15505H120.989V8.99136H120.99Z" fill="#333333"/>
<path d="M127.139 13.1724H125.976V10.3208C125.976 9.42175 125.626 8.97168 124.924 8.97168C124.386 8.97168 124.018 9.23236 123.816 9.75372C123.782 9.86331 123.762 9.99738 123.762 10.1548V13.1713H122.602V5.85522H123.762V8.87805H123.784C124.15 8.32796 124.674 8.05345 125.353 8.05345C125.834 8.05345 126.232 8.20454 126.548 8.50778C126.942 8.8855 127.139 9.44729 127.139 10.19V13.1724Z" fill="#333333"/>
<path d="M133.485 10.4277C133.485 10.6277 133.469 10.7958 133.441 10.9331H129.958C129.974 11.4289 130.14 11.8066 130.462 12.0684C130.757 12.3025 131.137 12.4195 131.603 12.4195C132.118 12.4195 132.588 12.3408 133.011 12.1822L133.193 12.9568C132.698 13.1632 132.115 13.2665 131.44 13.2665C130.631 13.2665 129.994 13.0377 129.533 12.5802C129.069 12.1227 128.84 11.5087 128.84 10.7384C128.84 9.98189 129.054 9.352 129.485 8.84979C129.935 8.31354 130.543 8.04541 131.311 8.04541C132.063 8.04541 132.633 8.31354 133.019 8.84979C133.331 9.27539 133.485 9.80207 133.485 10.4277ZM132.376 10.1394C132.385 9.80846 132.309 9.52331 132.151 9.28284C131.95 8.97322 131.643 8.81787 131.227 8.81787C130.848 8.81787 130.539 8.96896 130.303 9.2722C130.11 9.51373 129.996 9.80207 129.958 10.1394H132.376Z" fill="#333333"/>
</svg>
