<svg width="178" height="50" viewBox="0 0 178 50" fill="none" xmlns="http://www.w3.org/2000/svg">
<path d="M178 44.988C178 47.757 175.709 50 172.874 50H5.13243C2.2995 50 0 47.757 0 44.988V5.01858C0 2.25084 2.2995 0 5.13243 0H172.873C175.709 0 177.999 2.25084 177.999 5.01858L178 44.988Z" fill="#333333"/>
<path d="M39.1367 23.7229C39.0981 19.6405 42.654 17.6543 42.8166 17.5619C40.8027 14.7714 37.6813 14.3902 36.5844 14.3598C33.9628 14.0976 31.4198 15.8506 30.0844 15.8506C28.7223 15.8506 26.6658 14.3851 24.4493 14.4282C21.5971 14.47 18.9289 16.0393 17.4655 18.4764C14.4454 23.4455 16.6978 30.7479 19.5913 34.7645C21.0387 36.7316 22.73 38.928 24.9438 38.8507C27.1096 38.7659 27.9186 37.5385 30.5322 37.5385C33.1218 37.5385 33.8815 38.8507 36.1393 38.8013C38.4637 38.7659 39.9271 36.8253 41.3238 34.8405C42.9965 32.5858 43.6682 30.3653 43.6949 30.2513C43.6402 30.2336 39.1807 28.6161 39.1367 23.7229Z" fill="white"/>
<path d="M34.8718 11.7175C36.0366 10.333 36.8337 8.44949 36.6124 6.53809C34.9264 6.60902 32.8179 7.64642 31.6038 9.00049C30.5295 10.1937 29.5699 12.1494 29.8178 13.9886C31.7117 14.1229 33.6563 13.0804 34.8718 11.7175Z" fill="white"/>
<path d="M70.4974 38.5721H67.4706L65.8126 33.6207H60.0496L58.4702 38.5721H55.5234L61.2331 21.7153H64.7597L70.4974 38.5721ZM65.3128 31.5434L63.8134 27.1417C63.6548 26.6921 63.3576 25.6331 62.9191 23.9662H62.8658C62.6912 24.6831 62.41 25.7421 62.0235 27.1417L60.5507 31.5434H65.3128Z" fill="white"/>
<path d="M85.1836 32.346C85.1836 34.4132 84.5958 36.0472 83.4203 37.2467C82.3674 38.3145 81.0599 38.8478 79.4992 38.8478C77.8145 38.8478 76.6043 38.2727 75.8673 37.1226H75.814V43.5256H72.9725V30.4194C72.9725 29.1198 72.9365 27.786 72.8672 26.418H75.3662L75.5248 28.3446H75.5781C76.5257 26.893 77.9638 26.1685 79.8937 26.1685C81.4024 26.1685 82.6619 26.7347 83.6695 27.8683C84.6798 29.0033 85.1836 30.4954 85.1836 32.346ZM82.2887 32.4448C82.2887 31.2617 82.0088 30.2864 81.4464 29.5188C80.832 28.7183 80.007 28.318 78.9727 28.318C78.2717 28.318 77.6346 28.5409 77.0655 28.9805C76.4951 29.4238 76.1219 30.0027 75.9473 30.7196C75.8593 31.054 75.8153 31.3276 75.8153 31.5429V33.5696C75.8153 34.4537 76.1006 35.1998 76.671 35.8091C77.2414 36.4183 77.9825 36.7223 78.8941 36.7223C79.9643 36.7223 80.7973 36.3297 81.3931 35.5469C81.9902 34.7628 82.2887 33.7292 82.2887 32.4448Z" fill="white"/>
<path d="M99.8854 32.346C99.8854 34.4132 99.2976 36.0472 98.1207 37.2467C97.0692 38.3145 95.7617 38.8478 94.201 38.8478C92.5163 38.8478 91.3061 38.2727 90.5704 37.1226H90.5171V43.5256H87.6756V30.4194C87.6756 29.1198 87.6396 27.786 87.5703 26.418H90.0693L90.2279 28.3446H90.2812C91.2275 26.893 92.6656 26.1685 94.5968 26.1685C96.1042 26.1685 97.3637 26.7347 98.374 27.8683C99.3802 29.0033 99.8854 30.4954 99.8854 32.346ZM96.9905 32.4448C96.9905 31.2617 96.7093 30.2864 96.1469 29.5188C95.5324 28.7183 94.7101 28.318 93.6745 28.318C92.9721 28.318 92.3364 28.5409 91.766 28.9805C91.1955 29.4238 90.8237 30.0027 90.6491 30.7196C90.5624 31.054 90.5171 31.3276 90.5171 31.5429V33.5696C90.5171 34.4537 90.8023 35.1998 91.3701 35.8091C91.9405 36.4171 92.6816 36.7223 93.5959 36.7223C94.6661 36.7223 95.4991 36.3297 96.0949 35.5469C96.692 34.7628 96.9905 33.7292 96.9905 32.4448Z" fill="white"/>
<path d="M116.34 33.8444C116.34 35.2782 115.816 36.4448 114.764 37.3454C113.609 38.3296 112 38.8211 109.933 38.8211C108.024 38.8211 106.494 38.4715 105.336 37.771L105.994 35.5202C107.242 36.2371 108.611 36.5968 110.102 36.5968C111.172 36.5968 112.005 36.3663 112.604 35.9078C113.199 35.4492 113.497 34.8336 113.497 34.066C113.497 33.382 113.251 32.8057 112.76 32.3383C112.27 31.8709 111.453 31.4364 110.313 31.0349C107.207 29.9342 105.656 28.3217 105.656 26.2013C105.656 24.8156 106.2 23.6794 107.288 22.7952C108.373 21.9098 109.821 21.4678 111.631 21.4678C113.245 21.4678 114.586 21.735 115.656 22.2683L114.945 24.4698C113.946 23.953 112.816 23.6946 111.551 23.6946C110.551 23.6946 109.77 23.9289 109.21 24.395C108.737 24.8118 108.5 25.3197 108.5 25.9214C108.5 26.5876 108.771 27.1386 109.314 27.5718C109.787 27.9721 110.647 28.4053 111.895 28.8727C113.421 29.4566 114.542 30.1394 115.263 30.9222C115.981 31.7024 116.34 32.679 116.34 33.8444Z" fill="white"/>
<path d="M125.735 28.4442H122.602V34.3456C122.602 35.8466 123.154 36.5964 124.261 36.5964C124.768 36.5964 125.19 36.5546 125.523 36.471L125.602 38.5218C125.042 38.7206 124.305 38.8207 123.392 38.8207C122.269 38.8207 121.392 38.4952 120.759 37.8454C120.129 37.1943 119.811 36.1024 119.811 34.5685V28.4416H117.945V26.415H119.811V24.1894L122.602 23.3889V26.415H125.735V28.4442Z" fill="white"/>
<path d="M139.863 32.3941C139.863 34.2625 139.3 35.7964 138.178 36.9959C137.001 38.2309 135.439 38.8465 133.492 38.8465C131.616 38.8465 130.121 38.255 129.007 37.0719C127.893 35.8889 127.336 34.3955 127.336 32.5955C127.336 30.712 127.909 29.1692 129.059 27.9697C130.207 26.7689 131.755 26.1685 133.703 26.1685C135.579 26.1685 137.089 26.76 138.229 27.9443C139.319 29.0932 139.863 30.5765 139.863 32.3941ZM136.915 32.4815C136.915 31.3605 136.663 30.3991 136.152 29.5973C135.557 28.6271 134.705 28.1432 133.601 28.1432C132.459 28.1432 131.592 28.6283 130.996 29.5973C130.485 30.4004 130.233 31.377 130.233 32.5322C130.233 33.6532 130.485 34.6146 130.996 35.4151C131.61 36.3854 132.469 36.8693 133.576 36.8693C134.661 36.8693 135.513 36.3753 136.127 35.3898C136.651 34.5728 136.915 33.6013 136.915 32.4815Z" fill="white"/>
<path d="M149.092 28.793C148.811 28.7436 148.511 28.7183 148.197 28.7183C147.197 28.7183 146.424 29.0767 145.88 29.7949C145.407 30.4283 145.17 31.2288 145.17 32.1953V38.5729H142.33L142.357 30.2459C142.357 28.8449 142.321 27.5694 142.25 26.4193H144.725L144.829 28.7449H144.907C145.207 27.9456 145.68 27.3021 146.328 26.8195C146.961 26.3851 147.645 26.1685 148.382 26.1685C148.644 26.1685 148.882 26.1862 149.092 26.2179V28.793Z" fill="white"/>
<path d="M161.811 31.92C161.811 32.4039 161.778 32.8117 161.707 33.1449H153.183C153.216 34.3457 153.628 35.264 154.42 35.8973C155.138 36.4635 156.067 36.7473 157.208 36.7473C158.47 36.7473 159.622 36.556 160.657 36.1722L161.102 38.0469C159.892 38.5485 158.463 38.798 156.815 38.798C154.832 38.798 153.275 38.2432 152.142 37.1349C151.012 36.0265 150.445 34.5382 150.445 32.6711C150.445 30.8383 150.972 29.3119 152.026 28.0947C153.13 26.7951 154.621 26.1453 156.498 26.1453C158.341 26.1453 159.736 26.7951 160.684 28.0947C161.434 29.127 161.811 30.4038 161.811 31.92ZM159.102 31.2195C159.12 30.419 158.935 29.7274 158.55 29.1435C158.058 28.3923 157.303 28.0174 156.286 28.0174C155.357 28.0174 154.601 28.3835 154.024 29.1181C153.551 29.7021 153.27 30.4025 153.183 31.2183H159.102V31.2195Z" fill="white"/>
<path d="M64.374 11.3414C64.374 12.8323 63.9035 13.9546 62.9638 14.7082C62.0934 15.4036 60.8565 15.752 59.2543 15.752C58.4599 15.752 57.7801 15.719 57.2109 15.6532V7.50723C57.9534 7.39323 58.7531 7.33496 59.6168 7.33496C61.143 7.33496 62.2933 7.65036 63.0691 8.28116C63.9381 8.99429 64.374 10.014 64.374 11.3414ZM62.9011 11.3782C62.9011 10.4117 62.6319 9.67069 62.0934 9.15389C61.5549 8.63836 60.7685 8.37996 59.7328 8.37996C59.2929 8.37996 58.9184 8.40783 58.6078 8.46609V14.6588C58.7798 14.6842 59.0943 14.6956 59.5515 14.6956C60.6205 14.6956 61.4456 14.4131 62.0268 13.8482C62.6079 13.2832 62.9011 12.4599 62.9011 11.3782Z" fill="white"/>
<path d="M72.1844 12.6468C72.1844 13.5652 71.9086 14.3176 71.3568 14.9078C70.7784 15.5146 70.0121 15.8173 69.0552 15.8173C68.133 15.8173 67.3986 15.5272 66.8509 14.9446C66.3045 14.3632 66.0312 13.6298 66.0312 12.7456C66.0312 11.821 66.3125 11.0622 66.8775 10.4732C67.4426 9.88424 68.2023 9.58911 69.1592 9.58911C70.0814 9.58911 70.8224 9.87918 71.3835 10.4606C71.9166 11.0255 72.1844 11.7551 72.1844 12.6468ZM70.7358 12.6899C70.7358 12.1389 70.6105 11.6664 70.3613 11.2725C70.0681 10.7962 69.6509 10.5581 69.1085 10.5581C68.5474 10.5581 68.121 10.7962 67.8278 11.2725C67.5772 11.6664 67.4533 12.1465 67.4533 12.714C67.4533 13.265 67.5785 13.7374 67.8278 14.1314C68.1303 14.6076 68.5514 14.8458 69.0952 14.8458C69.6283 14.8458 70.0467 14.6038 70.3479 14.1187C70.6065 13.7172 70.7358 13.2409 70.7358 12.6899Z" fill="white"/>
<path d="M82.6506 9.71143L80.6846 15.6825H79.405L78.5906 13.0896C78.384 12.4424 78.2161 11.7989 78.0854 11.1605H78.0601C77.9388 11.8166 77.7709 12.4588 77.5549 13.0896L76.6899 15.6825H75.3956L73.5469 9.71143H74.9824L75.6929 12.55C75.8648 13.2214 76.0061 13.861 76.1194 14.4665H76.1447C76.2487 13.9674 76.4206 13.3316 76.6632 12.5627L77.5549 9.71269H78.6932L79.5476 12.5019C79.7542 13.1821 79.9222 13.837 80.0515 14.4678H80.0901C80.1848 13.8534 80.3274 13.1986 80.5167 12.5019L81.2791 9.71269H82.6506V9.71143Z" fill="white"/>
<path d="M89.8896 15.6807H88.4929V12.2607C88.4929 11.2068 88.0718 10.6799 87.2268 10.6799C86.8124 10.6799 86.4778 10.8243 86.218 11.1144C85.9607 11.4044 85.8301 11.7464 85.8301 12.1378V15.6794H84.4334V11.4158C84.4334 10.8914 84.4161 10.3227 84.3828 9.7071H85.6102L85.6756 10.6406H85.7142C85.8768 10.3506 86.1193 10.1112 86.4379 9.9199C86.8164 9.69696 87.2402 9.58423 87.7039 9.58423C88.2903 9.58423 88.7781 9.7641 89.1659 10.1251C89.6484 10.5672 89.8896 11.2271 89.8896 12.1036V15.6807Z" fill="white"/>
<path d="M93.7469 15.6816H92.3516V6.9707H93.7469V15.6816Z" fill="white"/>
<path d="M101.966 12.6468C101.966 13.5652 101.69 14.3176 101.138 14.9078C100.56 15.5146 99.792 15.8173 98.8365 15.8173C97.9129 15.8173 97.1785 15.5272 96.6321 14.9446C96.0857 14.3632 95.8125 13.6298 95.8125 12.7456C95.8125 11.821 96.0937 11.0622 96.6588 10.4732C97.2239 9.88424 97.9835 9.58911 98.9391 9.58911C99.8626 9.58911 100.602 9.87918 101.165 10.4606C101.698 11.0255 101.966 11.7551 101.966 12.6468ZM100.516 12.6899C100.516 12.1389 100.39 11.6664 100.141 11.2725C99.8493 10.7962 99.4308 10.5581 98.8898 10.5581C98.3273 10.5581 97.9009 10.7962 97.609 11.2725C97.3585 11.6664 97.2345 12.1465 97.2345 12.714C97.2345 13.265 97.3598 13.7374 97.609 14.1314C97.9115 14.6076 98.3327 14.8458 98.8764 14.8458C99.4095 14.8458 99.8267 14.6038 100.128 14.1187C100.388 13.7172 100.516 13.2409 100.516 12.6899Z" fill="white"/>
<path d="M108.728 15.6818H107.474L107.37 14.994H107.331C106.902 15.5424 106.29 15.8173 105.496 15.8173C104.903 15.8173 104.423 15.6362 104.062 15.2764C103.734 14.9496 103.57 14.543 103.57 14.0604C103.57 13.3308 103.89 12.7748 104.534 12.3897C105.176 12.0046 106.08 11.8159 107.243 11.8248V11.7133C107.243 10.9267 106.809 10.534 105.939 10.534C105.319 10.534 104.772 10.6822 104.301 10.9761L104.017 10.1046C104.601 9.76138 105.322 9.58911 106.172 9.58911C107.814 9.58911 108.637 10.4124 108.637 12.0591V14.258C108.637 14.8546 108.668 15.3296 108.728 15.6818ZM107.278 13.6298V12.7089C105.737 12.6836 104.967 13.0851 104.967 13.9122C104.967 14.2238 105.055 14.4569 105.235 14.6127C105.415 14.7685 105.644 14.8458 105.917 14.8458C106.224 14.8458 106.51 14.7533 106.772 14.5696C107.034 14.3847 107.195 14.1504 107.255 13.8628C107.27 13.7982 107.278 13.7197 107.278 13.6298Z" fill="white"/>
<path d="M116.661 15.6816H115.422L115.357 14.7227H115.318C114.922 15.4523 114.248 15.8171 113.3 15.8171C112.543 15.8171 111.913 15.5346 111.413 14.9697C110.913 14.4048 110.664 13.6714 110.664 12.7708C110.664 11.8043 110.935 11.0215 111.478 10.4236C112.005 9.8663 112.65 9.58764 113.417 9.58764C114.261 9.58764 114.851 9.85744 115.187 10.3983H115.214V6.9707H116.612V14.0729C116.612 14.6543 116.628 15.1901 116.661 15.6816ZM115.214 13.1634V12.1678C115.214 11.9956 115.201 11.8562 115.175 11.7498C115.097 11.4306 114.927 11.1621 114.67 10.9455C114.41 10.7289 114.097 10.62 113.736 10.62C113.215 10.62 112.807 10.8163 112.507 11.2102C112.21 11.6042 112.059 12.107 112.059 12.7214C112.059 13.3116 112.202 13.7904 112.489 14.159C112.791 14.5517 113.199 14.748 113.709 14.748C114.168 14.748 114.534 14.5846 114.813 14.2566C115.082 13.9538 115.214 13.589 115.214 13.1634Z" fill="white"/>
<path d="M128.614 12.6468C128.614 13.5652 128.338 14.3176 127.786 14.9078C127.208 15.5146 126.443 15.8173 125.485 15.8173C124.564 15.8173 123.83 15.5272 123.281 14.9446C122.734 14.3632 122.461 13.6298 122.461 12.7456C122.461 11.821 122.742 11.0622 123.307 10.4732C123.872 9.88424 124.632 9.58911 125.59 9.58911C126.511 9.58911 127.253 9.87918 127.813 10.4606C128.346 11.0255 128.614 11.7551 128.614 12.6468ZM127.167 12.6899C127.167 12.1389 127.041 11.6664 126.792 11.2725C126.498 10.7962 126.082 10.5581 125.538 10.5581C124.978 10.5581 124.552 10.7962 124.257 11.2725C124.007 11.6664 123.883 12.1465 123.883 12.714C123.883 13.265 124.008 13.7374 124.257 14.1314C124.56 14.6076 124.981 14.8458 125.525 14.8458C126.058 14.8458 126.478 14.6038 126.779 14.1187C127.036 13.7172 127.167 13.2409 127.167 12.6899Z" fill="white"/>
<path d="M136.115 15.6807H134.719V12.2607C134.719 11.2068 134.298 10.6799 133.452 10.6799C133.038 10.6799 132.703 10.8243 132.445 11.1144C132.186 11.4044 132.057 11.7464 132.057 12.1378V15.6794H130.659V11.4158C130.659 10.8914 130.643 10.3227 130.609 9.7071H131.835L131.901 10.6406H131.939C132.103 10.3506 132.346 10.1112 132.663 9.9199C133.043 9.69696 133.465 9.58423 133.931 9.58423C134.516 9.58423 135.003 9.7641 135.391 10.1251C135.875 10.5672 136.115 11.2271 136.115 12.1036V15.6807Z" fill="white"/>
<path d="M145.522 10.7045H143.984V13.6052C143.984 14.3424 144.257 14.711 144.798 14.711C145.048 14.711 145.256 14.6907 145.42 14.6489L145.456 15.6559C145.18 15.7547 144.818 15.8041 144.371 15.8041C143.82 15.8041 143.391 15.6445 143.08 15.3253C142.768 15.0061 142.614 14.4691 142.614 13.7154V10.7045H141.695V9.71021H142.614V8.61581L143.982 8.22314V9.70894H145.52V10.7045H145.522Z" fill="white"/>
<path d="M152.909 15.6816H151.511V12.2869C151.511 11.2166 151.09 10.6808 150.247 10.6808C149.599 10.6808 149.156 10.9911 148.914 11.6118C148.872 11.7422 148.848 11.9018 148.848 12.0893V15.6803H147.453V6.9707H148.848V10.5693H148.875C149.315 9.91444 149.945 9.58764 150.762 9.58764C151.341 9.58764 151.819 9.7675 152.199 10.1285C152.672 10.5782 152.909 11.247 152.909 12.1311V15.6816Z" fill="white"/>
<path d="M160.546 12.4137C160.546 12.6518 160.528 12.852 160.494 13.0154H156.306C156.324 13.6056 156.524 14.0553 156.912 14.3669C157.267 14.6456 157.724 14.7849 158.283 14.7849C158.903 14.7849 159.468 14.6912 159.977 14.5024L160.196 15.4246C159.6 15.6703 158.899 15.7932 158.088 15.7932C157.115 15.7932 156.348 15.5208 155.794 14.9762C155.237 14.4315 154.961 13.7006 154.961 12.7836C154.961 11.883 155.218 11.1331 155.737 10.5352C156.278 9.89684 157.009 9.57764 157.933 9.57764C158.836 9.57764 159.523 9.89684 159.987 10.5352C160.361 11.0419 160.546 11.6689 160.546 12.4137ZM159.214 12.0704C159.224 11.6765 159.132 11.337 158.943 11.0508C158.701 10.6822 158.331 10.4972 157.832 10.4972C157.376 10.4972 157.004 10.6771 156.72 11.0381C156.488 11.3256 156.351 11.6689 156.306 12.0704H159.214Z" fill="white"/>
</svg>
