<svg width="42" height="42" viewBox="0 0 42 42" fill="none" xmlns="http://www.w3.org/2000/svg">
<path d="M8.25817 22.6963C8.38007 22.5743 8.52483 22.4775 8.68416 22.4115C8.8435 22.3454 9.01429 22.3114 9.18677 22.3114C9.35925 22.3114 9.53005 22.3454 9.68938 22.4115C9.84871 22.4775 9.99347 22.5743 10.1154 22.6963L19.6868 32.2694L19.6868 6.56244C19.6868 6.21435 19.8251 5.88051 20.0712 5.63437C20.3173 5.38823 20.6512 5.24994 20.9993 5.24994C21.3474 5.24994 21.6812 5.38823 21.9273 5.63437C22.1735 5.88051 22.3118 6.21435 22.3118 6.56244L22.3118 32.2694L31.8832 22.6963C32.1295 22.4501 32.4635 22.3117 32.8118 22.3117C33.1601 22.3117 33.4941 22.4501 33.7404 22.6963C33.9866 22.9426 34.125 23.2767 34.125 23.6249C34.125 23.9732 33.9866 24.3073 33.7404 24.5535L21.9279 36.366C21.806 36.4881 21.6612 36.5849 21.5019 36.6509C21.3425 36.717 21.1718 36.751 20.9993 36.751C20.8268 36.751 20.656 36.717 20.4967 36.6509C20.3373 36.5849 20.1926 36.4881 20.0707 36.366L8.25817 24.5535C8.13614 24.4316 8.03933 24.2869 7.97328 24.1276C7.90723 23.9682 7.87324 23.7974 7.87324 23.6249C7.87324 23.4525 7.90723 23.2817 7.97328 23.1223C8.03933 22.963 8.13614 22.8182 8.25817 22.6963Z" fill="url(#paint0_linear_655_10279)"/>
<defs>
<linearGradient id="paint0_linear_655_10279" x1="21.0488" y1="36.751" x2="15.3015" y2="-0.761781" gradientUnits="userSpaceOnUse">
<stop stop-color="#FFF063"/>
<stop offset="1" stop-color="#FFAA04"/>
</linearGradient>
</defs>
</svg>
