<svg width="148" height="42" viewBox="0 0 148 42" fill="none" xmlns="http://www.w3.org/2000/svg">
<path d="M142.519 42H5.48148C2.46804 42 0 39.6362 0 36.75V5.25C0 2.36381 2.46804 2.21967e-06 5.48148 2.21967e-06H142.519C145.532 2.21967e-06 148 2.36381 148 5.25V36.75C148 39.6362 145.532 42 142.519 42Z" fill="white"/>
<path d="M51.094 10.3147C51.094 11.2032 50.8185 11.9147 50.2757 12.4454C49.6517 13.0745 48.839 13.391 47.843 13.391C46.8911 13.391 46.0784 13.0691 45.4116 12.4347C44.7435 11.791 44.4102 11.001 44.4102 10.0554C44.4102 9.10974 44.7435 8.31972 45.4116 7.68132C46.0784 7.04159 46.8911 6.71973 47.843 6.71973C48.3169 6.71973 48.7687 6.81416 49.1999 6.98972C49.6297 7.16661 49.9796 7.40601 50.233 7.70127L49.6572 8.26253C49.215 7.75846 48.613 7.50975 47.843 7.50975C47.1487 7.50975 46.5467 7.74383 46.0357 8.21598C45.5301 8.68946 45.2766 9.30259 45.2766 10.0554C45.2766 10.8081 45.5301 11.4266 46.0357 11.9001C46.5467 12.3669 47.1487 12.6063 47.843 12.6063C48.58 12.6063 49.1999 12.3669 49.6889 11.8948C50.0113 11.5822 50.1945 11.1513 50.2427 10.6007H47.843V9.83193H51.0444C51.083 9.99818 51.094 10.1591 51.094 10.3147Z" fill="#333333" stroke="#333333" stroke-width="0.156583" stroke-miterlimit="10"/>
<path d="M56.1769 7.6497H53.1697V9.6713H55.8807V10.44H53.1697V12.4616H56.1769V13.245H52.3184V6.86633H56.1769V7.6497Z" fill="#333333" stroke="#333333" stroke-width="0.156583" stroke-miterlimit="10"/>
<path d="M59.7584 13.245H58.907V7.6497H57.0625V6.86633H61.6043V7.6497H59.7584V13.245Z" fill="#333333" stroke="#333333" stroke-width="0.156583" stroke-miterlimit="10"/>
<path d="M64.8848 13.245V6.86633H65.7347V13.245H64.8848Z" fill="#333333" stroke="#333333" stroke-width="0.156583" stroke-miterlimit="10"/>
<path d="M69.5064 13.2454H68.662V7.65007H66.8105V6.8667H71.3578V7.65007H69.5064V13.2454Z" fill="#333333" stroke="#333333" stroke-width="0.156583" stroke-miterlimit="10"/>
<path d="M79.9616 12.4242C79.31 13.0693 78.5027 13.3911 77.5398 13.3911C76.5714 13.3911 75.7642 13.0693 75.1126 12.4242C74.4624 11.7805 74.1387 10.9905 74.1387 10.0555C74.1387 9.1205 74.4624 8.33048 75.1126 7.68676C75.7642 7.04171 76.5714 6.71985 77.5398 6.71985C78.4972 6.71985 79.3045 7.04171 79.9561 7.69208C80.6118 8.34112 80.9355 9.12582 80.9355 10.0555C80.9355 10.9905 80.6118 11.7805 79.9616 12.4242ZM75.7421 11.8896C76.2325 12.367 76.829 12.6064 77.5398 12.6064C78.2451 12.6064 78.8471 12.367 79.332 11.8896C79.8211 11.4121 80.069 10.799 80.069 10.0555C80.069 9.31202 79.8211 8.69889 79.332 8.22142C78.8471 7.74395 78.2451 7.50455 77.5398 7.50455C76.829 7.50455 76.2325 7.74395 75.7421 8.22142C75.2531 8.69889 75.0052 9.31202 75.0052 10.0555C75.0052 10.799 75.2531 11.4121 75.7421 11.8896Z" fill="#333333" stroke="#333333" stroke-width="0.156583" stroke-miterlimit="10"/>
<path d="M82.1289 13.245V6.86633H83.1621L86.3745 11.8272H86.4117L86.3745 10.601V6.86633H87.2245V13.245H86.3373L82.9733 8.03939H82.9361L82.9733 9.27097V13.245H82.1289Z" fill="#333333" stroke="#333333" stroke-width="0.156583" stroke-miterlimit="10"/>
<path d="M73.9255 22.5605C71.3373 22.5605 69.2229 24.4624 69.2229 27.0865C69.2229 29.6893 71.3373 31.6112 73.9255 31.6112C76.5192 31.6112 78.6335 29.6893 78.6335 27.0865C78.6335 24.4624 76.5192 22.5605 73.9255 22.5605ZM73.9255 29.829C72.5053 29.829 71.2836 28.6971 71.2836 27.0865C71.2836 25.4546 72.5053 24.3427 73.9255 24.3427C75.3456 24.3427 76.5729 25.4546 76.5729 27.0865C76.5729 28.6971 75.3456 29.829 73.9255 29.829ZM63.665 22.5605C61.0713 22.5605 58.9625 24.4624 58.9625 27.0865C58.9625 29.6893 61.0713 31.6112 63.665 31.6112C66.2573 31.6112 68.3675 29.6893 68.3675 27.0865C68.3675 24.4624 66.2573 22.5605 63.665 22.5605ZM63.665 29.829C62.2435 29.829 61.0176 28.6971 61.0176 27.0865C61.0176 25.4546 62.2435 24.3427 63.665 24.3427C65.0851 24.3427 66.3069 25.4546 66.3069 27.0865C66.3069 28.6971 65.0851 29.829 63.665 29.829ZM51.4555 23.9477V25.8709H56.2118C56.0726 26.9455 55.7007 27.7356 55.1305 28.2862C54.4362 28.9512 53.355 29.6893 51.4555 29.6893C48.5285 29.6893 46.2364 27.4084 46.2364 24.5821C46.2364 21.7559 48.5285 19.4749 51.4555 19.4749C53.0382 19.4749 54.1897 20.0721 55.0396 20.8462L56.4432 19.4909C55.2544 18.395 53.6732 17.5531 51.4555 17.5531C47.4417 17.5531 44.0684 20.7065 44.0684 24.5821C44.0684 28.4577 47.4417 31.6112 51.4555 31.6112C53.6249 31.6112 55.2544 30.9249 56.5354 29.6374C57.8481 28.37 58.2572 26.5878 58.2572 25.1487C58.2572 24.7018 58.2187 24.2909 58.1498 23.9477H51.4555ZM101.382 25.4386C100.995 24.4265 99.8004 22.5605 97.3679 22.5605C94.9574 22.5605 92.9505 24.3946 92.9505 27.0865C92.9505 29.6215 94.9367 31.6112 97.5993 31.6112C99.7522 31.6112 100.995 30.3437 101.506 29.6055L99.9079 28.5774C99.3748 29.3302 98.6489 29.829 97.5993 29.829C96.5566 29.829 95.8086 29.3675 95.3293 28.4577L101.598 25.9533L101.382 25.4386ZM94.9905 26.9455C94.9367 25.2006 96.3941 24.3068 97.4381 24.3068C98.2563 24.3068 98.9506 24.7018 99.182 25.2671L94.9905 26.9455ZM89.8953 31.3359H91.956V18.0359H89.8953V31.3359ZM86.5207 23.5687H86.4518C85.989 23.0393 85.106 22.5605 83.9876 22.5605C81.6404 22.5605 79.4944 24.5502 79.4944 27.1011C79.4944 29.6374 81.6404 31.6112 83.9876 31.6112C85.106 31.6112 85.989 31.1284 86.4518 30.5831H86.5207V31.2321C86.5207 32.9624 85.5633 33.8921 84.0192 33.8921C82.7603 33.8921 81.9793 33.0143 81.657 32.2762L79.8649 32.9984C80.3815 34.198 81.7492 35.6743 84.0192 35.6743C86.4352 35.6743 88.4738 34.3018 88.4738 30.9621V22.8358H86.5207V23.5687ZM84.1639 29.829C82.7438 29.829 81.555 28.6812 81.555 27.1011C81.555 25.5065 82.7438 24.3427 84.1639 24.3427C85.5633 24.3427 86.6667 25.5065 86.6667 27.1011C86.6667 28.6812 85.5633 29.829 84.1639 29.829ZM111.029 18.0359H106.101V31.3359H108.156V26.2965H111.029C113.312 26.2965 115.55 24.7018 115.55 22.1655C115.55 19.6305 113.306 18.0359 111.029 18.0359ZM111.083 24.4465H108.156V19.8859H111.083C112.617 19.8859 113.493 21.1161 113.493 22.1655C113.493 23.1949 112.617 24.4465 111.083 24.4465ZM123.787 22.5353C122.302 22.5353 120.758 23.1683 120.123 24.5715L121.947 25.3096C122.339 24.5715 123.061 24.3321 123.824 24.3321C124.89 24.3321 125.972 24.9505 125.988 26.0425V26.1821C125.616 25.9746 124.82 25.6674 123.841 25.6674C121.876 25.6674 119.875 26.7115 119.875 28.6599C119.875 30.4421 121.484 31.5899 123.292 31.5899C124.675 31.5899 125.438 30.9874 125.918 30.2865H125.988V31.3146H127.973V26.2127C127.973 23.8546 126.149 22.5353 123.787 22.5353ZM123.539 29.8237C122.867 29.8237 121.93 29.5018 121.93 28.6971C121.93 27.6677 123.098 27.2727 124.109 27.2727C125.014 27.2727 125.438 27.4656 125.988 27.7196C125.827 28.9512 124.729 29.8237 123.539 29.8237ZM135.204 22.8265L132.842 28.5921H132.772L130.33 22.8265H128.113L131.783 30.8837L129.689 35.3671H131.837L137.491 22.8265H135.204ZM116.679 31.3359H118.74V18.0359H116.679V31.3359Z" fill="#333333"/>
<path d="M12.9837 7.98258C12.66 8.30976 12.4727 8.81915 12.4727 9.47883V33.0092C12.4727 33.6689 12.66 34.1783 12.9837 34.5054L13.0636 34.5773L26.7194 21.397V21.0857L13.0636 7.90545L12.9837 7.98258Z" fill="url(#paint0_linear_424_3193)"/>
<path d="M31.2695 25.7928L26.7227 21.3972V21.086L31.2751 16.6903L31.377 16.7475L36.7682 19.7094C38.3068 20.55 38.3068 21.9332 36.7682 22.7791L31.377 25.7357L31.2695 25.7928Z" fill="url(#paint1_linear_424_3193)"/>
<path d="M31.3783 25.7341L26.724 21.24L12.9883 34.5041C13.4993 35.0228 14.3326 35.0853 15.2803 34.5666L31.3783 25.7341Z" fill="url(#paint2_linear_424_3193)"/>
<path d="M31.3783 16.7471L15.2803 7.91461C14.3326 7.40123 13.4993 7.46374 12.9883 7.98244L26.724 21.2412L31.3783 16.7471Z" fill="url(#paint3_linear_424_3193)"/>
<defs>
<linearGradient id="paint0_linear_424_3193" x1="25.5069" y1="33.2542" x2="7.66139" y2="14.7724" gradientUnits="userSpaceOnUse">
<stop stop-color="#00A0FF"/>
<stop offset="0.0066" stop-color="#00A1FF"/>
<stop offset="0.2601" stop-color="#00BEFF"/>
<stop offset="0.5122" stop-color="#00D2FF"/>
<stop offset="0.7604" stop-color="#00DFFF"/>
<stop offset="1" stop-color="#00E3FF"/>
</linearGradient>
<linearGradient id="paint1_linear_424_3193" x1="38.7717" y1="21.2401" x2="12.1082" y2="21.2401" gradientUnits="userSpaceOnUse">
<stop stop-color="#FFE000"/>
<stop offset="0.4087" stop-color="#FFBD00"/>
<stop offset="0.7754" stop-color="#FFA500"/>
<stop offset="1" stop-color="#FF9C00"/>
</linearGradient>
<linearGradient id="paint2_linear_424_3193" x1="28.8474" y1="18.797" x2="4.64745" y2="-6.26599" gradientUnits="userSpaceOnUse">
<stop stop-color="#FF3A44"/>
<stop offset="1" stop-color="#C31162"/>
</linearGradient>
<linearGradient id="paint3_linear_424_3193" x1="9.53072" y1="42.3337" x2="20.3371" y2="31.1421" gradientUnits="userSpaceOnUse">
<stop stop-color="#32A071"/>
<stop offset="0.0685" stop-color="#2DA771"/>
<stop offset="0.4762" stop-color="#15CF74"/>
<stop offset="0.8009" stop-color="#06E775"/>
<stop offset="1" stop-color="#00F076"/>
</linearGradient>
</defs>
</svg>
