<svg width="178" height="50" viewBox="0 0 178 50" fill="none" xmlns="http://www.w3.org/2000/svg">
<path d="M171.407 50H6.59259C2.96832 50 0 47.1859 0 43.75V6.25001C0 2.81408 2.96832 1.20908e-05 6.59259 1.20908e-05H171.407C175.032 1.20908e-05 178 2.81408 178 6.25001V43.75C178 47.1859 175.032 50 171.407 50Z" fill="#333333"/>
<path d="M61.4516 12.28C61.4516 13.3377 61.1203 14.1847 60.4676 14.8165C59.7172 15.5654 58.7399 15.9422 57.5422 15.9422C56.3975 15.9422 55.4201 15.5591 54.6184 14.8038C53.8149 14.0375 53.4141 13.097 53.4141 11.9712C53.4141 10.8455 53.8149 9.90499 54.6184 9.145C55.4201 8.38341 56.3975 8.00024 57.5422 8.00024C58.112 8.00024 58.6554 8.11266 59.1739 8.32166C59.6907 8.53224 60.1115 8.81724 60.4163 9.16874L59.7238 9.83691C59.1921 9.23683 58.4682 8.94075 57.5422 8.94075C56.7073 8.94075 55.9834 9.21941 55.3688 9.78149C54.7608 10.3452 54.456 11.0751 54.456 11.9712C54.456 12.8674 54.7608 13.6037 55.3688 14.1673C55.9834 14.7231 56.7073 15.0081 57.5422 15.0081C58.4284 15.0081 59.1739 14.7231 59.7619 14.161C60.1496 13.7889 60.3699 13.2759 60.4279 12.6204H57.5422V11.7052H61.392C61.4384 11.9032 61.4516 12.0947 61.4516 12.28Z" fill="white" stroke="white" stroke-width="0.237847" stroke-miterlimit="10"/>
<path d="M67.5619 9.10641H63.9456V11.5131H67.2057V12.4282H63.9456V14.8349H67.5619V15.7675H62.9219V8.17383H67.5619V9.10641Z" fill="white" stroke="white" stroke-width="0.237847" stroke-miterlimit="10"/>
<path d="M71.8669 15.7675H70.8431V9.10641H68.625V8.17383H74.0866V9.10641H71.8669V15.7675Z" fill="white" stroke="white" stroke-width="0.237847" stroke-miterlimit="10"/>
<path d="M78.0391 15.7675V8.17383H79.0612V15.7675H78.0391Z" fill="white" stroke="white" stroke-width="0.237847" stroke-miterlimit="10"/>
<path d="M83.5934 15.7675H82.5779V9.10641H80.3516V8.17383H85.8198V9.10641H83.5934V15.7675Z" fill="white" stroke="white" stroke-width="0.237847" stroke-miterlimit="10"/>
<path d="M96.1741 14.7912C95.3905 15.5591 94.4198 15.9422 93.2619 15.9422C92.0973 15.9422 91.1266 15.5591 90.3431 14.7912C89.5612 14.0248 89.1719 13.0843 89.1719 11.9712C89.1719 10.8582 89.5612 9.91766 90.3431 9.15133C91.1266 8.38341 92.0973 8.00024 93.2619 8.00024C94.4132 8.00024 95.3839 8.38341 96.1675 9.15766C96.956 9.93033 97.3453 10.8645 97.3453 11.9712C97.3453 13.0843 96.956 14.0248 96.1741 14.7912ZM91.1001 14.1547C91.6898 14.7231 92.4071 15.0081 93.2619 15.0081C94.11 15.0081 94.8339 14.7231 95.417 14.1547C96.0051 13.5862 96.3033 12.8563 96.3033 11.9712C96.3033 11.0862 96.0051 10.3562 95.417 9.78783C94.8339 9.21941 94.11 8.93441 93.2619 8.93441C92.4071 8.93441 91.6898 9.21941 91.1001 9.78783C90.512 10.3562 90.2138 11.0862 90.2138 11.9712C90.2138 12.8563 90.512 13.5862 91.1001 14.1547Z" fill="white" stroke="white" stroke-width="0.237847" stroke-miterlimit="10"/>
<path d="M98.7812 15.7675V8.17383H100.024L103.887 14.0797H103.931L103.887 12.6198V8.17383H104.909V15.7675H103.842L99.7967 9.57033H99.752L99.7967 11.0365V15.7675H98.7812Z" fill="white" stroke="white" stroke-width="0.237847" stroke-miterlimit="10"/>
<path d="M88.9092 26.8564C85.7964 26.8564 83.2535 29.1205 83.2535 32.2444C83.2535 35.343 85.7964 37.6309 88.9092 37.6309C92.0287 37.6309 94.5716 35.343 94.5716 32.2444C94.5716 29.1205 92.0287 26.8564 88.9092 26.8564ZM88.9092 35.5093C87.2012 35.5093 85.7318 34.1619 85.7318 32.2444C85.7318 30.3017 87.2012 28.978 88.9092 28.978C90.6172 28.978 92.0933 30.3017 92.0933 32.2444C92.0933 34.1619 90.6172 35.5093 88.9092 35.5093ZM76.5689 26.8564C73.4495 26.8564 70.9132 29.1205 70.9132 32.2444C70.9132 35.343 73.4495 37.6309 76.5689 37.6309C79.6867 37.6309 82.2247 35.343 82.2247 32.2444C82.2247 29.1205 79.6867 26.8564 76.5689 26.8564ZM76.5689 35.5093C74.8593 35.5093 73.3849 34.1619 73.3849 32.2444C73.3849 30.3017 74.8593 28.978 76.5689 28.978C78.2769 28.978 79.7464 30.3017 79.7464 32.2444C79.7464 34.1619 78.2769 35.5093 76.5689 35.5093ZM61.8845 28.5078V30.7973H67.6049C67.4376 32.0766 66.9903 33.0171 66.3044 33.6726C65.4695 34.4643 64.169 35.343 61.8845 35.343C58.3642 35.343 55.6075 32.6276 55.6075 29.263C55.6075 25.8984 58.3642 23.183 61.8845 23.183C63.788 23.183 65.173 23.8939 66.1951 24.8154L67.8832 23.202C66.4535 21.8974 64.5517 20.8951 61.8845 20.8951C57.0571 20.8951 53 24.6492 53 29.263C53 33.8769 57.0571 37.6309 61.8845 37.6309C64.4937 37.6309 66.4535 36.8139 67.9942 35.2813C69.573 33.7724 70.065 31.6507 70.065 29.9375C70.065 29.4055 70.0186 28.9163 69.9358 28.5078H61.8845ZM121.931 30.2827C121.465 29.0778 120.029 26.8564 117.104 26.8564C114.204 26.8564 111.791 29.0398 111.791 32.2444C111.791 35.2623 114.18 37.6309 117.382 37.6309C119.971 37.6309 121.465 36.122 122.08 35.2433L120.158 34.0194C119.517 34.9155 118.644 35.5093 117.382 35.5093C116.128 35.5093 115.228 34.9599 114.652 33.8769L122.191 30.8954L121.931 30.2827ZM114.244 32.0766C114.18 29.9993 115.932 28.9353 117.188 28.9353C118.172 28.9353 119.007 29.4055 119.285 30.0784L114.244 32.0766ZM108.116 37.3032H110.595V21.4699H108.116V37.3032ZM104.057 28.0565H103.975C103.418 27.4264 102.356 26.8564 101.011 26.8564C98.188 26.8564 95.607 29.225 95.607 32.2619C95.607 35.2813 98.188 37.6309 101.011 37.6309C102.356 37.6309 103.418 37.0562 103.975 36.407H104.057V37.1797C104.057 39.2396 102.906 40.3464 101.049 40.3464C99.5349 40.3464 98.5956 39.3014 98.2079 38.4226L96.0526 39.2824C96.6739 40.7105 98.3189 42.468 101.049 42.468C103.955 42.468 106.407 40.834 106.407 36.8583V27.1841H104.057V28.0565ZM101.223 35.5093C99.515 35.5093 98.0853 34.1429 98.0853 32.2619C98.0853 30.3634 99.515 28.978 101.223 28.978C102.906 28.978 104.233 30.3634 104.233 32.2619C104.233 34.1429 102.906 35.5093 101.223 35.5093ZM133.534 21.4699H127.607V37.3032H130.078V31.3039H133.534C136.279 31.3039 138.971 29.4055 138.971 26.3861C138.971 23.3683 136.272 21.4699 133.534 21.4699ZM133.599 29.1015H130.078V23.6723H133.599C135.444 23.6723 136.498 25.1369 136.498 26.3861C136.498 27.6116 135.444 29.1015 133.599 29.1015ZM148.878 26.8263C147.092 26.8263 145.235 27.5799 144.471 29.2504L146.665 30.1291C147.137 29.2504 148.005 28.9654 148.923 28.9654C150.205 28.9654 151.505 29.7016 151.525 31.0015V31.1678C151.078 30.9208 150.12 30.555 148.942 30.555C146.58 30.555 144.173 31.7979 144.173 34.1175C144.173 36.2392 146.108 37.6056 148.283 37.6056C149.946 37.6056 150.864 36.8884 151.441 36.0539H151.525V37.2779H153.912V31.2042C153.912 28.3969 151.719 26.8263 148.878 26.8263ZM148.58 35.5029C147.771 35.5029 146.645 35.1198 146.645 34.1619C146.645 32.9364 148.049 32.4661 149.265 32.4661C150.354 32.4661 150.864 32.6957 151.525 32.9981C151.331 34.4643 150.011 35.5029 148.58 35.5029ZM162.61 27.173L159.768 34.0368H159.684L156.747 27.173H154.081L158.495 36.7649L155.976 42.1023H158.559L165.36 27.173H162.61ZM140.33 37.3032H142.808V21.4699H140.33V37.3032Z" fill="white"/>
<path d="M15.6224 9.50201C15.2331 9.89151 15.0078 10.4979 15.0078 11.2833V39.2956C15.0078 40.0809 15.2331 40.6874 15.6224 41.0769L15.7185 41.1624L32.1424 25.4715V25.101L15.7185 9.41018L15.6224 9.50201Z" fill="url(#paint0_linear_2056_97665)"/>
<path d="M37.6092 30.707L32.1406 25.4741V25.1036L37.6158 19.8707L37.7384 19.9388L44.2225 23.4649C46.0729 24.4655 46.0729 26.1122 44.2225 27.1192L37.7384 30.6389L37.6092 30.707Z" fill="url(#paint1_linear_2056_97665)"/>
<path d="M37.7427 30.6368L32.145 25.2868L15.625 41.0773C16.2396 41.6948 17.2419 41.7693 18.3816 41.1518L37.7427 30.6368Z" fill="url(#paint2_linear_2056_97665)"/>
<path d="M37.7427 19.9373L18.3816 9.42235C17.2419 8.81119 16.2396 8.8856 15.625 9.5031L32.145 25.2874L37.7427 19.9373Z" fill="url(#paint3_linear_2056_97665)"/>
<defs>
<linearGradient id="paint0_linear_2056_97665" x1="30.6842" y1="39.5873" x2="9.44819" y2="17.3682" gradientUnits="userSpaceOnUse">
<stop stop-color="#00A0FF"/>
<stop offset="0.0066" stop-color="#00A1FF"/>
<stop offset="0.2601" stop-color="#00BEFF"/>
<stop offset="0.5122" stop-color="#00D2FF"/>
<stop offset="0.7604" stop-color="#00DFFF"/>
<stop offset="1" stop-color="#00E3FF"/>
</linearGradient>
<linearGradient id="paint1_linear_2056_97665" x1="46.6321" y1="25.2871" x2="14.5637" y2="25.2871" gradientUnits="userSpaceOnUse">
<stop stop-color="#FFE000"/>
<stop offset="0.4087" stop-color="#FFBD00"/>
<stop offset="0.7754" stop-color="#FFA500"/>
<stop offset="1" stop-color="#FF9C00"/>
</linearGradient>
<linearGradient id="paint2_linear_2056_97665" x1="34.6988" y1="22.3784" x2="5.90115" y2="-7.75255" gradientUnits="userSpaceOnUse">
<stop stop-color="#FF3A44"/>
<stop offset="1" stop-color="#C31162"/>
</linearGradient>
<linearGradient id="paint3_linear_2056_97665" x1="11.4666" y1="50.3975" x2="24.326" y2="36.9428" gradientUnits="userSpaceOnUse">
<stop stop-color="#32A071"/>
<stop offset="0.0685" stop-color="#2DA771"/>
<stop offset="0.4762" stop-color="#15CF74"/>
<stop offset="0.8009" stop-color="#06E775"/>
<stop offset="1" stop-color="#00F076"/>
</linearGradient>
</defs>
</svg>
