<svg width="150" height="117" viewBox="0 0 150 117" fill="none" xmlns="http://www.w3.org/2000/svg">
<path d="M85.5304 36.6632C85.5304 37.9058 86.5378 38.9132 87.7804 38.9132C89.023 38.9132 90.0304 37.9058 90.0304 36.6632H85.5304ZM62.293 36.6632V15.6279H57.793V36.6632H62.293ZM60.043 15.6279C62.293 15.6279 62.293 15.629 62.293 15.6301C62.293 15.6304 62.293 15.6314 62.293 15.632C62.293 15.6332 62.293 15.6342 62.293 15.635C62.2929 15.6367 62.2929 15.6376 62.2929 15.6378C62.2929 15.6382 62.293 15.6357 62.293 15.6304C62.2932 15.6199 62.2937 15.5982 62.2948 15.5662C62.2971 15.5021 62.3021 15.3969 62.3128 15.2566C62.3343 14.9753 62.3785 14.5574 62.4691 14.0496C62.6519 13.0239 63.0135 11.6871 63.7152 10.3749C64.4106 9.07436 65.4268 7.81986 66.9305 6.88248C68.4271 5.94947 70.5353 5.25 73.5474 5.25V0.75C69.8073 0.75 66.8513 1.62901 64.5499 3.06373C62.2554 4.49407 60.7395 6.39653 59.7469 8.25298C58.7605 10.0977 58.2781 11.9179 58.0389 13.2599C57.9184 13.9359 57.8571 14.5047 57.8259 14.9139C57.8102 15.1189 57.802 15.285 57.7977 15.4059C57.7955 15.4663 57.7944 15.5156 57.7937 15.5528C57.7934 15.5714 57.7932 15.5871 57.7931 15.5996C57.793 15.6059 57.793 15.6114 57.793 15.6161C57.793 15.6184 57.793 15.6206 57.793 15.6226C57.793 15.6235 57.793 15.6249 57.793 15.6254C57.793 15.6266 57.793 15.6279 60.043 15.6279ZM73.5474 5.25C79.8333 5.25 82.6516 7.953 84.0411 10.4186C84.7774 11.7251 85.1557 13.0534 85.3467 14.0702C85.4413 14.5739 85.4875 14.9879 85.5099 15.2658C85.521 15.4044 85.5262 15.5079 85.5285 15.5705C85.5297 15.6018 85.5302 15.6227 85.5303 15.6325C85.5304 15.6374 85.5304 15.6396 85.5304 15.6388C85.5304 15.6385 85.5304 15.6374 85.5304 15.6355C85.5304 15.6346 85.5304 15.6335 85.5304 15.6323C85.5304 15.6316 85.5304 15.6305 85.5304 15.6302C85.5304 15.629 85.5304 15.6279 87.7804 15.6279C90.0304 15.6279 90.0304 15.6266 90.0304 15.6252C90.0304 15.6247 90.0304 15.6233 90.0304 15.6223C90.0304 15.6203 90.0304 15.618 90.0304 15.6156C90.0304 15.6107 90.0303 15.605 90.0303 15.5986C90.0301 15.5857 90.0299 15.5697 90.0296 15.5507C90.0289 15.5128 90.0276 15.4628 90.0253 15.4016C90.0207 15.2792 90.012 15.1114 89.9954 14.9047C89.9621 14.492 89.8971 13.9195 89.7693 13.2394C89.5155 11.8883 89.0043 10.0598 87.9614 8.20927C85.7927 4.36092 81.4946 0.75 73.5474 0.75V5.25ZM85.5304 15.6279V36.6632H90.0304V15.6279H85.5304Z" fill="url(#paint0_linear_1428_26038)"/>
<path fill-rule="evenodd" clip-rule="evenodd" d="M46.7383 33.671C46.7383 52.6533 64.3478 63.8529 72.2286 66.5375C73.1526 66.8629 74.6744 66.8629 75.5983 66.5375C83.4791 63.8529 101.089 52.6533 101.089 33.671C101.089 25.2917 94.322 18.5123 85.9793 18.5123C81.0606 18.5123 76.6582 20.8987 73.9135 24.5867C71.1688 20.8987 66.7936 18.5123 61.8477 18.5123C53.5049 18.5123 46.7383 25.2917 46.7383 33.671ZM66.7916 48.6146V35.9349C66.7916 33.3247 69.6504 31.7083 71.9321 33.0067L77.5021 36.1733L83.0721 39.3532C85.3538 40.6517 85.3538 43.8978 83.0721 45.1963L77.5021 48.3761L71.9321 51.5428C69.6504 52.8412 66.7916 51.2115 66.7916 48.6146Z" fill="url(#paint1_linear_1428_26038)"/>
<path d="M72.2286 66.5375L72.6351 65.3835L72.6231 65.3795L72.2286 66.5375ZM75.5983 66.5375L75.2038 65.3794L75.1919 65.3836L75.5983 66.5375ZM73.9135 24.5867L72.932 25.3171C73.1629 25.6273 73.5268 25.8101 73.9135 25.8101C74.3002 25.8101 74.6641 25.6273 74.8949 25.3171L73.9135 24.5867ZM71.9321 33.0067L71.327 34.0701L71.3274 34.0703L71.9321 33.0067ZM77.5021 36.1733L78.1086 35.1109L78.1067 35.1098L77.5021 36.1733ZM83.0721 39.3532L82.4656 40.4157L82.467 40.4165L83.0721 39.3532ZM83.0721 45.1963L82.467 44.1329L82.4656 44.1338L83.0721 45.1963ZM77.5021 48.3761L78.1067 49.4397L78.1086 49.4386L77.5021 48.3761ZM71.9321 51.5428L71.3274 50.4792L71.327 50.4795L71.9321 51.5428ZM72.6231 65.3795C68.858 64.0969 62.6516 60.727 57.4028 55.3605C52.1686 50.009 47.9617 42.7543 47.9617 33.671H45.5148C45.5148 43.5701 50.1127 51.4064 55.6535 57.0714C61.1796 62.7214 67.7184 66.2936 71.8341 67.6956L72.6231 65.3795ZM75.1919 65.3836C74.9013 65.4859 74.4377 65.5582 73.9135 65.5582C73.3893 65.5582 72.9256 65.4859 72.635 65.3836L71.8222 67.6915C72.4556 67.9146 73.2148 68.005 73.9135 68.005C74.6122 68.005 75.3714 67.9146 76.0048 67.6915L75.1919 65.3836ZM99.8652 33.671C99.8652 42.7543 95.6583 50.009 90.4242 55.3605C85.1753 60.727 78.9689 64.0969 75.2038 65.3795L75.9928 67.6956C80.1086 66.2936 86.6473 62.7214 92.1734 57.0714C97.7143 51.4064 102.312 43.5701 102.312 33.671H99.8652ZM85.9793 19.7358C93.6431 19.7358 99.8652 25.9641 99.8652 33.671H102.312C102.312 24.6193 95.001 17.2889 85.9793 17.2889V19.7358ZM74.8949 25.3171C77.4188 21.9259 81.4637 19.7358 85.9793 19.7358V17.2889C80.6574 17.2889 75.8976 19.8715 72.932 23.8562L74.8949 25.3171ZM61.8477 19.7358C66.3892 19.7358 70.4074 21.9249 72.932 25.3171L74.8949 23.8562C71.9301 19.8725 67.1979 17.2889 61.8477 17.2889V19.7358ZM47.9617 33.671C47.9617 25.9641 54.1839 19.7358 61.8477 19.7358V17.2889C52.826 17.2889 45.5148 24.6193 45.5148 33.671H47.9617ZM65.5681 35.9349V48.6146H68.015V35.9349H65.5681ZM72.5372 31.9434C69.4683 30.197 65.5681 32.3537 65.5681 35.9349H68.015C68.015 34.2957 69.8324 33.2195 71.327 34.0701L72.5372 31.9434ZM78.1067 35.1098L72.5367 31.9432L71.3274 34.0703L76.8974 37.2369L78.1067 35.1098ZM83.6787 38.2907L78.1086 35.1109L76.8955 37.2358L82.4656 40.4157L83.6787 38.2907ZM83.6772 46.2596C86.7834 44.492 86.7834 40.0575 83.6772 38.2899L82.467 40.4165C83.9243 41.2458 83.9243 43.3036 82.467 44.1329L83.6772 46.2596ZM78.1086 49.4386L83.6787 46.2587L82.4656 44.1338L76.8955 47.3136L78.1086 49.4386ZM72.5367 52.6063L78.1067 49.4397L76.8974 47.3126L71.3274 50.4792L72.5367 52.6063ZM65.5681 48.6146C65.5681 52.1785 69.4648 54.3545 72.5372 52.6061L71.327 50.4795C69.8359 51.328 68.015 50.2446 68.015 48.6146H65.5681Z" fill="url(#paint2_linear_1428_26038)"/>
<path d="M139.239 107.377C138.28 107.377 137.44 107.197 136.72 106.838C135.977 106.455 135.437 105.761 135.101 104.756C135.077 104.66 135.113 104.6 135.209 104.576C135.281 104.552 135.329 104.6 135.353 104.72C135.593 105.246 135.905 105.617 136.288 105.833C136.672 106.048 137.092 106.156 137.548 106.156C138.315 106.156 138.987 105.929 139.563 105.474C140.163 105.019 140.69 104.444 141.146 103.75C141.626 103.056 142.046 102.35 142.406 101.632C142.789 100.89 143.149 100.255 143.485 99.7285C144.013 98.8428 144.637 98.0409 145.356 97.3227C146.1 96.6046 146.772 96.1617 147.371 95.9942C147.227 95.9223 147.048 95.8864 146.832 95.8864C146.232 95.8864 145.572 96.066 144.853 96.425C144.133 96.7841 143.401 97.2509 142.658 97.8254C141.938 98.4 141.23 99.0104 140.534 99.6567C139.863 100.279 139.239 100.866 138.663 101.416C138.112 101.943 137.668 102.362 137.332 102.673C137.14 102.841 136.996 102.924 136.9 102.924C136.804 102.924 136.756 102.876 136.756 102.781C136.756 102.637 136.816 102.505 136.936 102.386C137.656 101.763 138.399 101.069 139.167 100.303C139.935 99.5131 140.714 98.759 141.506 98.0409C142.298 97.2988 143.101 96.6884 143.917 96.2096C144.733 95.7308 145.56 95.4915 146.4 95.4915C146.496 95.4915 146.58 95.4915 146.652 95.4915C146.748 95.4915 146.844 95.5034 146.94 95.5274C147.203 95.5513 147.443 95.6231 147.659 95.7428C147.899 95.8625 147.971 95.9463 147.875 95.9942C147.323 96.2335 146.892 96.7123 146.58 97.4305C146.268 98.1486 145.98 98.9864 145.716 99.944C145.452 100.902 145.128 101.871 144.745 102.852C144.385 103.834 143.857 104.708 143.161 105.474C143.497 105.354 144.025 105.079 144.745 104.648C145.464 104.217 146.256 103.69 147.12 103.068C147.983 102.422 148.787 101.715 149.53 100.949C149.626 100.854 149.722 100.806 149.818 100.806C149.938 100.806 149.998 100.866 149.998 100.985C149.998 101.081 149.95 101.177 149.854 101.273C149.207 101.895 148.487 102.565 147.695 103.283C146.904 103.978 146.04 104.636 145.104 105.258C144.193 105.881 143.245 106.395 142.262 106.802C141.278 107.185 140.271 107.377 139.239 107.377Z" fill="url(#paint3_linear_1428_26038)"/>
<path d="M118.467 116.964C118.299 116.725 118.132 116.426 117.964 116.066C117.772 115.707 117.676 115.217 117.676 114.594C117.676 114.092 117.856 113.361 118.216 112.404C118.575 111.47 119.055 110.405 119.655 109.208C120.231 108.011 120.89 106.778 121.634 105.51C122.354 104.217 123.085 102.996 123.829 101.847C123.373 102.302 122.905 102.709 122.426 103.068C122.33 103.14 122.258 103.176 122.21 103.176C122.138 103.176 122.102 103.128 122.102 103.032C122.102 102.984 122.138 102.9 122.21 102.781C122.258 102.661 122.354 102.541 122.498 102.422C122.977 102.015 123.553 101.464 124.225 100.77C124.897 100.052 125.592 99.2378 126.312 98.3282C126.864 97.634 127.343 97.0235 127.751 96.4969C128.159 95.9463 128.483 95.5513 128.723 95.312C128.987 95.0486 129.227 94.8452 129.442 94.7015C129.658 94.5579 129.886 94.4861 130.126 94.4861C130.39 94.4861 130.69 94.5579 131.026 94.7015C131.386 94.8212 131.721 95.0486 132.033 95.3838C131.769 95.695 131.422 96.1378 130.99 96.7123C130.558 97.2869 130.15 97.8374 129.766 98.3641C130.318 97.7177 131.05 97.1432 131.961 96.6405C132.873 96.1378 133.725 95.8865 134.516 95.8865C135.236 95.8865 135.812 96.1139 136.243 96.5687C136.675 97.0235 136.891 97.622 136.891 98.3641C136.891 99.178 136.663 100.076 136.207 101.057C135.752 102.015 135.14 102.948 134.372 103.858C133.437 104.959 132.393 105.857 131.242 106.551C130.114 107.245 129.083 107.592 128.147 107.592C127.475 107.592 126.948 107.401 126.564 107.018C126.18 106.635 125.988 106.072 125.988 105.33C125.988 104.564 126.156 103.738 126.492 102.853C125.844 103.666 125.148 104.6 124.405 105.653C123.685 106.707 122.977 107.784 122.282 108.885C121.586 109.986 120.962 111.039 120.411 112.045C119.835 113.05 119.379 113.936 119.043 114.702C118.707 115.468 118.539 116.042 118.539 116.426C118.539 116.617 118.563 116.737 118.611 116.785C118.683 116.88 118.695 116.94 118.647 116.964C118.575 117.012 118.515 117.012 118.467 116.964ZM127.967 107.197C128.663 107.197 129.347 106.982 130.018 106.551C130.714 106.096 131.338 105.51 131.889 104.792C132.441 104.073 132.885 103.307 133.221 102.493C133.557 101.68 133.725 100.914 133.725 100.195C133.725 99.549 133.569 99.0463 133.257 98.6872C132.969 98.3282 132.561 98.1486 132.033 98.1486C131.41 98.1486 130.702 98.4239 129.91 98.9745C129.119 99.5012 128.399 100.267 127.751 101.273C127.271 101.967 126.924 102.673 126.708 103.391C126.516 104.085 126.42 104.708 126.42 105.258C126.42 105.953 126.564 106.455 126.852 106.766C127.139 107.054 127.511 107.197 127.967 107.197Z" fill="url(#paint4_linear_1428_26038)"/>
<path d="M120.861 95.9944C120.525 95.9944 120.273 95.8867 120.106 95.6713C119.938 95.4558 119.854 95.2284 119.854 94.989C119.854 94.5103 120.082 94.0435 120.537 93.5886C120.993 93.1099 121.473 92.8705 121.977 92.8705C122.313 92.8705 122.564 92.9782 122.732 93.1937C122.9 93.4091 122.984 93.6365 122.984 93.8759C122.984 94.3786 122.756 94.8574 122.301 95.3122C121.869 95.767 121.389 95.9944 120.861 95.9944ZM115.356 107.018C114.372 107.018 113.7 106.815 113.341 106.408C113.005 105.977 112.837 105.498 112.837 104.971C112.837 104.54 112.909 104.133 113.053 103.75C113.197 103.343 113.317 103.056 113.413 102.889C113.557 102.649 113.748 102.374 113.988 102.063C114.252 101.752 114.54 101.416 114.852 101.057C114.372 101.464 113.916 101.859 113.485 102.242C113.077 102.625 112.741 102.913 112.477 103.104C112.405 103.176 112.333 103.212 112.261 103.212C112.165 103.212 112.117 103.152 112.117 103.032C112.117 102.841 112.249 102.649 112.513 102.458C113.137 101.931 113.736 101.357 114.312 100.734C114.912 100.112 115.476 99.5373 116.003 99.0106C116.531 98.4601 116.999 98.0771 117.407 97.8616C117.839 97.6222 118.186 97.4666 118.45 97.3948C118.714 97.323 118.93 97.2871 119.098 97.2871C119.362 97.2871 119.554 97.335 119.674 97.4307C119.794 97.5025 119.818 97.5863 119.746 97.6821C119.338 98.089 118.93 98.6157 118.522 99.262C118.138 99.8844 117.779 100.543 117.443 101.237C117.107 101.931 116.831 102.589 116.615 103.212C116.423 103.834 116.327 104.361 116.327 104.792C116.327 105.39 116.567 105.689 117.047 105.689C117.503 105.689 118.09 105.486 118.81 105.079C119.554 104.648 120.321 104.11 121.113 103.463C121.929 102.817 122.684 102.182 123.38 101.56C123.476 101.464 123.56 101.416 123.632 101.416C123.752 101.416 123.812 101.476 123.812 101.596C123.836 101.716 123.812 101.799 123.74 101.847C122.948 102.589 122.049 103.367 121.041 104.181C120.058 104.971 119.062 105.642 118.055 106.192C117.071 106.743 116.171 107.018 115.356 107.018Z" fill="url(#paint5_linear_1428_26038)"/>
<path d="M105.57 107.161C104.611 107.161 103.939 106.934 103.555 106.479C103.171 106 102.979 105.45 102.979 104.827C102.979 104.229 103.087 103.595 103.303 102.924C103.543 102.254 103.807 101.62 104.095 101.021C103.783 101.356 103.483 101.668 103.195 101.955C102.907 102.218 102.668 102.434 102.476 102.601C102.38 102.673 102.284 102.709 102.188 102.709C102.068 102.709 102.008 102.649 102.008 102.529C102.008 102.41 102.08 102.302 102.224 102.206C102.727 101.775 103.315 101.189 103.987 100.447C104.659 99.7046 105.282 98.9506 105.858 98.1846C106.338 97.5622 106.914 96.7842 107.585 95.8506C108.257 94.917 108.941 93.9355 109.636 92.9062C110.332 91.8529 110.932 90.8954 111.436 90.0336C111.508 89.8899 111.579 89.7104 111.651 89.495C111.747 89.2795 111.795 89.088 111.795 88.9204C111.795 88.6811 111.699 88.5614 111.508 88.5614C111.46 88.5614 111.316 88.6092 111.076 88.705C110.86 88.8008 110.644 88.8965 110.428 88.9923C110.212 89.088 110.08 89.1359 110.032 89.1359C109.84 89.1359 109.852 89.0282 110.068 88.8127C110.452 88.5255 110.932 88.2502 111.508 87.9869C112.107 87.6996 112.719 87.4602 113.343 87.2687C113.966 87.0772 114.494 86.9814 114.926 86.9814C115.934 86.9814 116.437 87.3046 116.437 87.9509C116.437 88.2861 116.281 88.7289 115.969 89.2795C115.706 89.7104 115.322 90.2251 114.818 90.8235C114.314 91.3981 113.75 92.0205 113.127 92.6907C112.527 93.3371 111.939 93.9834 111.364 94.6297C110.788 95.2521 110.308 95.8027 109.924 96.2815C109.828 96.4012 109.588 96.7124 109.205 97.2151C108.845 97.7178 108.425 98.3282 107.945 99.0463C107.489 99.7405 107.022 100.483 106.542 101.273C106.086 102.039 105.702 102.781 105.39 103.499C105.102 104.193 104.958 104.78 104.958 105.258C104.958 105.905 105.27 106.228 105.894 106.228C106.302 106.228 106.818 106.108 107.441 105.869C108.041 105.653 108.665 105.33 109.313 104.899C109.984 104.444 110.632 103.966 111.256 103.463C111.903 102.96 112.467 102.481 112.947 102.027C113.451 101.572 113.822 101.225 114.062 100.985C114.206 100.842 114.326 100.77 114.422 100.77C114.518 100.77 114.566 100.83 114.566 100.949C114.566 101.069 114.506 101.189 114.386 101.308C114.002 101.715 113.475 102.242 112.803 102.888C112.155 103.535 111.424 104.193 110.608 104.863C109.816 105.51 108.989 106.06 108.125 106.515C107.261 106.946 106.41 107.161 105.57 107.161Z" fill="url(#paint6_linear_1428_26038)"/>
<path d="M86.8295 108.382C85.678 108.382 84.5385 108.239 83.411 107.951C82.2835 107.688 81.252 107.257 80.3164 106.659C79.3809 106.06 78.6372 105.294 78.0854 104.361C77.5337 103.427 77.2578 102.302 77.2578 100.985C77.2578 99.7405 77.5097 98.5436 78.0135 97.3945C78.5172 96.2455 79.1649 95.1683 79.9566 94.1629C80.7722 93.1575 81.6118 92.2598 82.4754 91.4698C83.6989 90.3687 85.0903 89.3034 86.6496 88.2741C88.2089 87.2447 89.8641 86.3231 91.6153 85.5092C93.3905 84.6953 95.1777 84.049 96.9769 83.5702C98.7761 83.0914 100.503 82.8521 102.159 82.8521C102.878 82.8521 103.658 82.9598 104.497 83.1752C105.361 83.3907 106.093 83.7497 106.692 84.2524C107.316 84.7551 107.628 85.4613 107.628 86.371C107.628 87.1849 107.352 87.9868 106.8 88.7768C106.249 89.5667 105.517 90.3088 104.605 91.003C103.694 91.6972 102.686 92.3436 101.583 92.942C100.479 93.5166 99.3518 94.0312 98.2003 94.486C97.0728 94.9169 96.0053 95.264 94.9978 95.5274C93.9902 95.7907 93.1386 95.9583 92.4429 96.0301C92.275 96.054 92.1071 96.066 91.9392 96.066C91.7712 96.066 91.6033 96.066 91.4354 96.066C91.2915 96.066 90.9916 96.054 90.5358 96.0301C90.08 95.9822 89.6482 95.8984 89.2404 95.7787C88.8326 95.659 88.6287 95.4795 88.6287 95.2401C88.6287 95.1204 88.7006 95.0606 88.8446 95.0606C88.9405 95.0606 89.0605 95.0845 89.2044 95.1324C89.3483 95.1803 89.5283 95.2042 89.7442 95.2042C90.3199 95.2042 91.0636 95.0606 91.9752 94.7733C92.8867 94.486 93.8703 94.103 94.9258 93.6243C96.0053 93.1216 97.0728 92.559 98.1284 91.9366C99.1839 91.3142 100.155 90.6559 101.043 89.9617C101.931 89.2675 102.638 88.5733 103.166 87.8791C103.694 87.1849 103.958 86.5266 103.958 85.9042C103.958 85.3297 103.754 84.9107 103.346 84.6474C102.938 84.3602 102.458 84.1687 101.907 84.0729C101.355 83.9772 100.875 83.9293 100.467 83.9293C98.956 83.9293 97.3967 84.1567 95.7894 84.6115C94.2061 85.0663 92.6348 85.6887 91.0756 86.4787C89.5402 87.2447 88.0769 88.1065 86.6855 89.064C85.3182 90.0216 84.0947 91.003 83.0152 92.0084C82.2715 92.7026 81.5279 93.5046 80.7842 94.4142C80.0645 95.3 79.4648 96.2575 78.985 97.2868C78.5052 98.2922 78.2654 99.3335 78.2654 100.411C78.2654 101.608 78.5532 102.613 79.129 103.427C79.7047 104.241 80.4484 104.899 81.36 105.402C82.2955 105.881 83.3031 106.228 84.3826 106.443C85.4621 106.659 86.4936 106.766 87.4772 106.766C88.1009 106.766 88.7246 106.742 89.3483 106.695C89.9721 106.623 90.5838 106.539 91.1835 106.443C92.7908 106.156 94.2541 105.809 95.5735 105.402C96.9169 104.995 98.2003 104.468 99.4238 103.822C100.647 103.176 101.895 102.338 103.166 101.308C103.262 101.261 103.322 101.237 103.346 101.237C103.466 101.237 103.526 101.308 103.526 101.452C103.526 101.524 103.478 101.632 103.382 101.775C102.446 102.781 101.307 103.69 99.9635 104.504C98.6441 105.318 97.2288 106.012 95.7175 106.587C94.2061 107.161 92.6828 107.604 91.1475 107.915C89.6122 108.227 88.1729 108.382 86.8295 108.382Z" fill="url(#paint7_linear_1428_26038)"/>
<path d="M61.9102 107.161C61.6703 107.161 61.3825 107.101 61.0466 106.982C60.7108 106.886 60.3749 106.695 60.0391 106.407C60.3029 106.048 60.6868 105.569 61.1905 104.971C61.6703 104.349 62.1861 103.666 62.7378 102.924C63.2896 102.182 63.8054 101.44 64.2851 100.698C63.9013 101.081 63.4815 101.488 63.0257 101.919C62.5699 102.35 62.1141 102.745 61.6583 103.104C61.5624 103.2 61.4544 103.247 61.3345 103.247C61.2385 103.247 61.1905 103.2 61.1905 103.104C61.1905 102.984 61.2865 102.84 61.4784 102.673C62.1501 102.074 62.8938 101.392 63.7094 100.626C64.549 99.8362 65.1607 99.0343 65.5446 98.2204C65.6645 97.9331 65.7245 97.6698 65.7245 97.4304C65.7245 97.1192 65.6645 96.9277 65.5446 96.8559C65.4486 96.7841 65.4006 96.6883 65.4006 96.5686C65.4006 96.3532 65.5086 96.2455 65.7245 96.2455C65.8444 96.2455 65.9404 96.2694 66.0124 96.3173C66.2762 96.437 66.5281 96.6644 66.768 96.9995C67.0079 97.3347 67.1279 97.8374 67.1279 98.5076C67.1279 98.8907 67.0799 99.3335 66.9839 99.8362C66.888 100.315 66.72 100.866 66.4801 101.488C66.84 101.009 67.1998 100.542 67.5597 100.088C67.9435 99.6327 68.2913 99.2258 68.6032 98.8667C69.2509 98.1246 69.8986 97.598 70.5463 97.2868C71.218 96.9517 71.8177 96.7841 72.3455 96.7841C72.9692 96.7841 73.473 96.9636 73.8568 97.3227C74.2406 97.6818 74.4325 98.1486 74.4325 98.7231C74.4325 99.1779 74.3126 99.6447 74.0727 100.123C74.0007 100.315 73.8328 100.614 73.5689 101.021C73.3051 101.404 73.0172 101.823 72.7053 102.278C72.3935 102.733 72.1056 103.14 71.8417 103.499C71.5299 103.882 71.314 104.217 71.194 104.504C71.0741 104.768 71.0141 104.983 71.0141 105.151C71.0141 105.39 71.146 105.51 71.4099 105.51C71.7458 105.51 72.2135 105.33 72.8133 104.971C73.1731 104.756 73.5809 104.468 74.0367 104.109C74.5165 103.726 74.9843 103.343 75.4401 102.96C75.9199 102.553 76.3037 102.218 76.5916 101.955C76.6875 101.859 76.7715 101.811 76.8435 101.811C76.9394 101.811 76.9874 101.871 76.9874 101.991C76.9874 102.134 76.9274 102.266 76.8075 102.386C76.0878 103.056 75.2482 103.786 74.2886 104.576C73.353 105.366 72.4295 105.976 71.5179 106.407C70.7742 106.766 70.0905 106.946 69.4668 106.946C68.939 106.946 68.5192 106.814 68.2074 106.551C67.8955 106.264 67.7396 105.857 67.7396 105.33C67.7396 104.947 67.8355 104.492 68.0274 103.966C68.2673 103.319 68.6032 102.673 69.035 102.027C69.4908 101.38 69.9586 100.77 70.4384 100.195C70.9421 99.5968 71.3739 99.0941 71.7338 98.6872C72.0456 98.3521 72.2016 98.0648 72.2016 97.8254C72.2016 97.61 72.0576 97.5022 71.7698 97.5022C71.4819 97.5022 71.0501 97.6698 70.4743 98.0049C69.9226 98.3161 69.2989 98.8308 68.6032 99.549C67.6196 100.578 66.756 101.691 66.0124 102.888C65.2687 104.085 64.4171 105.21 63.4575 106.264C62.9298 106.862 62.414 107.161 61.9102 107.161Z" fill="url(#paint8_linear_1428_26038)"/>
<path d="M50.4904 107.305C49.5548 107.305 48.8472 107.078 48.3674 106.623C47.9116 106.144 47.6837 105.534 47.6837 104.792C47.6837 104.337 47.7437 103.894 47.8636 103.463C47.9836 103.032 48.1155 102.649 48.2594 102.314C48.0915 102.482 47.9236 102.637 47.7557 102.781C47.6117 102.9 47.4918 102.996 47.3958 103.068C47.2999 103.14 47.2159 103.176 47.1439 103.176C47.048 103.176 47 103.116 47 102.996C47 102.829 47.1199 102.637 47.3598 102.422C48.1995 101.728 48.8592 101.117 49.3389 100.59C49.8187 100.04 50.3225 99.5372 50.8503 99.0823C51.7379 98.3163 52.6854 97.7178 53.693 97.287C54.7005 96.8561 55.7081 96.6406 56.7156 96.6406C57.7711 96.6406 58.5987 96.892 59.1985 97.3947C59.7982 97.8974 60.0981 98.6395 60.0981 99.6209C60.0981 100.172 59.9301 100.806 59.5943 101.524C59.2824 102.242 58.7787 102.984 58.083 103.75C57.7951 104.061 57.4713 104.373 57.1114 104.684C56.7516 104.971 56.4397 105.187 56.1758 105.33C57.3513 105.211 58.4548 104.804 59.4863 104.109C60.5179 103.391 61.4415 102.685 62.2571 101.991C62.377 101.919 62.461 101.883 62.509 101.883C62.6289 101.883 62.6889 101.943 62.6889 102.063C62.6889 102.158 62.6289 102.266 62.509 102.386C61.4774 103.367 60.3619 104.193 59.1625 104.863C57.987 105.534 56.6796 105.857 55.2403 105.833C54.4006 106.288 53.573 106.647 52.7574 106.91C51.9658 107.173 51.2101 107.305 50.4904 107.305ZM52.1097 106.3C52.4455 106.3 52.8054 106.24 53.1892 106.12C53.573 106 53.9568 105.845 54.3407 105.653C54.1967 105.653 54.0528 105.582 53.9089 105.438C53.7889 105.294 53.729 105.103 53.729 104.863C53.729 104.385 53.9089 103.894 54.2687 103.391C54.6285 102.889 55.0723 102.458 55.6001 102.099C56.1279 101.739 56.6436 101.56 57.1474 101.56C57.4353 101.56 57.6992 101.644 57.939 101.811C58.2029 101.955 58.3469 102.158 58.3709 102.422C58.7787 101.967 59.0545 101.476 59.1985 100.95C59.3664 100.423 59.4504 99.9321 59.4504 99.4773C59.4504 98.8549 59.2465 98.3881 58.8386 98.0769C58.4548 97.7418 57.9271 97.5742 57.2554 97.5742C56.6076 97.5742 55.888 97.8016 55.0963 98.2565C54.3287 98.7113 53.597 99.2978 52.9013 100.016C52.2296 100.734 51.6659 101.512 51.2101 102.35C50.7783 103.188 50.5624 103.99 50.5624 104.756C50.5624 105.785 51.0782 106.3 52.1097 106.3Z" fill="url(#paint9_linear_1428_26038)"/>
<path d="M42.2809 115.205C41.6811 115.205 41.0334 115.049 40.3377 114.738C39.666 114.451 39.1023 114.008 38.6465 113.409C38.2147 112.835 38.0228 112.129 38.0708 111.291C38.0948 110.788 38.1427 110.286 38.2147 109.783C38.3107 109.304 38.5026 108.718 38.7904 108.023C39.1023 107.329 39.5821 106.431 40.2298 105.33C40.9015 104.205 41.8251 102.781 43.0005 101.057C44.2 99.3338 45.7233 97.1793 47.5705 94.594C48.4581 93.3731 49.0818 92.3677 49.4416 91.5778C49.8015 90.7878 49.9814 90.1654 49.9814 89.7106C49.9814 89.3276 49.8734 89.0523 49.6575 88.8847C49.4416 88.7171 49.1657 88.6333 48.8299 88.6333C48.3501 88.6333 47.7744 88.777 47.1027 89.0642C46.455 89.3515 45.8313 89.7225 45.2315 90.1774C44.104 91.0152 42.9526 91.9727 41.7771 93.05C40.6016 94.1032 39.4621 95.1924 38.3586 96.3175C37.2551 97.4426 36.2236 98.5318 35.264 99.5851C34.4724 100.854 33.7287 102.015 33.033 103.068C32.3374 104.097 31.8336 104.84 31.5217 105.294C31.4258 105.462 31.2698 105.582 31.0539 105.653C30.862 105.725 30.6701 105.761 30.4782 105.761C30.1424 105.761 29.8425 105.677 29.5786 105.51C29.3147 105.318 29.2548 105.091 29.3987 104.828C29.3987 104.828 29.5426 104.576 29.8305 104.074C30.1184 103.571 30.4902 102.901 30.946 102.063C31.4258 101.225 31.9295 100.303 32.4573 99.2978C33.0091 98.2924 33.5368 97.299 34.0406 96.3175C34.5444 95.3121 34.9762 94.3905 35.336 93.5527C35.7198 92.7148 35.9717 92.0565 36.0917 91.5778C36.2356 90.9554 36.3076 90.3808 36.3076 89.8542C36.3076 89.3276 36.2116 88.9086 36.0197 88.5974C35.8278 88.2623 35.4919 88.0947 35.0121 88.0947C34.7003 88.0947 34.3045 88.1905 33.8247 88.382C33.3449 88.5735 32.7812 88.8727 32.1335 89.2797C31.03 89.9978 29.7825 90.9434 28.3911 92.1164C27.0238 93.2654 25.5964 94.5581 24.1091 95.9944C22.6457 97.4067 21.1824 98.867 19.7191 100.375C18.2797 101.859 16.9363 103.308 15.6889 104.72C15.6169 104.792 15.533 104.828 15.437 104.828C14.5254 106.001 13.8417 106.767 13.3859 107.126C12.9541 107.485 12.7382 107.557 12.7382 107.341C12.7382 106.862 13.3979 105.797 14.7173 104.145C15.7489 102.877 16.8524 101.536 18.0278 100.124C19.2273 98.6874 20.3428 97.2631 21.3743 95.8507C22.4298 94.4384 23.2695 93.1218 23.8932 91.9009C24.5169 90.6801 24.8288 89.6507 24.8288 88.8129C24.8288 87.6878 24.361 86.9098 23.4254 86.4789C22.5138 86.048 21.3503 85.8326 19.935 85.8326C18.8075 85.8326 17.596 85.9403 16.3006 86.1557C15.0292 86.3472 13.7578 86.5986 12.4863 86.9098C11.2389 87.1971 10.0874 87.5082 9.03191 87.8434C7.97639 88.1546 7.12477 88.4179 6.47707 88.6333C5.42155 88.9924 4.44999 89.3754 3.56239 89.7824C2.67479 90.1893 1.96711 90.6083 1.43935 91.0391C0.935576 91.4461 0.68369 91.865 0.68369 92.2959C0.68369 92.7029 0.959565 93.0978 1.51132 93.4808C1.55929 93.5048 1.58328 93.5407 1.58328 93.5886C1.58328 93.6364 1.52331 93.6604 1.40336 93.6604C1.28342 93.6604 1.16347 93.6245 1.04353 93.5527C0.347842 93.0739 0 92.3797 0 91.47C0 90.7998 0.227897 90.0936 0.68369 89.3515C1.13948 88.6094 1.84716 87.975 2.80673 87.4484C4.03018 86.7542 5.39756 86.1318 6.90887 85.5812C8.42019 85.0067 9.97948 84.5279 11.5868 84.1449C13.194 83.738 14.7773 83.4387 16.3366 83.2472C17.9199 83.0318 19.3832 82.9241 20.7266 82.9241C22.5018 82.9241 23.8932 83.1036 24.9007 83.4627C25.9323 83.8218 26.6639 84.3125 27.0957 84.9349C27.5275 85.5573 27.7434 86.2515 27.7434 87.0175C27.7434 88.0469 27.4316 89.1361 26.8079 90.2851C26.2081 91.4341 25.5364 92.4635 24.7928 93.3731C24.1211 94.187 23.2575 95.2044 22.2019 96.4253C21.1704 97.6461 20.1509 98.8789 19.1433 100.124C20.6067 98.5917 22.094 97.0955 23.6053 95.6353C25.1166 94.1751 26.58 92.8465 27.9953 91.6496C29.4107 90.4527 30.6821 89.4832 31.8096 88.7411C33.033 87.9511 34.1006 87.3886 35.0121 87.0534C35.9477 86.6943 36.7394 86.5148 37.3871 86.5148C38.2987 86.5148 38.9464 86.7901 39.3302 87.3407C39.738 87.8913 39.9419 88.5735 39.9419 89.3874C39.9419 90.2492 39.738 91.1828 39.3302 92.1882C39.0663 92.8345 38.7185 93.5766 38.2867 94.4144C37.8549 95.2283 37.3751 96.0782 36.8473 96.9639C38.0948 95.6712 39.4142 94.3785 40.8055 93.0859C42.2209 91.7932 43.5883 90.6561 44.9077 89.6747C46.0591 88.8368 47.2706 88.1426 48.542 87.592C49.8134 87.0415 50.893 86.7662 51.7806 86.7662C52.3083 86.7662 52.7281 86.8859 53.04 87.1252C53.3518 87.3407 53.5078 87.6998 53.5078 88.2025C53.5078 88.6333 53.3638 89.1839 53.076 89.8542C52.7881 90.5245 52.3323 91.3264 51.7086 92.26C49.2617 95.8747 47.2706 98.9866 45.7353 101.596C44.224 104.181 43.1085 106.336 42.3888 108.059C41.6691 109.783 41.2613 111.159 41.1654 112.189C41.1414 112.308 41.1294 112.428 41.1294 112.548C41.1294 112.667 41.1294 112.787 41.1294 112.907C41.1294 113.577 41.2373 114.044 41.4532 114.307C41.6931 114.594 41.957 114.738 42.2449 114.738C42.6047 114.738 42.9406 114.606 43.2524 114.343C43.3484 114.295 43.4083 114.271 43.4323 114.271C43.5523 114.271 43.6482 114.331 43.7202 114.451C43.7922 114.57 43.7682 114.69 43.6482 114.81C43.3124 115.073 42.8566 115.205 42.2809 115.205Z" fill="url(#paint10_linear_1428_26038)"/>
<defs>
<linearGradient id="paint0_linear_1428_26038" x1="73.8592" y1="3" x2="80.0678" y2="43.0665" gradientUnits="userSpaceOnUse">
<stop stop-color="#FFF063"/>
<stop offset="1" stop-color="#FFAA04"/>
</linearGradient>
<linearGradient id="paint1_linear_1428_26038" x1="39.4306" y1="19.8317" x2="132.444" y2="78.7723" gradientUnits="userSpaceOnUse">
<stop stop-color="#FFF063"/>
<stop offset="1" stop-color="#FFAA04"/>
</linearGradient>
<linearGradient id="paint2_linear_1428_26038" x1="39.4306" y1="18.3355" x2="135.053" y2="83.4302" gradientUnits="userSpaceOnUse">
<stop stop-color="#FFF063"/>
<stop offset="1" stop-color="#FFAA04"/>
</linearGradient>
<linearGradient id="paint3_linear_1428_26038" x1="142.518" y1="95.4915" x2="143.978" y2="109.829" gradientUnits="userSpaceOnUse">
<stop stop-color="#FFF063"/>
<stop offset="1" stop-color="#FFAA04"/>
</linearGradient>
<linearGradient id="paint4_linear_1428_26038" x1="127.247" y1="94.4861" x2="131.262" y2="121.325" gradientUnits="userSpaceOnUse">
<stop stop-color="#FFF063"/>
<stop offset="1" stop-color="#FFAA04"/>
</linearGradient>
<linearGradient id="paint5_linear_1428_26038" x1="117.947" y1="92.8705" x2="120.546" y2="109.712" gradientUnits="userSpaceOnUse">
<stop stop-color="#FFF063"/>
<stop offset="1" stop-color="#FFAA04"/>
</linearGradient>
<linearGradient id="paint6_linear_1428_26038" x1="109.195" y1="86.9814" x2="113.451" y2="110.817" gradientUnits="userSpaceOnUse">
<stop stop-color="#FFF063"/>
<stop offset="1" stop-color="#FFAA04"/>
</linearGradient>
<linearGradient id="paint7_linear_1428_26038" x1="92.3855" y1="82.8521" x2="95.6872" y2="113.614" gradientUnits="userSpaceOnUse">
<stop stop-color="#FFF063"/>
<stop offset="1" stop-color="#FFAA04"/>
</linearGradient>
<linearGradient id="paint8_linear_1428_26038" x1="68.4812" y1="96.2455" x2="69.5679" y2="109.46" gradientUnits="userSpaceOnUse">
<stop stop-color="#FFF063"/>
<stop offset="1" stop-color="#FFAA04"/>
</linearGradient>
<linearGradient id="paint9_linear_1428_26038" x1="54.8148" y1="96.6406" x2="55.9344" y2="109.541" gradientUnits="userSpaceOnUse">
<stop stop-color="#FFF063"/>
<stop offset="1" stop-color="#FFAA04"/>
</linearGradient>
<linearGradient id="paint10_linear_1428_26038" x1="26.6527" y1="82.9241" x2="29.6653" y2="122.036" gradientUnits="userSpaceOnUse">
<stop stop-color="#FFF063"/>
<stop offset="1" stop-color="#FFAA04"/>
</linearGradient>
</defs>
</svg>
