<svg width="183" height="54" viewBox="0 0 183 54" fill="none" xmlns="http://www.w3.org/2000/svg">
<path d="M30.8871 26.2622C30.8871 27.1474 31.6047 27.865 32.4899 27.865C33.375 27.865 34.0926 27.1474 34.0926 26.2622H30.8871ZM14.6989 26.2622V11.2264H11.4935V26.2622H14.6989ZM13.0962 11.2264C14.6989 11.2264 14.6989 11.2271 14.6989 11.2279C14.6989 11.2281 14.6989 11.2288 14.6989 11.2292C14.6989 11.2301 14.6989 11.2308 14.6989 11.2313C14.6989 11.2324 14.6989 11.233 14.6989 11.2331C14.6989 11.2333 14.6989 11.2314 14.699 11.2275C14.6991 11.2197 14.6995 11.204 14.7003 11.1808C14.7019 11.1345 14.7054 11.0588 14.7129 10.9579C14.728 10.7557 14.7591 10.4557 14.8226 10.0913C14.951 9.35515 15.2048 8.39651 15.6967 7.45604C16.1845 6.52329 16.895 5.6286 17.941 4.96202C18.9803 4.29965 20.4439 3.80281 22.5384 3.80281V0.597338C19.9117 0.597338 17.8345 1.22879 16.2182 2.25884C14.6086 3.28469 13.5487 4.64657 12.8563 5.9704C12.1679 7.2865 11.8315 8.58443 11.6648 9.54073C11.5808 10.0225 11.5381 10.4277 11.5164 10.7191C11.5054 10.8651 11.4997 10.9833 11.4967 11.0691C11.4952 11.1121 11.4944 11.1471 11.494 11.1734C11.4937 11.1866 11.4936 11.1977 11.4935 11.2065C11.4935 11.2109 11.4935 11.2148 11.4935 11.2181C11.4935 11.2198 11.4935 11.2213 11.4935 11.2227C11.4935 11.2234 11.4935 11.2243 11.4935 11.2246C11.4935 11.2255 11.4935 11.2264 13.0962 11.2264ZM22.5384 3.80281C24.7759 3.80281 26.3467 4.30736 27.4623 4.98192C28.5807 5.65824 29.3313 6.55985 29.8423 7.48696C30.3584 8.42316 30.6239 9.37579 30.758 10.1057C30.8245 10.4672 30.8569 10.7645 30.8727 10.9643C30.8805 11.064 30.8841 11.1386 30.8858 11.1839C30.8866 11.2065 30.887 11.2217 30.8871 11.229C30.8872 11.2326 30.8872 11.2343 30.8872 11.2338C30.8872 11.2336 30.8872 11.2329 30.8872 11.2317C30.8872 11.2311 30.8872 11.2303 30.8872 11.2294C30.8871 11.229 30.8871 11.2282 30.8871 11.228C30.8871 11.2272 30.8871 11.2264 32.4899 11.2264C34.0926 11.2264 34.0926 11.2255 34.0926 11.2245C34.0926 11.2242 34.0926 11.2232 34.0926 11.2225C34.0926 11.2211 34.0926 11.2195 34.0926 11.2178C34.0926 11.2143 34.0926 11.2103 34.0925 11.2058C34.0924 11.1967 34.0923 11.1854 34.0921 11.172C34.0916 11.1451 34.0907 11.1096 34.0891 11.0661C34.0859 10.9792 34.0798 10.8598 34.0682 10.7127C34.0451 10.4189 33.9998 10.011 33.9107 9.52635C33.7339 8.56379 33.3774 7.25985 32.6495 5.93948C31.9167 4.61001 30.8013 3.25505 29.1209 2.23894C27.4376 1.22107 25.2765 0.597338 22.5384 0.597338V3.80281ZM30.8871 11.2264V26.2622H34.0926V11.2264H30.8871Z" fill="white"/>
<path d="M30.8871 26.2622C30.8871 27.1474 31.6047 27.865 32.4899 27.865C33.375 27.865 34.0926 27.1474 34.0926 26.2622H30.8871ZM14.6989 26.2622V11.2264H11.4935V26.2622H14.6989ZM13.0962 11.2264C14.6989 11.2264 14.6989 11.2271 14.6989 11.2279C14.6989 11.2281 14.6989 11.2288 14.6989 11.2292C14.6989 11.2301 14.6989 11.2308 14.6989 11.2313C14.6989 11.2324 14.6989 11.233 14.6989 11.2331C14.6989 11.2333 14.6989 11.2314 14.699 11.2275C14.6991 11.2197 14.6995 11.204 14.7003 11.1808C14.7019 11.1345 14.7054 11.0588 14.7129 10.9579C14.728 10.7557 14.7591 10.4557 14.8226 10.0913C14.951 9.35515 15.2048 8.39651 15.6967 7.45604C16.1845 6.52329 16.895 5.6286 17.941 4.96202C18.9803 4.29965 20.4439 3.80281 22.5384 3.80281V0.597338C19.9117 0.597338 17.8345 1.22879 16.2182 2.25884C14.6086 3.28469 13.5487 4.64657 12.8563 5.9704C12.1679 7.2865 11.8315 8.58443 11.6648 9.54073C11.5808 10.0225 11.5381 10.4277 11.5164 10.7191C11.5054 10.8651 11.4997 10.9833 11.4967 11.0691C11.4952 11.1121 11.4944 11.1471 11.494 11.1734C11.4937 11.1866 11.4936 11.1977 11.4935 11.2065C11.4935 11.2109 11.4935 11.2148 11.4935 11.2181C11.4935 11.2198 11.4935 11.2213 11.4935 11.2227C11.4935 11.2234 11.4935 11.2243 11.4935 11.2246C11.4935 11.2255 11.4935 11.2264 13.0962 11.2264ZM22.5384 3.80281C24.7759 3.80281 26.3467 4.30736 27.4623 4.98192C28.5807 5.65824 29.3313 6.55985 29.8423 7.48696C30.3584 8.42316 30.6239 9.37579 30.758 10.1057C30.8245 10.4672 30.8569 10.7645 30.8727 10.9643C30.8805 11.064 30.8841 11.1386 30.8858 11.1839C30.8866 11.2065 30.887 11.2217 30.8871 11.229C30.8872 11.2326 30.8872 11.2343 30.8872 11.2338C30.8872 11.2336 30.8872 11.2329 30.8872 11.2317C30.8872 11.2311 30.8872 11.2303 30.8872 11.2294C30.8871 11.229 30.8871 11.2282 30.8871 11.228C30.8871 11.2272 30.8871 11.2264 32.4899 11.2264C34.0926 11.2264 34.0926 11.2255 34.0926 11.2245C34.0926 11.2242 34.0926 11.2232 34.0926 11.2225C34.0926 11.2211 34.0926 11.2195 34.0926 11.2178C34.0926 11.2143 34.0926 11.2103 34.0925 11.2058C34.0924 11.1967 34.0923 11.1854 34.0921 11.172C34.0916 11.1451 34.0907 11.1096 34.0891 11.0661C34.0859 10.9792 34.0798 10.8598 34.0682 10.7127C34.0451 10.4189 33.9998 10.011 33.9107 9.52635C33.7339 8.56379 33.3774 7.25985 32.6495 5.93948C31.9167 4.61001 30.8013 3.25505 29.1209 2.23894C27.4376 1.22107 25.2765 0.597338 22.5384 0.597338V3.80281ZM30.8871 11.2264V26.2622H34.0926V11.2264H30.8871Z" fill="url(#paint0_linear_4117_162701)"/>
<path fill-rule="evenodd" clip-rule="evenodd" d="M3.7876 24.1234C3.7876 37.6918 16.1 45.6971 21.6101 47.6161C22.2562 47.8487 23.3202 47.8487 23.9662 47.6161C29.4764 45.6971 41.7888 37.6918 41.7888 24.1234C41.7888 18.1339 37.0576 13.288 31.2244 13.288C27.7853 13.288 24.7072 14.9938 22.7882 17.6299C20.8691 14.9938 17.81 13.288 14.3519 13.288C8.51874 13.288 3.7876 18.1339 3.7876 24.1234ZM17.8272 34.8053V25.7419C17.8272 23.8761 19.8261 22.7207 21.4214 23.6489L25.3159 25.9123L29.2104 28.1853C30.8058 29.1134 30.8058 31.4337 29.2104 32.3618L25.3159 34.6348L21.4214 36.8983C19.8261 37.8264 17.8272 36.6615 17.8272 34.8053Z" fill="url(#paint1_linear_4117_162701)"/>
<path d="M21.6101 47.6161L21.9054 46.7961L21.8968 46.7931L21.6101 47.6161ZM23.9662 47.6161L23.6796 46.793L23.671 46.7961L23.9662 47.6161ZM22.7882 17.6299L22.0836 18.1428C22.2476 18.3681 22.5095 18.5014 22.7882 18.5014C23.0669 18.5014 23.3287 18.3681 23.4927 18.1428L22.7882 17.6299ZM21.4214 23.6489L20.9832 24.4021L20.9835 24.4023L21.4214 23.6489ZM25.3159 25.9123L25.7552 25.1597L25.7538 25.1589L25.3159 25.9123ZM29.2104 28.1853L28.7712 28.938L28.7722 28.9386L29.2104 28.1853ZM29.2104 32.3618L28.7722 31.6085L28.7712 31.6092L29.2104 32.3618ZM25.3159 34.6348L25.7538 35.3882L25.7552 35.3875L25.3159 34.6348ZM21.4214 36.8983L20.9835 36.1448L20.9832 36.145L21.4214 36.8983ZM21.8968 46.7931C19.2686 45.8778 14.9315 43.471 11.2623 39.6358C7.60402 35.8121 4.65908 30.6237 4.65908 24.1234H2.91611C2.91611 31.1914 6.12737 36.7899 10.0028 40.8407C13.8674 44.88 18.4415 47.4354 21.3235 48.4391L21.8968 46.7931ZM23.671 46.7961C23.4721 46.8677 23.152 46.919 22.7882 46.919C22.4244 46.919 22.1042 46.8677 21.9054 46.7961L21.3149 48.436C21.7621 48.597 22.297 48.662 22.7882 48.662C23.2794 48.662 23.8143 48.597 24.2614 48.436L23.671 46.7961ZM40.9173 24.1234C40.9173 30.6237 37.9723 35.8121 34.3141 39.6358C30.6449 43.471 26.3077 45.8778 23.6796 46.7931L24.2528 48.4391C27.1349 47.4354 31.709 44.88 35.5735 40.8407C39.449 36.7899 42.6603 31.1914 42.6603 24.1234H40.9173ZM31.2244 14.1595C36.556 14.1595 40.9173 18.5946 40.9173 24.1234H42.6603C42.6603 17.6732 37.5593 12.4165 31.2244 12.4165V14.1595ZM23.4927 18.1428C25.2578 15.7183 28.0806 14.1595 31.2244 14.1595V12.4165C27.4901 12.4165 24.1567 14.2693 22.0836 17.117L23.4927 18.1428ZM14.3519 14.1595C17.5139 14.1595 20.318 15.7175 22.0836 18.1428L23.4927 17.117C21.4202 14.27 18.1061 12.4165 14.3519 12.4165V14.1595ZM4.65908 24.1234C4.65908 18.5946 9.02039 14.1595 14.3519 14.1595V12.4165C8.0171 12.4165 2.91611 17.6732 2.91611 24.1234H4.65908ZM16.9558 25.7419V34.8053H18.6987V25.7419H16.9558ZM21.8597 22.8956C19.6748 21.6245 16.9558 23.2139 16.9558 25.7419H18.6987C18.6987 24.5384 19.9774 23.817 20.9832 24.4021L21.8597 22.8956ZM25.7538 25.1589L21.8593 22.8954L20.9835 24.4023L24.878 26.6658L25.7538 25.1589ZM29.6497 27.4326L25.7552 25.1597L24.8766 26.665L28.7712 28.938L29.6497 27.4326ZM29.6487 33.1151C31.8217 31.8509 31.8217 28.6962 29.6487 27.432L28.7722 28.9386C29.7899 29.5306 29.7899 31.0165 28.7722 31.6085L29.6487 33.1151ZM25.7552 35.3875L29.6497 33.1145L28.7712 31.6092L24.8766 33.8821L25.7552 35.3875ZM21.8593 37.6517L25.7538 35.3882L24.878 33.8813L20.9835 36.1448L21.8593 37.6517ZM16.9558 34.8053C16.9558 37.3208 19.6723 38.9241 21.8597 37.6516L20.9832 36.145C19.9799 36.7287 18.6987 36.0022 18.6987 34.8053H16.9558Z" fill="url(#paint2_linear_4117_162701)"/>
<path d="M77.2471 24H73.0525V14.5223H72.9618L69.2772 23.8073H66.7037L63.0192 14.5223H62.9285V24H58.7338V7.64068H64.2889L67.9508 17.1865H68.0415L71.692 7.64068H77.2471V24ZM81.3511 9.636C82.8325 8.11684 84.8392 7.35726 87.3711 7.35726C89.903 7.35726 91.9097 8.11684 93.3911 9.636C94.8724 11.1552 95.6131 13.2185 95.6131 15.826C95.6131 18.4335 94.8724 20.4969 93.3911 22.016C91.9097 23.5276 89.903 24.2834 87.3711 24.2834C84.8316 24.2834 82.8212 23.5276 81.3398 22.016C79.866 20.4969 79.1291 18.4335 79.1291 15.826C79.1291 13.2185 79.8698 11.1552 81.3511 9.636ZM89.7972 12.4476C89.185 11.6086 88.3763 11.1892 87.3711 11.1892C86.3659 11.1892 85.5572 11.6086 84.945 12.4476C84.3328 13.2865 84.0267 14.4127 84.0267 15.826C84.0267 17.2318 84.329 18.3542 84.9336 19.1931C85.5458 20.032 86.3583 20.4515 87.3711 20.4515C88.3839 20.4515 89.1926 20.032 89.7972 19.1931C90.4094 18.3542 90.7155 17.2318 90.7155 15.826C90.7155 14.4127 90.4094 13.2865 89.7972 12.4476ZM102.019 24H97.4837V7.64068H101.214L107.528 16.1208H107.619V7.64068H112.154V24H108.469L102.109 15.3839H102.019V24ZM122.142 24.2834C119.617 24.2834 117.633 23.5427 116.19 22.0614C114.746 20.5724 114.024 18.4902 114.024 15.8147C114.024 13.1391 114.746 11.0607 116.19 9.57931C117.633 8.09794 119.617 7.35726 122.142 7.35726C123.57 7.35726 124.859 7.64446 126.008 8.21887C127.164 8.79328 128.075 9.60577 128.74 10.6563C129.405 11.7069 129.738 12.8973 129.738 14.2275H125.135C125.082 13.2979 124.779 12.5496 124.228 11.9828C123.676 11.4159 122.981 11.1325 122.142 11.1325C121.152 11.1325 120.366 11.5482 119.784 12.3796C119.209 13.2109 118.922 14.3522 118.922 15.8033C118.922 17.2771 119.209 18.4297 119.784 19.2611C120.358 20.0925 121.148 20.5082 122.153 20.5082C122.984 20.5082 123.672 20.2286 124.216 19.6693C124.768 19.1024 125.082 18.3466 125.157 17.4019H129.76C129.753 18.7396 129.42 19.9338 128.763 20.9844C128.113 22.0349 127.209 22.8474 126.053 23.4218C124.904 23.9962 123.6 24.2834 122.142 24.2834ZM142.809 20.1794V24H131.585V7.64068H136.392V20.1794H142.809ZM149.43 24H144.623V7.64068H149.43V24ZM151.697 7.64068H159.168C160.997 7.64068 162.468 8.18108 163.579 9.26188C164.697 10.3427 165.256 11.79 165.256 13.604C165.256 15.3952 164.667 16.8312 163.488 17.912C162.309 18.9928 160.759 19.5332 158.84 19.5332H156.504V24H151.697V7.64068ZM156.504 11.2572V15.9847H157.853C158.662 15.9847 159.289 15.7844 159.735 15.3839C160.181 14.9757 160.404 14.3862 160.404 13.6153C160.404 12.8519 160.181 12.27 159.735 11.8694C159.297 11.4613 158.681 11.2572 157.887 11.2572H156.504ZM166.503 19.1818H171.05C171.118 19.6352 171.397 20.0056 171.889 20.2928C172.38 20.58 172.954 20.7236 173.612 20.7236C174.322 20.7236 174.885 20.5951 175.301 20.3381C175.724 20.0812 175.936 19.7524 175.936 19.3518C175.936 18.9739 175.766 18.6867 175.426 18.4902C175.086 18.2861 174.47 18.1048 173.578 17.946L171.412 17.5606C169.916 17.3036 168.767 16.7594 167.966 15.928C167.172 15.0967 166.776 14.0385 166.776 12.7537C166.776 11.1211 167.403 9.81361 168.658 8.83107C169.912 7.84853 171.53 7.35726 173.51 7.35726C175.664 7.35726 177.334 7.8183 178.521 8.74038C179.707 9.66245 180.308 10.9246 180.323 12.5269H175.936C175.921 12.0281 175.694 11.6351 175.256 11.3479C174.817 11.0531 174.266 10.9057 173.6 10.9057C172.973 10.9057 172.474 11.0267 172.104 11.2685C171.734 11.5104 171.548 11.8354 171.548 12.2435C171.548 12.629 171.722 12.9351 172.07 13.1618C172.418 13.3886 172.984 13.5699 173.771 13.706L176.015 14.0914C177.602 14.3711 178.774 14.8964 179.53 15.6673C180.293 16.4307 180.675 17.4774 180.675 18.8076C180.675 20.478 180.025 21.8082 178.725 22.7983C177.432 23.7884 175.698 24.2834 173.521 24.2834C171.314 24.2834 169.595 23.8413 168.363 22.957C167.131 22.0651 166.511 20.8067 166.503 19.1818Z" fill="url(#paint3_linear_4117_162701)"/>
<path d="M74.1748 42.0391C74.1748 44.2838 73.5022 46.0524 72.1568 47.3448C70.8191 48.6372 68.9673 49.2834 66.6017 49.2834C63.9942 49.2834 61.9648 48.5465 60.5137 47.0727C59.0626 45.5989 58.337 43.5091 58.337 40.8033C58.337 38.1354 59.055 36.0607 60.491 34.5793C61.9271 33.0979 63.9148 32.3573 66.4543 32.3573C68.495 32.3573 70.2144 32.8977 71.6127 33.9785C73.0109 35.0592 73.8007 36.4424 73.9821 38.1278H69.2546C69.0958 37.5232 68.7633 37.0432 68.2569 36.688C67.7581 36.3252 67.1648 36.1438 66.477 36.1438C65.4567 36.1438 64.6593 36.5482 64.0849 37.3569C63.518 38.158 63.2346 39.2842 63.2346 40.7353C63.2346 42.2167 63.5483 43.3806 64.1756 44.2271C64.8029 45.0736 65.6494 45.4969 66.7151 45.4969C67.4935 45.4969 68.1397 45.2966 68.6537 44.896C69.1676 44.4954 69.4586 43.9664 69.5266 43.3088L69.5493 43.0821H67.0552V39.885H74.1748V42.0391ZM85.9653 49L85.115 45.7463H80.1268L79.2765 49H74.3789L79.7186 32.6407H85.7499L91.0896 49H85.9653ZM82.5755 36.4159L80.9997 42.3565H84.2421L82.6662 36.4159H82.5755ZM103.787 45.1794V49H92.5635V32.6407H97.3704V45.1794H103.787ZM116.825 45.1794V49H105.601V32.6407H110.408V45.1794H116.825ZM130.18 45.1794V49H118.639V32.6407H130.18V36.4613H123.445V39.1028H129.76V42.5492H123.445V45.1794H130.18ZM137.231 36.1892V40.3385H139.215C139.888 40.3385 140.417 40.1496 140.802 39.7717C141.195 39.3938 141.392 38.8949 141.392 38.2752C141.392 37.663 141.192 37.1642 140.791 36.7787C140.391 36.3857 139.869 36.1892 139.227 36.1892H137.231ZM137.231 43.5129V49H132.424V32.6407H139.691C141.853 32.6407 143.493 33.1244 144.612 34.0918C145.738 35.0592 146.301 36.4272 146.301 38.1958C146.301 39.1859 146.067 40.1004 145.598 40.9394C145.137 41.7783 144.491 42.3981 143.659 42.7987L146.766 49H141.392L138.807 43.5129H137.231ZM157.173 49H152.366V43.819L146.777 32.6407H151.913L154.781 39.2728H154.872L157.74 32.6407H162.762L157.173 43.819V49Z" fill="url(#paint4_linear_4117_162701)"/>
<defs>
<linearGradient id="paint0_linear_4117_162701" x1="22.7564" y1="2.20007" x2="27.2884" y2="30.809" gradientUnits="userSpaceOnUse">
<stop stop-color="#FFF063"/>
<stop offset="1" stop-color="#FFAA04"/>
</linearGradient>
<linearGradient id="paint1_linear_4117_162701" x1="22.7163" y1="13.288" x2="27.5264" y2="54.7819" gradientUnits="userSpaceOnUse">
<stop stop-color="#FFF063"/>
<stop offset="1" stop-color="#FFAA04"/>
</linearGradient>
<linearGradient id="paint2_linear_4117_162701" x1="22.7163" y1="13.288" x2="27.5264" y2="54.7819" gradientUnits="userSpaceOnUse">
<stop stop-color="#FFF063"/>
<stop offset="1" stop-color="#FFAA04"/>
</linearGradient>
<linearGradient id="paint3_linear_4117_162701" x1="119.764" y1="3" x2="120.543" y2="33.4499" gradientUnits="userSpaceOnUse">
<stop stop-color="#FFF063"/>
<stop offset="1" stop-color="#FFAA04"/>
</linearGradient>
<linearGradient id="paint4_linear_4117_162701" x1="119.764" y1="28" x2="120.543" y2="58.4499" gradientUnits="userSpaceOnUse">
<stop stop-color="#FFF063"/>
<stop offset="1" stop-color="#FFAA04"/>
</linearGradient>
</defs>
</svg>
