<svg width="145" height="57" viewBox="0 0 145 57" fill="none" xmlns="http://www.w3.org/2000/svg">
<path d="M22.8978 24H18.009V12.9541H17.9033L13.6092 23.7754H10.6099L6.31572 12.9541H6.21001V24H1.32128V4.93394H7.79555L12.0633 16.0591H12.169L16.4235 4.93394H22.8978V24ZM27.6808 7.25939C29.4073 5.48887 31.7459 4.60362 34.6968 4.60362C37.6477 4.60362 39.9863 5.48887 41.7128 7.25939C43.4393 9.0299 44.3025 11.4346 44.3025 14.4736C44.3025 17.5125 43.4393 19.9172 41.7128 21.6878C39.9863 23.4495 37.6477 24.3303 34.6968 24.3303C31.7371 24.3303 29.3941 23.4495 27.6676 21.6878C25.9499 19.9172 25.0911 17.5125 25.0911 14.4736C25.0911 11.4346 25.9543 9.0299 27.6808 7.25939ZM37.5243 10.5362C36.8108 9.55842 35.8683 9.06954 34.6968 9.06954C33.5253 9.06954 32.5828 9.55842 31.8693 10.5362C31.1558 11.5139 30.799 12.8264 30.799 14.4736C30.799 16.112 31.1514 17.42 31.856 18.3978C32.5695 19.3755 33.5165 19.8644 34.6968 19.8644C35.8771 19.8644 36.8197 19.3755 37.5243 18.3978C38.2378 17.42 38.5946 16.112 38.5946 14.4736C38.5946 12.8264 38.2378 11.5139 37.5243 10.5362ZM51.7677 24H46.4826V4.93394H50.8296L58.1891 14.8171H58.2948V4.93394H63.58V24H59.2858L51.8734 13.9583H51.7677V24ZM75.2204 24.3303C72.2784 24.3303 69.9661 23.4671 68.2837 21.7406C66.6013 20.0053 65.7601 17.5786 65.7601 14.4604C65.7601 11.3421 66.6013 8.9198 68.2837 7.19333C69.9661 5.46685 72.2784 4.60362 75.2204 4.60362C76.8852 4.60362 78.3871 4.93834 79.726 5.60779C81.0737 6.27724 82.1351 7.22416 82.9103 8.44854C83.6854 9.67293 84.073 11.0603 84.073 12.6106H78.7086C78.647 11.5271 78.2946 10.6551 77.6516 9.99444C77.0086 9.3338 76.1982 9.00348 75.2204 9.00348C74.0665 9.00348 73.1504 9.48795 72.4722 10.4569C71.8027 11.4258 71.468 12.7559 71.468 14.4471C71.468 16.1648 71.8027 17.5081 72.4722 18.4771C73.1416 19.446 74.0621 19.9305 75.2337 19.9305C76.2026 19.9305 77.0042 19.6045 77.6384 18.9527C78.2814 18.2921 78.647 17.4112 78.735 16.3102H84.0994C84.0906 17.8693 83.7031 19.261 82.9367 20.4854C82.1792 21.7098 81.1266 22.6567 79.7789 23.3261C78.44 23.9956 76.9205 24.3303 75.2204 24.3303ZM99.3074 19.5473V24H86.2267V4.93394H91.8289V19.5473H99.3074ZM107.024 24H101.421V4.93394H107.024V24ZM109.666 4.93394H118.373C120.505 4.93394 122.218 5.56375 123.513 6.82337C124.817 8.08299 125.469 9.76982 125.469 11.8839C125.469 13.9715 124.782 15.6451 123.407 16.9047C122.033 18.1643 120.228 18.7942 117.99 18.7942H115.268V24H109.666V4.93394ZM115.268 9.14882V14.6586H116.841C117.783 14.6586 118.514 14.4251 119.034 13.9583C119.554 13.4826 119.814 12.7956 119.814 11.8971C119.814 11.0074 119.554 10.3292 119.034 9.86231C118.523 9.38665 117.805 9.14882 116.88 9.14882H115.268ZM126.922 18.3846H132.22C132.3 18.9131 132.626 19.3447 133.198 19.6794C133.771 20.0141 134.44 20.1815 135.207 20.1815C136.035 20.1815 136.691 20.0318 137.175 19.7323C137.669 19.4328 137.915 19.0496 137.915 18.5828C137.915 18.1423 137.717 17.8076 137.321 17.5786C136.924 17.3408 136.206 17.1293 135.167 16.9444L132.643 16.4951C130.899 16.1956 129.56 15.5614 128.627 14.5925C127.702 13.6236 127.239 12.3904 127.239 10.8929C127.239 8.99027 127.97 7.46639 129.433 6.32128C130.895 5.17617 132.78 4.60362 135.088 4.60362C137.598 4.60362 139.545 5.14094 140.928 6.21558C142.311 7.29022 143.011 8.76124 143.028 10.6287H137.915C137.898 10.0473 137.633 9.58925 137.122 9.25452C136.611 8.91099 135.968 8.73922 135.193 8.73922C134.462 8.73922 133.881 8.88016 133.449 9.16203C133.018 9.4439 132.802 9.82267 132.802 10.2983C132.802 10.7476 133.004 11.1043 133.41 11.3686C133.815 11.6328 134.475 11.8442 135.392 12.0028L138.008 12.452C139.857 12.7779 141.223 13.3901 142.104 14.2886C142.993 15.1783 143.438 16.3982 143.438 17.9485C143.438 19.8952 142.681 21.4455 141.165 22.5994C139.659 23.7534 137.638 24.3303 135.101 24.3303C132.529 24.3303 130.525 23.815 129.089 22.7844C127.653 21.745 126.931 20.2784 126.922 18.3846Z" fill="url(#paint0_linear_4117_162630)"/>
<path d="M30.5031 43.8495C30.5031 46.4656 29.7192 48.5268 28.1513 50.0331C26.5922 51.5393 24.4341 52.2925 21.677 52.2925C18.6381 52.2925 16.273 51.4336 14.5817 49.716C12.8905 47.9983 12.0449 45.5628 12.0449 42.4093C12.0449 39.2999 12.8817 36.882 14.5553 35.1555C16.2289 33.429 18.5456 32.5658 21.5052 32.5658C23.8835 32.5658 25.8875 33.1956 27.517 34.4552C29.1466 35.7148 30.0671 37.3268 30.2785 39.2911H24.7688C24.5838 38.5864 24.1962 38.0271 23.6061 37.6131C23.0247 37.1903 22.3332 36.9788 21.5317 36.9788C20.3425 36.9788 19.4132 37.4501 18.7438 38.3926C18.0831 39.3263 17.7528 40.6388 17.7528 42.33C17.7528 44.0565 18.1183 45.413 18.8495 46.3996C19.5806 47.3861 20.5671 47.8794 21.8091 47.8794C22.7164 47.8794 23.4695 47.646 24.0685 47.1791C24.6675 46.7123 25.0066 46.0957 25.0859 45.3293L25.1123 45.0651H22.2055V41.3391H30.5031V43.8495ZM44.2444 51.9622L43.2535 48.1701H37.4399L36.4489 51.9622H30.741L36.9642 32.8961H43.9934L50.2166 51.9622H44.2444ZM40.2938 37.296L38.4572 44.2195H42.2361L40.3995 37.296H40.2938ZM65.015 47.5094V51.9622H51.9343V32.8961H57.5365V47.5094H65.015ZM80.2097 47.5094V51.9622H67.129V32.8961H72.7312V47.5094H80.2097ZM95.7743 47.5094V51.9622H82.3237V32.8961H95.7743V37.3488H87.9259V40.4274H95.2855V44.4441H87.9259V47.5094H95.7743ZM103.993 37.0317V41.8676H106.305C107.089 41.8676 107.705 41.6474 108.155 41.2069C108.613 40.7665 108.842 40.1852 108.842 39.4629C108.842 38.7494 108.608 38.168 108.142 37.7188C107.675 37.2607 107.067 37.0317 106.318 37.0317H103.993ZM103.993 45.5672V51.9622H98.3905V32.8961H106.86C109.379 32.8961 111.291 33.4598 112.594 34.5873C113.907 35.7148 114.563 37.3092 114.563 39.3704C114.563 40.5243 114.29 41.5901 113.744 42.5679C113.206 43.5456 112.453 44.2679 111.484 44.7348L115.105 51.9622H108.842L105.829 45.5672H103.993ZM127.234 51.9622H121.632V45.9239L115.118 32.8961H121.103L124.446 40.6256H124.552L127.895 32.8961H133.748L127.234 45.9239V51.9622Z" fill="url(#paint1_linear_4117_162630)"/>
<defs>
<linearGradient id="paint0_linear_4117_162630" x1="72.2257" y1="-1.41088e-07" x2="73.1277" y2="35.322" gradientUnits="userSpaceOnUse">
<stop stop-color="#FFF063"/>
<stop offset="1" stop-color="#FFAA04"/>
</linearGradient>
<linearGradient id="paint1_linear_4117_162630" x1="72.4534" y1="27.9622" x2="73.5164" y2="63.2752" gradientUnits="userSpaceOnUse">
<stop stop-color="#FFF063"/>
<stop offset="1" stop-color="#FFAA04"/>
</linearGradient>
</defs>
</svg>
