<svg width="238" height="238" viewBox="0 0 238 238"  xmlns="http://www.w3.org/2000/svg" fill="none" class="svg">
    <style>
    <![CDATA[
        .spin {
            transform-origin: 50% 50%;
            animation: spin 10s linear infinite;
        }

        @-webkit-keyframes spin {
            from {
                transform: rotate(0deg);
            }
            to {
                transform: rotate(360deg);
            }
        }
    ]]>
    </style>
    <g class="spin">
        <path d="M178.883 161.329C178.859 161.375 178.801 161.373 178.711 161.325C178.62 161.277 178.587 161.23 178.611 161.184C178.869 160.701 179.078 160.328 179.237 160.064L180.117 158.469L181.024 156.713C181.146 156.449 181.327 156.09 181.569 155.637C181.593 155.592 181.65 155.593 181.741 155.642C181.832 155.69 181.865 155.737 181.841 155.782C181.527 156.371 181.339 156.813 181.278 157.11C181.208 157.422 181.255 157.68 181.418 157.883C181.588 158.109 181.9 158.343 182.353 158.585L187.628 161.398L192.131 152.952L186.856 150.139C186.403 149.898 186.039 149.762 185.764 149.732C185.497 149.725 185.257 149.83 185.044 150.046C184.824 150.277 184.557 150.687 184.243 151.276C184.227 151.306 184.174 151.297 184.083 151.249C183.992 151.201 183.955 151.161 183.971 151.131C184.229 150.648 184.438 150.275 184.597 150.011L185.526 148.325L186.348 146.728C186.478 146.448 186.675 146.059 186.941 145.561C186.957 145.531 187.01 145.54 187.101 145.588C187.192 145.637 187.229 145.676 187.213 145.706C186.907 146.28 186.723 146.715 186.662 147.012C186.593 147.324 186.639 147.581 186.802 147.785C186.972 148.011 187.284 148.245 187.737 148.486L198.22 154.076C198.673 154.317 199.033 154.442 199.301 154.449C199.561 154.471 199.8 154.366 200.021 154.135C200.248 153.926 200.511 153.543 200.809 152.984C200.825 152.954 200.878 152.963 200.969 153.012C201.059 153.06 201.096 153.099 201.08 153.129L200.442 154.272C200.074 154.89 199.781 155.403 199.564 155.81C199.322 156.263 199.032 156.845 198.692 157.555L198.123 158.677C198.107 158.707 198.053 158.698 197.963 158.649C197.872 158.601 197.835 158.562 197.851 158.532C198.157 157.958 198.337 157.511 198.391 157.191C198.445 156.871 198.387 156.598 198.217 156.372C198.054 156.168 197.746 155.946 197.294 155.705L192.629 153.218L188.126 161.663L192.791 164.15C193.244 164.392 193.604 164.516 193.871 164.523C194.146 164.553 194.401 164.456 194.637 164.233C194.872 164.01 195.143 163.611 195.449 163.038C195.473 162.992 195.53 162.994 195.621 163.042C195.711 163.09 195.744 163.137 195.72 163.182L195.13 164.235C194.746 164.883 194.421 165.456 194.155 165.954C193.938 166.361 193.667 166.905 193.344 167.586L192.763 168.73C192.738 168.775 192.681 168.774 192.591 168.725C192.5 168.677 192.467 168.63 192.491 168.585C192.797 168.011 192.977 167.565 193.031 167.245C193.092 166.948 193.046 166.69 192.891 166.472C192.728 166.268 192.42 166.046 191.967 165.805L181.483 160.215C181.031 159.974 180.667 159.838 180.392 159.808C180.124 159.801 179.884 159.905 179.672 160.122C179.452 160.353 179.189 160.756 178.883 161.329Z" fill="white"/>
        <path d="M172.287 167.667C173.361 166.493 174.59 165.693 175.975 165.268C177.362 164.866 178.753 164.84 180.149 165.189C181.546 165.562 182.8 166.256 183.911 167.272C185.212 168.461 186.023 169.805 186.345 171.304C186.679 172.814 186.612 174.295 186.145 175.744C185.666 177.207 184.936 178.475 183.955 179.548C182.858 180.748 181.611 181.542 180.212 181.932C178.825 182.333 177.452 182.353 176.091 181.99C174.719 181.64 173.516 180.992 172.48 180.045C171.331 178.995 170.554 177.729 170.148 176.245C169.743 174.762 169.729 173.255 170.109 171.725C170.476 170.207 171.203 168.854 172.287 167.667ZM172.098 168.711C171.336 169.544 170.864 170.48 170.68 171.517C170.486 172.567 170.613 173.645 171.062 174.751C171.512 175.881 172.293 176.954 173.404 177.97C174.579 179.043 175.823 179.786 177.137 180.199C178.44 180.625 179.707 180.683 180.941 180.374C182.174 180.064 183.264 179.391 184.21 178.356C185.445 177.005 185.96 175.541 185.756 173.964C185.565 172.398 184.686 170.9 183.12 169.469C181.933 168.384 180.658 167.612 179.293 167.153C177.928 166.693 176.61 166.589 175.338 166.84C174.078 167.102 172.998 167.726 172.098 168.711Z" fill="white"/>
        <path d="M154.67 200.95C154.626 200.976 154.578 200.946 154.524 200.859C154.47 200.771 154.465 200.714 154.509 200.687C155.545 200.052 155.926 198.956 155.653 197.398L153.151 183.101C153.13 183.034 153.192 182.955 153.338 182.866C153.455 182.794 153.553 182.774 153.632 182.806L160.244 187.211L158.905 179.575C158.883 179.507 158.946 179.429 159.092 179.34C159.208 179.268 159.306 179.248 159.386 179.28L172.087 187.777C172.731 188.205 173.251 188.448 173.647 188.506C174.03 188.573 174.439 188.472 174.877 188.204C174.921 188.177 174.969 188.207 175.023 188.295C175.077 188.382 175.082 188.439 175.038 188.466L174.281 188.9C173.854 189.121 173.503 189.317 173.225 189.487C172.627 189.853 172.017 190.248 171.393 190.67C171.183 190.819 170.903 191.001 170.553 191.215C170.509 191.242 170.46 191.212 170.407 191.124C170.353 191.036 170.348 190.979 170.392 190.953C170.815 190.693 171.097 190.45 171.239 190.223C171.375 190.019 171.371 189.801 171.228 189.567C171.094 189.348 170.819 189.096 170.403 188.809L159.921 181.871L160.917 187.671L166.355 191.29C166.943 191.692 167.44 191.929 167.845 192.002C168.26 192.089 168.656 192.016 169.036 191.784C169.079 191.757 169.128 191.787 169.182 191.875C169.235 191.962 169.24 192.02 169.197 192.046L168.439 192.48C168.071 192.666 167.749 192.843 167.472 193.013C166.976 193.317 166.503 193.627 166.055 193.942C165.918 194.046 165.725 194.174 165.477 194.326C165.434 194.353 165.385 194.322 165.331 194.235C165.278 194.147 165.273 194.09 165.316 194.063C165.579 193.902 165.751 193.757 165.832 193.627C165.907 193.521 165.904 193.402 165.824 193.271C165.726 193.11 165.341 192.794 164.671 192.322L161.226 190.04L161.868 193.739C161.946 194.293 162.075 194.716 162.254 195.007C162.531 195.46 162.961 195.507 163.544 195.149C163.574 195.131 163.615 195.166 163.669 195.254C163.722 195.341 163.734 195.394 163.705 195.412L163.211 195.685C162.93 195.817 162.6 195.999 162.221 196.231C161.944 196.401 161.625 196.617 161.264 196.878L160.402 197.437C160.373 197.454 160.331 197.42 160.278 197.332C160.224 197.245 160.212 197.192 160.241 197.174C160.722 196.879 161.056 196.474 161.242 195.959C161.436 195.458 161.455 194.785 161.297 193.938L160.566 189.602L154.167 185.397L156.205 197.12C156.285 197.512 156.396 197.825 156.539 198.058C156.951 198.729 157.681 198.743 158.731 198.099C158.775 198.072 158.824 198.103 158.877 198.19C158.931 198.278 158.936 198.335 158.892 198.362L157.938 198.916C157.424 199.191 156.971 199.449 156.577 199.691C156.271 199.878 155.937 200.103 155.575 200.365L154.67 200.95Z" fill="white"/>
        <path d="M136.276 191.56C136.146 191.045 136.002 190.685 135.843 190.478C135.685 190.271 135.454 190.162 135.152 190.15C134.849 190.138 134.39 190.21 133.777 190.365C133.744 190.374 133.715 190.328 133.689 190.229C133.664 190.129 133.668 190.075 133.701 190.067C134.215 189.937 134.624 189.842 134.927 189.783L136.724 189.355L138.434 188.896C138.745 188.8 139.166 188.685 139.696 188.55C139.746 188.538 139.784 188.581 139.809 188.681C139.834 188.78 139.822 188.836 139.772 188.849C139.158 189.004 138.721 189.159 138.46 189.313C138.199 189.467 138.048 189.673 138.007 189.93C137.954 190.209 137.991 190.596 138.117 191.094L141.03 202.612C141.156 203.109 141.306 203.459 141.481 203.662C141.639 203.869 141.87 203.978 142.173 203.99C142.48 204.018 142.94 203.955 143.554 203.8C143.603 203.787 143.641 203.83 143.666 203.93C143.691 204.029 143.679 204.085 143.629 204.098L142.354 204.394C141.649 204.537 141.073 204.665 140.625 204.779C140.144 204.9 139.543 205.07 138.822 205.288L137.634 205.615C137.601 205.623 137.572 205.577 137.547 205.478C137.521 205.378 137.525 205.324 137.559 205.316C138.156 205.165 138.591 205.002 138.864 204.827C139.121 204.656 139.268 204.434 139.304 204.16C139.345 203.902 139.302 203.525 139.177 203.028L136.276 191.56Z" fill="white"/>
        <path d="M129.3 206.516C130.356 206.425 131.149 206.065 131.679 205.435C132.193 204.825 132.522 203.861 132.667 202.543C132.679 202.491 132.737 202.46 132.839 202.451C132.926 202.461 132.971 202.483 132.973 202.517C132.946 203 132.936 203.773 132.941 204.838C132.947 205.902 132.973 206.706 133.02 207.252C133.027 207.337 132.98 207.384 132.877 207.393C132.775 207.401 132.72 207.363 132.713 207.278C132.681 206.903 132.205 206.755 131.284 206.834C129.814 206.909 128.099 207.031 126.139 207.199C125.134 207.286 124.07 207.394 122.948 207.525L121.212 207.7C120.598 207.753 120.15 207.834 119.868 207.944C119.568 208.056 119.387 208.243 119.324 208.506C119.312 208.576 119.264 208.614 119.179 208.622C119.094 208.629 119.048 208.599 119.042 208.53C119.051 208.032 119.036 207.26 118.998 206.216C118.961 205.189 118.916 204.361 118.862 203.73C118.859 203.696 118.908 203.674 119.011 203.666C119.096 203.658 119.148 203.671 119.168 203.704C119.349 205.01 119.737 205.921 120.33 206.437C120.907 206.954 121.758 207.164 122.883 207.067C123.564 207.009 124.056 206.932 124.357 206.837C124.641 206.744 124.833 206.582 124.933 206.35C125.016 206.12 125.036 205.749 124.992 205.238L123.979 193.452C123.933 192.924 123.849 192.545 123.726 192.315C123.587 192.086 123.351 191.943 123.02 191.886C122.672 191.83 122.131 191.834 121.398 191.897C121.364 191.9 121.343 191.85 121.334 191.748C121.325 191.645 121.338 191.593 121.372 191.59C121.951 191.54 122.412 191.509 122.755 191.497L124.777 191.349L126.717 191.156C127.057 191.11 127.533 191.06 128.147 191.008C128.181 191.005 128.202 191.054 128.211 191.157C128.22 191.259 128.207 191.311 128.173 191.314C127.457 191.376 126.933 191.464 126.599 191.578C126.266 191.693 126.049 191.875 125.951 192.123C125.853 192.389 125.827 192.778 125.871 193.289L126.888 205.126C126.93 205.62 127.02 205.965 127.157 206.159C127.278 206.372 127.495 206.499 127.808 206.541C128.104 206.584 128.601 206.576 129.3 206.516Z" fill="white"/>
        <path d="M83.6544 201.177C83.6049 201.163 83.5936 201.107 83.6206 201.008C83.6476 200.909 83.6859 200.866 83.7354 200.88C84.9072 201.199 85.9671 200.726 86.9154 199.46L95.6159 187.843C95.6504 187.782 95.7502 187.773 95.9152 187.818C96.0473 187.854 96.129 187.912 96.1605 187.992L97.4814 195.826L102.127 189.619C102.161 189.557 102.261 189.549 102.426 189.594C102.558 189.63 102.64 189.688 102.671 189.767L105.182 204.841C105.311 205.603 105.491 206.149 105.72 206.477C105.933 206.801 106.287 207.031 106.783 207.166C106.832 207.18 106.843 207.236 106.816 207.335C106.789 207.434 106.751 207.477 106.701 207.463L105.867 207.209C105.413 207.05 105.03 206.927 104.717 206.842C104.04 206.657 103.334 206.483 102.599 206.318C102.347 206.267 102.023 206.187 101.627 206.079C101.577 206.065 101.566 206.009 101.593 205.91C101.62 205.811 101.658 205.768 101.708 205.782C102.186 205.912 102.557 205.951 102.819 205.899C103.061 205.858 103.218 205.706 103.29 205.442C103.357 205.195 103.353 204.821 103.276 204.321L101.15 191.932L97.6075 196.631L98.6966 203.072C98.8061 203.776 98.9734 204.3 99.1984 204.645C99.419 205.007 99.7438 205.246 100.173 205.363C100.222 205.377 100.234 205.433 100.207 205.532C100.18 205.631 100.141 205.674 100.092 205.66L99.2569 205.406C98.8698 205.265 98.5195 205.152 98.2059 205.066C97.6448 204.913 97.0957 204.781 96.5586 204.67C96.3891 204.642 96.164 204.589 95.8835 204.512C95.834 204.499 95.8227 204.443 95.8497 204.344C95.8767 204.245 95.915 204.202 95.9645 204.215C96.2615 204.296 96.4851 204.322 96.6351 204.292C96.7642 204.274 96.8489 204.191 96.8894 204.042C96.9389 203.861 96.9059 203.364 96.7904 202.552L96.0929 198.479L93.8378 201.481C93.4882 201.918 93.2684 202.301 93.1784 202.631C93.0389 203.143 93.2992 203.488 93.9593 203.669C93.9923 203.678 93.9953 203.732 93.9683 203.831C93.9413 203.93 93.9113 203.975 93.8783 203.966L93.3404 203.792C93.0524 203.678 92.6938 203.563 92.2647 203.446C91.9511 203.36 91.5753 203.275 91.1372 203.191L90.1403 202.946C90.1073 202.937 90.1043 202.883 90.1313 202.784C90.1583 202.685 90.1883 202.64 90.2213 202.649C90.7659 202.797 91.2895 202.763 91.7921 202.545C92.2902 202.344 92.7936 201.897 93.3022 201.202L95.9601 197.698L94.6392 190.157L87.496 199.671C87.2649 199.999 87.1134 200.294 87.0414 200.558C86.8343 201.317 87.3249 201.859 88.5132 202.183C88.5627 202.197 88.5739 202.253 88.5469 202.352C88.5199 202.451 88.4817 202.494 88.4321 202.48L87.3744 202.165C86.8223 201.979 86.3235 201.825 85.8779 201.704C85.5313 201.609 85.139 201.52 84.7009 201.436L83.6544 201.177Z" fill="white"/>
        <path d="M81.3922 180.712C82.7539 181.535 83.7789 182.584 84.4673 183.859C85.1322 185.14 85.4302 186.499 85.3612 187.937C85.2687 189.38 84.8333 190.746 84.0548 192.034C83.1436 193.542 81.9844 194.601 80.5773 195.209C79.1613 195.833 77.6967 196.057 76.1835 195.882C74.6556 195.698 73.2694 195.231 72.0249 194.479C70.6339 193.638 69.6105 192.57 68.9544 191.274C68.2895 189.993 68.0017 188.65 68.0911 187.245C68.1659 185.831 68.566 184.524 69.2914 183.323C70.0964 181.991 71.1865 180.981 72.5616 180.293C73.9367 179.605 75.4119 179.297 76.987 179.369C78.5476 179.433 80.016 179.88 81.3922 180.712ZM80.3317 180.731C79.3653 180.147 78.3555 179.866 77.3023 179.889C76.2343 179.904 75.2021 180.239 74.2056 180.896C73.1855 181.559 72.2862 182.535 71.5078 183.823C70.685 185.185 70.1997 186.55 70.0517 187.92C69.8891 189.281 70.0803 190.536 70.6253 191.684C71.1704 192.833 72.0432 193.77 73.2438 194.496C74.8104 195.442 76.347 195.661 77.8535 195.152C79.3512 194.658 80.6486 193.504 81.7455 191.688C82.5771 190.312 83.0846 188.91 83.2679 187.481C83.4513 186.053 83.2955 184.74 82.8005 183.541C82.2966 182.358 81.4737 181.421 80.3317 180.731Z" fill="white"/>
        <path d="M60.9122 164.066C60.8758 164.03 60.8937 163.975 60.966 163.903C61.0383 163.83 61.0927 163.811 61.1291 163.847L63.6243 166.324C63.9157 166.613 63.9801 167.653 63.8176 169.444C63.6309 171.235 63.2407 173.595 62.6471 176.525C63.0352 176.789 63.3689 177.06 63.6481 177.337C63.7088 177.398 63.9761 177.699 64.4499 178.241L68.5347 174.125C68.9083 173.749 69.143 173.44 69.2388 173.197C69.3347 172.955 69.3095 172.701 69.1633 172.435C69.0172 172.17 68.7195 171.814 68.2702 171.368C68.2338 171.332 68.2517 171.278 68.324 171.205C68.3963 171.132 68.4507 171.114 68.4871 171.15C68.8757 171.535 69.1671 171.837 69.3615 172.054L70.6365 173.355L71.9113 174.584C72.154 174.801 72.4697 175.102 72.8582 175.488C72.8825 175.512 72.8585 175.56 72.7862 175.633C72.7139 175.706 72.6656 175.73 72.6413 175.706C72.1921 175.261 71.8341 174.966 71.5675 174.821C71.3008 174.677 71.0467 174.654 70.8051 174.752C70.5394 174.849 70.2258 175.081 69.8643 175.445L61.4958 183.877C61.1343 184.242 60.9056 184.545 60.8098 184.787C60.7139 185.03 60.7391 185.283 60.8853 185.549C61.0194 185.827 61.305 186.183 61.7421 186.616C61.7785 186.652 61.7606 186.707 61.6883 186.78C61.616 186.853 61.5616 186.871 61.5252 186.835L60.6509 185.931C60.165 185.401 59.7581 184.973 59.4303 184.647C59.1753 184.394 58.9265 184.159 58.6837 183.943C58.441 183.726 58.2286 183.539 58.0465 183.383C57.5611 182.973 57.1242 182.576 56.7356 182.19C55.7643 181.226 55.2284 180.26 55.1279 179.293C55.0033 178.326 55.3024 177.478 56.0254 176.749C56.6761 176.094 57.4608 175.692 58.3795 175.543C59.2861 175.382 60.2057 175.463 61.1383 175.786C61.5764 173.305 61.8652 171.314 62.0046 169.814C62.1319 168.301 62.1152 167.092 61.9545 166.185C61.7696 165.278 61.4222 164.572 60.9122 164.066ZM64.0161 178.679C63.7123 178.305 63.3722 177.931 62.9958 177.558C62.0851 176.654 61.2367 176.209 60.4505 176.225C59.6523 176.252 58.8254 176.696 57.9699 177.558C57.018 178.518 56.5435 179.396 56.5466 180.195C56.5376 181.005 56.9095 181.784 57.6623 182.531C58.1358 183.001 58.5601 183.241 58.9351 183.252C59.2859 183.263 59.7084 183.019 60.2024 182.522L64.0161 178.679Z" fill="white"/>
        <path d="M53.0783 151.234C53.0507 151.191 53.0801 151.141 53.1666 151.086C53.2531 151.031 53.3102 151.025 53.3378 151.068L54.884 153.491C54.9668 153.621 55.1095 153.844 55.3119 154.161C55.5196 154.455 55.3902 155.238 54.9235 156.51C54.4332 157.776 54.1201 158.605 53.9842 158.997L51.9533 164.829L53.0301 165.085L57.8534 162.006C58.3004 161.721 58.5972 161.471 58.7439 161.255C58.8905 161.04 58.9217 160.787 58.8373 160.495C58.7529 160.204 58.5405 159.792 58.2 159.258C58.1724 159.215 58.2018 159.166 58.2883 159.111C58.3748 159.056 58.4319 159.05 58.4595 159.093C58.754 159.554 58.9723 159.912 59.1143 160.166L60.0729 161.716L61.0471 163.195C61.2363 163.459 61.4782 163.822 61.7727 164.284C61.7912 164.313 61.7571 164.355 61.6706 164.41C61.5841 164.465 61.5316 164.478 61.5132 164.45C61.1727 163.916 60.8881 163.55 60.6596 163.351C60.431 163.151 60.1882 163.073 59.9311 163.115C59.6504 163.153 59.2937 163.309 58.8612 163.585L48.8469 169.977C48.4143 170.253 48.1247 170.499 47.9781 170.714C47.8314 170.93 47.8003 171.183 47.8846 171.474C47.9546 171.774 48.1598 172.191 48.5003 172.725C48.5187 172.754 48.4847 172.796 48.3982 172.851C48.3117 172.906 48.2592 172.919 48.2408 172.891L47.5722 171.795C47.196 171.142 46.8929 170.636 46.6629 170.275C46.396 169.857 46.0548 169.354 45.6394 168.767L44.9414 167.721C44.923 167.692 44.957 167.65 45.0435 167.595C45.13 167.54 45.1825 167.527 45.2009 167.555C45.5322 168.075 45.824 168.436 46.0762 168.641C46.3191 168.831 46.5764 168.9 46.8479 168.848C47.105 168.806 47.4498 168.647 47.8824 168.371L52.4678 165.444L45.0404 163.822C44.2556 163.674 43.7479 163.673 43.5172 163.82C43.1855 164.032 43.2912 164.563 43.8342 165.414C43.8526 165.443 43.8185 165.485 43.732 165.54C43.6455 165.595 43.5931 165.609 43.5746 165.58L42.9889 164.614C42.6496 164.019 42.3188 163.469 41.9967 162.964C41.6746 162.46 41.3335 161.957 40.9733 161.456L40.4133 160.627C40.3857 160.583 40.4151 160.534 40.5016 160.479C40.5881 160.424 40.6452 160.418 40.6728 160.461C41.0594 161.067 41.6177 161.623 42.3479 162.132C43.0636 162.649 43.8939 163.012 44.8388 163.22L50.1323 164.408L52.1674 158.725C52.8602 156.822 53.3175 155.424 53.5393 154.532C53.7519 153.625 53.8193 152.983 53.7414 152.607C53.649 152.239 53.428 151.782 53.0783 151.234Z" fill="white"/>
        <path d="M40.1299 152.632C40.7347 152.394 41.2083 152.033 41.5508 151.548C41.8932 151.064 42.1389 150.544 42.288 149.989C42.437 149.434 42.5887 148.676 42.743 147.714C42.9166 146.708 43.0876 145.905 43.2559 145.306C43.4242 144.706 43.7083 144.144 44.1081 143.619C44.5017 143.077 45.0566 142.666 45.7728 142.384C46.5526 142.076 47.3313 141.999 48.1088 142.153C48.88 142.29 49.5959 142.661 50.2567 143.265C50.9015 143.875 51.4245 144.689 51.8258 145.708C52.3337 146.997 52.4986 148.256 52.3207 149.484C52.3043 149.583 52.2705 149.66 52.2194 149.717C52.1683 149.774 52.0822 149.836 51.9611 149.902L48.7223 151.481C48.6649 151.522 48.6125 151.506 48.5653 151.433C48.5117 151.343 48.5137 151.278 48.5711 151.237C49.6234 150.455 50.4366 149.555 51.0105 148.539C51.5685 147.528 51.6249 146.458 51.1798 145.328C50.8726 144.548 50.4086 143.977 49.7879 143.615C49.1672 143.253 48.3873 143.257 47.4483 143.626C46.7321 143.909 46.182 144.309 45.7981 144.828C45.3983 145.353 45.1142 145.916 44.9459 146.515C44.7554 147.105 44.583 147.881 44.4286 148.843C44.2425 149.817 44.0749 150.582 43.9258 151.137C43.7609 151.698 43.4913 152.227 43.117 152.724C42.7269 153.227 42.1896 153.613 41.5052 153.883C40.6935 154.203 39.9245 154.257 39.1981 154.047C38.4559 153.843 37.8115 153.444 37.2651 152.851C36.7027 152.263 36.268 151.579 35.9607 150.8C35.572 149.813 35.382 148.794 35.3906 147.742C35.408 147.46 35.5042 147.284 35.6793 147.215L38.4877 145.943C38.5514 145.918 38.61 145.95 38.6635 146.039C38.7108 146.113 38.7057 146.17 38.6483 146.211C37.8675 146.702 37.2128 147.374 36.6842 148.226C36.1556 149.077 36.0982 150.028 36.512 151.079C36.8443 151.922 37.3449 152.47 38.0139 152.721C38.6765 152.956 39.3819 152.927 40.1299 152.632Z" fill="white"/>
        <path d="M27.6242 117.606C27.5045 117.603 27.4487 117.422 27.4568 117.063C27.4645 116.721 27.5283 116.551 27.648 116.554L50.3508 117.066C50.4192 117.068 50.4693 117.12 50.5012 117.224C50.5331 117.327 50.5475 117.447 50.5444 117.584C50.5409 117.738 50.5209 117.866 50.4844 117.968C50.4479 118.07 50.3954 118.12 50.327 118.118L27.6242 117.606Z" fill="white"/>
        <path d="M57.9819 78.0684C58.005 78.0225 58.0624 78.0227 58.1541 78.0689C58.2457 78.1151 58.28 78.1611 58.2569 78.2069C58.0106 78.6958 57.8105 79.0739 57.6567 79.3411L56.814 80.9565L55.9478 82.7325C55.8322 82.9999 55.6589 83.3628 55.428 83.8211C55.4049 83.8669 55.3475 83.8667 55.2559 83.8205C55.1642 83.7743 55.1299 83.7283 55.153 83.6825C55.4532 83.0867 55.6306 82.6397 55.6851 82.3415C55.7472 82.0281 55.6945 81.7716 55.5268 81.5722C55.3515 81.3498 55.0348 81.1231 54.5765 80.8922L49.2374 78.2017L44.9305 86.7489L50.2696 89.4394C50.7279 89.6703 51.0947 89.7977 51.37 89.8215C51.6378 89.8223 51.8753 89.7121 52.0825 89.4909C52.2975 89.2544 52.555 88.8383 52.8553 88.2425C52.8706 88.212 52.9242 88.2198 53.0158 88.266C53.1075 88.3122 53.1456 88.3505 53.1302 88.3811C52.8839 88.8699 52.6838 89.248 52.53 89.5153L51.6411 91.2223L50.8557 92.8379C50.7324 93.1206 50.5438 93.514 50.2898 94.0181C50.2744 94.0487 50.2208 94.0409 50.1292 93.9947C50.0375 93.9485 49.9994 93.9101 50.0148 93.8796C50.3073 93.2991 50.4808 92.8597 50.5353 92.5615C50.5975 92.248 50.5447 91.9916 50.377 91.7922C50.2018 91.5698 49.885 91.3431 49.4267 91.1121L38.8172 85.7659C38.3589 85.5349 37.9959 85.4191 37.7281 85.4182C37.4681 85.4021 37.2306 85.5123 37.0156 85.7488C36.7931 85.9623 36.5395 86.3517 36.2546 86.9169C36.2392 86.9474 36.1857 86.9396 36.0941 86.8934C36.0024 86.8473 35.9643 86.8089 35.9797 86.7783L36.5915 85.6212C36.9453 84.995 37.2262 84.4757 37.434 84.0632C37.6649 83.6049 37.9422 83.0167 38.2657 82.2986L38.8086 81.1642C38.824 81.1337 38.8775 81.1415 38.9692 81.1877C39.0608 81.2339 39.099 81.2722 39.0836 81.3028C38.791 81.8833 38.6213 82.3341 38.5744 82.6553C38.5275 82.9765 38.5917 83.2482 38.767 83.4706C38.9347 83.6701 39.2476 83.8853 39.7059 84.1162L44.4264 86.4949L48.7332 77.9477L44.0128 75.569C43.5545 75.3381 43.1915 75.2222 42.9238 75.2213C42.6484 75.1975 42.3956 75.3 42.1654 75.5288C41.9352 75.7576 41.6738 76.1622 41.3813 76.7427C41.3582 76.7886 41.3009 76.7884 41.2092 76.7422C41.1175 76.696 41.0833 76.65 41.1064 76.6042L41.672 75.5387C42.0412 74.882 42.3529 74.3015 42.6069 73.7974C42.8147 73.3849 43.0727 72.8349 43.3809 72.1473L43.9353 70.9901C43.9584 70.9442 44.0157 70.9444 44.1074 70.9906C44.1991 71.0368 44.2333 71.0828 44.2103 71.1286C43.9177 71.7091 43.748 72.16 43.7011 72.4811C43.6466 72.7793 43.6994 73.0358 43.8594 73.2505C44.0271 73.4499 44.3401 73.6651 44.7984 73.896L55.4078 79.2423C55.8661 79.4732 56.2329 79.6006 56.5083 79.6244C56.776 79.6253 57.0135 79.5151 57.2208 79.2939C57.4357 79.0574 57.6894 78.6489 57.9819 78.0684Z" fill="white"/>
        <path d="M64.3837 71.621C63.3371 72.8192 62.1261 73.6466 60.7506 74.1032C59.3735 74.5356 57.9831 74.5931 56.5796 74.2757C55.1745 73.9341 53.9051 73.2681 52.7713 72.2778C51.4443 71.1187 50.6032 69.7934 50.2479 68.3019C49.8797 66.7992 49.913 65.3178 50.3479 63.8579C50.794 62.385 51.4953 61.1011 52.4518 60.006C53.5209 58.782 54.7504 57.9595 56.1404 57.5383C57.5176 57.1058 58.8902 57.0556 60.2583 57.3875C61.6377 57.7066 62.8556 58.3276 63.912 59.2504C65.0844 60.2745 65.8901 61.5234 66.3291 62.9971C66.768 64.4708 66.8152 65.977 66.4705 67.5157C66.1371 69.0415 65.4415 70.41 64.3837 71.621ZM64.5493 70.5733C65.2921 69.723 65.7434 68.7772 65.9035 67.7358C66.0747 66.6816 65.9234 65.6068 65.4493 64.5113C64.9736 63.3917 64.1689 62.3367 63.0352 61.3463C61.837 60.2997 60.5764 59.5847 59.2533 59.2012C57.9414 58.8048 56.6725 58.7753 55.4466 59.1127C54.2207 59.4501 53.1463 60.147 52.2235 61.2034C51.0194 62.582 50.5371 64.0573 50.7766 65.6293C51.0033 67.1901 51.9153 68.6682 53.5129 70.0637C54.7239 71.1215 56.0168 71.8647 57.3914 72.2932C58.766 72.7217 60.0865 72.7962 61.3527 72.5167C62.606 72.226 63.6716 71.5782 64.5493 70.5733Z" fill="white"/>
        <path d="M80.967 38.0507C81.01 38.0228 81.0595 38.0519 81.1153 38.138C81.1712 38.2241 81.1776 38.2811 81.1345 38.3091C80.1155 38.97 79.7623 40.0758 80.0749 41.6266L82.9415 55.8547C82.9644 55.9214 82.9041 56.0013 82.7606 56.0944C82.6458 56.1689 82.5482 56.1914 82.4679 56.1619L75.7458 51.9276L77.2798 59.527C77.3027 59.5937 77.2423 59.6736 77.0988 59.7667C76.984 59.8411 76.8865 59.8636 76.8062 59.8341L63.8919 51.6642C63.2376 51.2526 62.7115 51.0229 62.3135 50.9752C61.9299 50.9182 61.5228 51.0293 61.0923 51.3085C61.0492 51.3365 60.9998 51.3074 60.9439 51.2213C60.8881 51.1352 60.8817 51.0781 60.9247 51.0502L61.6706 50.597C62.0911 50.3651 62.4377 50.1607 62.7103 49.9838C63.2988 49.6021 63.8994 49.1922 64.5123 48.7539C64.7182 48.5999 64.9934 48.4112 65.3379 48.1878C65.3809 48.1599 65.4304 48.189 65.4862 48.2751C65.5421 48.3612 65.5485 48.4182 65.5054 48.4461C65.0892 48.7161 64.8132 48.9665 64.6775 49.1973C64.5468 49.4044 64.5559 49.6228 64.7048 49.8524C64.8444 50.0677 65.126 50.3132 65.5496 50.589L76.2052 57.2572L75.061 51.4848L69.5322 48.0059C68.9345 47.6187 68.432 47.3941 68.0247 47.3321C67.6082 47.2556 67.2133 47.3384 66.8401 47.5804C66.7971 47.6084 66.7476 47.5793 66.6918 47.4932C66.6359 47.4071 66.6295 47.35 66.6726 47.3221L67.4185 46.8689C67.7816 46.6742 68.0994 46.4884 68.3721 46.3115C68.8601 45.9951 69.3244 45.6735 69.765 45.3469C69.8992 45.2395 70.0883 45.1067 70.3323 44.9484C70.3754 44.9205 70.4248 44.9496 70.4807 45.0357C70.5365 45.1218 70.5429 45.1788 70.4998 45.2067C70.2415 45.3743 70.0736 45.524 69.996 45.6559C69.9234 45.7641 69.9291 45.8828 70.0128 46.012C70.1152 46.1698 70.5076 46.4761 71.1898 46.9307L74.6923 49.1244L73.9558 45.4425C73.8631 44.891 73.7237 44.4716 73.5375 44.1846C73.249 43.7397 72.8177 43.7034 72.2436 44.0757C72.2149 44.0944 72.1726 44.0606 72.1168 43.9745C72.0609 43.8884 72.0473 43.836 72.076 43.8174L72.5636 43.5318C72.8406 43.3929 73.1656 43.2025 73.5388 42.9604C73.8114 42.7836 74.125 42.5598 74.4796 42.2891L75.3267 41.709C75.3554 41.6904 75.3977 41.7241 75.4535 41.8102C75.5094 41.8964 75.523 41.9487 75.4943 41.9673C75.0207 42.2745 74.6975 42.688 74.5249 43.2078C74.343 43.7132 74.3416 44.3869 74.5208 45.229L75.3631 49.5456L81.867 53.5849L79.5303 41.9186C79.4403 41.5284 79.3209 41.2185 79.172 40.9889C78.7438 40.3287 78.013 40.3337 76.9797 41.0039C76.9366 41.0318 76.8872 41.0027 76.8313 40.9166C76.7755 40.8305 76.7691 40.7735 76.8121 40.7456L77.7518 40.1667C78.2583 39.8789 78.7054 39.6093 79.0929 39.358C79.3943 39.1625 79.7222 38.9294 80.0768 38.6587L80.967 38.0507Z" fill="white"/>
        <path d="M99.5298 46.9462C99.6729 47.4568 99.8262 47.8136 99.9897 48.0165C100.153 48.2194 100.386 48.3227 100.69 48.3266C100.993 48.3305 101.449 48.247 102.058 48.0761C102.091 48.0669 102.122 48.1117 102.149 48.2105C102.177 48.3093 102.174 48.3634 102.141 48.3726C101.631 48.5157 101.225 48.6206 100.924 48.6873L99.1381 49.1613L97.4402 49.6639C97.1319 49.7681 96.7142 49.8941 96.1871 50.0419C96.1377 50.0557 96.0991 50.0132 96.0714 49.9144C96.0437 49.8156 96.0546 49.7592 96.104 49.7454C96.7134 49.5745 97.1466 49.4087 97.4035 49.2478C97.6605 49.087 97.806 48.8774 97.8402 48.6191C97.8862 48.3397 97.84 47.9529 97.7014 47.4588L94.4945 36.0193C94.356 35.5252 94.1968 35.179 94.0168 34.9807C93.8534 34.7778 93.6201 34.6744 93.317 34.6706C93.0093 34.6503 92.5507 34.7255 91.9413 34.8964C91.8918 34.9102 91.8533 34.8677 91.8256 34.7689C91.7979 34.6701 91.8087 34.6137 91.8581 34.5999L93.1251 34.2713C93.8261 34.1103 94.399 33.9675 94.8437 33.8428C95.3214 33.7089 95.918 33.5239 96.6335 33.2878L97.8125 32.9306C97.8454 32.9214 97.8758 32.9662 97.9035 33.065C97.9312 33.1638 97.9285 33.2178 97.8956 33.2271C97.3026 33.3933 96.8718 33.5674 96.603 33.7494C96.3507 33.9267 96.2098 34.1527 96.1802 34.4275C96.146 34.6858 96.1982 35.062 96.3367 35.5562L99.5298 46.9462Z" fill="white"/>
        <path d="M106.019 31.8024C104.965 31.9206 104.181 32.3012 103.668 32.944C103.17 33.5679 102.866 34.5402 102.756 35.8608C102.745 35.9137 102.688 35.9458 102.586 35.9573C102.499 35.9498 102.454 35.9291 102.45 35.8951C102.465 35.4115 102.455 34.6379 102.422 33.5744C102.389 32.5108 102.342 31.7071 102.281 31.1631C102.271 31.0781 102.317 31.0299 102.419 31.0184C102.521 31.007 102.577 31.0438 102.587 31.1288C102.629 31.5028 103.109 31.6383 104.027 31.5353C105.494 31.4223 107.206 31.2562 109.161 31.0369C110.164 30.9244 111.224 30.7882 112.342 30.6284L114.073 30.4084C114.685 30.3397 115.131 30.2467 115.411 30.1293C115.707 30.0099 115.884 29.818 115.94 29.5535C115.949 29.4836 115.997 29.4439 116.082 29.4343C116.167 29.4248 116.213 29.454 116.22 29.522C116.225 30.0207 116.26 30.7914 116.325 31.8342C116.388 32.8599 116.455 33.6872 116.526 34.3162C116.53 34.3502 116.481 34.3729 116.379 34.3844C116.294 34.3939 116.241 34.3826 116.22 34.3505C116.005 33.0492 115.594 32.1485 114.987 31.6485C114.397 31.1467 113.541 30.9586 112.419 31.0845C111.739 31.1608 111.25 31.2501 110.952 31.3524C110.67 31.4528 110.483 31.6202 110.388 31.8545C110.311 32.087 110.301 32.4582 110.358 32.9682L111.677 44.7236C111.736 45.2506 111.83 45.6273 111.959 45.8539C112.104 46.0786 112.344 46.2153 112.676 46.264C113.026 46.3109 113.566 46.2933 114.297 46.2113C114.331 46.2075 114.354 46.2566 114.365 46.3586C114.376 46.4606 114.365 46.5135 114.331 46.5173C113.753 46.5822 113.293 46.6251 112.951 46.6463L110.934 46.8467L108.999 47.0896C108.661 47.1448 108.186 47.2067 107.574 47.2753C107.54 47.2791 107.517 47.23 107.506 47.128C107.494 47.026 107.505 46.9731 107.539 46.9693C108.253 46.8892 108.776 46.7876 109.106 46.6645C109.437 46.5413 109.648 46.3541 109.74 46.1027C109.831 45.8344 109.847 45.4452 109.79 44.9352L108.466 33.1288C108.41 32.6358 108.312 32.294 108.17 32.1034C108.043 31.8938 107.823 31.7722 107.509 31.7385C107.213 31.7029 106.716 31.7242 106.019 31.8024Z" fill="white"/>
        <path d="M152.105 35.9786C152.155 35.9909 152.168 36.0469 152.143 36.1465C152.118 36.2462 152.081 36.2898 152.031 36.2774C150.852 35.9849 149.804 36.4826 148.885 37.7704L140.455 49.5849C140.421 49.6472 140.322 49.6577 140.156 49.6165C140.023 49.5836 139.94 49.5277 139.907 49.4489L138.405 41.6475L133.905 47.9597C133.872 48.022 133.772 48.0326 133.606 47.9914C133.473 47.9584 133.39 47.9026 133.357 47.8238L130.498 32.8118C130.352 32.0528 130.16 31.5117 129.923 31.1885C129.703 30.8695 129.343 30.6481 128.845 30.5246C128.795 30.5122 128.783 30.4562 128.808 30.3566C128.832 30.257 128.87 30.2133 128.919 30.2257L129.76 30.4607C130.217 30.6093 130.603 30.7227 130.918 30.8009C131.599 30.9698 132.309 31.1283 133.047 31.2764C133.3 31.3216 133.626 31.3936 134.025 31.4924C134.075 31.5048 134.087 31.5608 134.062 31.6604C134.038 31.76 134 31.8037 133.951 31.7913C133.469 31.6718 133.098 31.6414 132.836 31.6999C132.596 31.746 132.443 31.9018 132.377 32.1675C132.315 32.4165 132.328 32.7899 132.416 33.2876L134.828 45.6243L138.261 40.8449L137.023 34.4308C136.898 33.7298 136.718 33.2095 136.485 32.8697C136.257 32.5133 135.926 32.2815 135.495 32.1744C135.445 32.1621 135.432 32.1061 135.457 32.0064C135.482 31.9068 135.519 31.8632 135.569 31.8756L136.409 32.1106C136.8 32.2426 137.152 32.3478 137.468 32.4261C138.032 32.5661 138.584 32.6855 139.124 32.7841C139.294 32.8087 139.52 32.856 139.803 32.926C139.852 32.9384 139.865 32.9944 139.84 33.094C139.815 33.1936 139.778 33.2372 139.728 33.2249C139.43 33.1507 139.205 33.1304 139.056 33.1638C138.928 33.1848 138.845 33.27 138.808 33.4194C138.762 33.6021 138.807 34.0978 138.941 34.9066L139.732 38.9628L141.918 35.9095C142.257 35.465 142.468 35.0767 142.55 34.7446C142.678 34.2299 142.41 33.8902 141.746 33.7254C141.712 33.7172 141.708 33.6632 141.733 33.5636C141.758 33.464 141.787 33.4183 141.82 33.4265L142.362 33.5874C142.652 33.6948 143.013 33.802 143.445 33.9091C143.76 33.9874 144.138 34.0634 144.578 34.1373L145.58 34.3596C145.614 34.3679 145.618 34.4218 145.593 34.5214C145.568 34.621 145.539 34.6667 145.506 34.6585C144.958 34.5225 144.436 34.5691 143.938 34.7982C143.445 35.0106 142.952 35.47 142.459 36.1761L139.883 39.7405L141.378 47.2495L148.299 37.5723C148.523 37.24 148.668 36.941 148.733 36.6753C148.923 35.9116 148.42 35.3814 147.225 35.0848C147.175 35.0725 147.162 35.0165 147.187 34.9169C147.212 34.8173 147.249 34.7736 147.299 34.786L148.363 35.0766C148.92 35.2499 149.422 35.3921 149.87 35.5033C150.219 35.5898 150.613 35.67 151.053 35.7439L152.105 35.9786Z" fill="white"/>
        <path d="M154.639 56.2282C153.258 55.4369 152.21 54.4117 151.492 53.1525C150.798 51.8869 150.469 50.5348 150.505 49.0963C150.564 47.6515 150.968 46.276 151.717 44.9701C152.593 43.4415 153.727 42.3567 155.12 41.7157C156.522 41.0599 157.981 40.8021 159.497 40.9421C161.029 41.0906 162.426 41.5265 163.687 42.2497C165.097 43.0579 166.145 44.1023 166.831 45.3827C167.525 46.6482 167.843 47.9844 167.786 49.391C167.744 50.8062 167.374 52.1223 166.676 53.3392C165.902 54.6897 164.836 55.7247 163.477 56.4442C162.118 57.1637 160.65 57.5054 159.074 57.4693C157.512 57.4416 156.034 57.0279 154.639 56.2282ZM155.699 56.1851C156.678 56.7466 157.694 57.0037 158.746 56.9564C159.814 56.9176 160.838 56.5583 161.819 55.8786C162.824 55.1925 163.7 54.1965 164.449 52.8905C165.24 51.5103 165.694 50.1339 165.811 48.7613C165.942 47.3971 165.722 46.1471 165.151 45.0111C164.579 43.8752 163.685 42.9584 162.468 42.2607C160.88 41.3504 159.339 41.1668 157.845 41.71C156.359 42.2384 155.088 43.4227 154.033 45.2629C153.234 46.6579 152.758 48.0715 152.608 49.5035C152.457 50.9355 152.643 52.2449 153.166 53.4317C153.697 54.6037 154.541 55.5215 155.699 56.1851Z" fill="white"/>
        <path d="M175.726 72.4854C175.763 72.5207 175.746 72.5756 175.676 72.6501C175.605 72.7245 175.551 72.7441 175.514 72.7087L172.964 70.289C172.666 70.0064 172.578 68.968 172.701 67.174C172.847 65.3793 173.184 63.0109 173.712 60.0688C173.318 59.8129 172.979 59.5496 172.693 59.2787C172.631 59.2199 172.357 58.9245 171.871 58.3927L167.88 62.5994C167.515 62.984 167.287 63.2986 167.197 63.5429C167.106 63.7873 167.137 64.0406 167.289 64.3028C167.441 64.565 167.747 64.914 168.206 65.3497C168.243 65.385 168.226 65.4399 168.156 65.5143C168.085 65.5888 168.031 65.6084 167.994 65.573C167.597 65.1962 167.299 64.9015 167.1 64.689L165.796 63.4163L164.494 62.2162C164.246 62.0049 163.924 61.7108 163.527 61.334C163.502 61.3105 163.525 61.2615 163.596 61.187C163.666 61.1125 163.714 61.0871 163.739 61.1106C164.198 61.5463 164.562 61.8332 164.832 61.9714C165.102 62.1095 165.357 62.127 165.596 62.0239C165.859 61.9202 166.168 61.6823 166.521 61.31L174.699 52.692C175.052 52.3198 175.274 52.0114 175.364 51.7671C175.454 51.5227 175.424 51.2694 175.271 51.0072C175.131 50.7325 174.838 50.3833 174.391 49.9594C174.354 49.924 174.37 49.8692 174.441 49.7947C174.512 49.7202 174.566 49.7007 174.603 49.736L175.497 50.6201C175.995 51.1395 176.411 51.5581 176.746 51.876C177.007 52.1233 177.261 52.3526 177.508 52.5639C177.756 52.7752 177.973 52.9571 178.158 53.1096C178.652 53.508 179.098 53.8956 179.495 54.2725C180.488 55.2145 181.045 56.1679 181.168 57.1327C181.314 58.0969 181.034 58.9512 180.327 59.6958C179.691 60.3659 178.916 60.7855 178.001 60.9547C177.098 61.1356 176.177 61.0751 175.237 60.773C174.855 63.2636 174.611 65.2605 174.505 66.7637C174.411 68.2787 174.455 69.4876 174.636 70.3903C174.841 71.2925 175.205 71.9908 175.726 72.4854ZM172.295 57.946C172.607 58.313 172.956 58.6789 173.34 59.044C174.271 59.9271 175.129 60.3523 175.915 60.3196C176.712 60.2745 177.529 59.8115 178.365 58.9304C179.295 57.9501 179.75 57.0609 179.729 56.2629C179.72 55.4524 179.331 54.6821 178.561 53.9521C178.077 53.4928 177.648 53.2621 177.273 53.2598C176.922 53.2569 176.505 53.5099 176.022 54.0186L172.295 57.946Z" fill="white"/>
        <path d="M183.725 84.8358C183.754 84.8784 183.726 84.9283 183.641 84.9857C183.556 85.0432 183.499 85.0506 183.47 85.0081L181.863 82.6259C181.776 82.4983 181.628 82.2785 181.418 81.9665C181.202 81.6783 181.312 80.8925 181.746 79.609C182.204 78.3301 182.495 77.4934 182.621 77.0989L184.502 71.2169L183.419 70.9881L178.676 74.1891C178.237 74.4857 177.947 74.7436 177.805 74.9626C177.664 75.1817 177.64 75.4356 177.731 75.7245C177.823 76.0134 178.046 76.4202 178.4 76.9448C178.429 76.9874 178.401 77.0374 178.316 77.0948C178.231 77.1522 178.174 77.1596 178.145 77.1171C177.839 76.6633 177.611 76.3112 177.463 76.0605L176.465 74.5361L175.453 73.0828C175.257 72.823 175.006 72.4662 174.7 72.0124C174.681 71.9841 174.714 71.9412 174.799 71.8838C174.884 71.8263 174.936 71.8118 174.955 71.8402C175.309 72.3648 175.603 72.7238 175.837 72.917C176.07 73.1102 176.315 73.1823 176.571 73.1334C176.851 73.0891 177.203 72.9235 177.629 72.6364L187.476 65.9905C187.901 65.7034 188.185 65.4504 188.326 65.2313C188.467 65.0123 188.492 64.7583 188.4 64.4694C188.322 64.1709 188.106 63.7594 187.752 63.2347C187.733 63.2063 187.766 63.1635 187.851 63.106C187.936 63.0486 187.988 63.0341 188.007 63.0625L188.704 64.1403C189.097 64.7833 189.413 65.2821 189.652 65.6366C189.929 66.0478 190.283 66.5416 190.713 67.118L191.438 68.1459C191.457 68.1742 191.424 68.2171 191.339 68.2745C191.254 68.3319 191.202 68.3465 191.183 68.3181C190.838 67.8076 190.537 67.4535 190.28 67.2557C190.032 67.072 189.773 67.0095 189.503 67.0679C189.247 67.1168 188.907 67.2848 188.481 67.5719L183.972 70.6149L191.439 72.0459C192.227 72.1743 192.735 72.1619 192.962 72.0088C193.288 71.7887 193.168 71.2604 192.604 70.4238C192.585 70.3954 192.618 70.3525 192.703 70.2951C192.788 70.2377 192.84 70.2232 192.859 70.2515L193.469 71.2017C193.824 71.7881 194.168 72.3294 194.503 72.8257C194.838 73.322 195.192 73.8158 195.565 74.3071L196.146 75.1222C196.175 75.1648 196.147 75.2148 196.062 75.2722C195.976 75.3296 195.92 75.337 195.891 75.2945C195.489 74.6989 194.917 74.1566 194.174 73.6673C193.445 73.1685 192.606 72.8269 191.656 72.6425L186.334 71.5908L184.444 77.3235C183.801 79.2439 183.379 80.6531 183.18 81.5509C182.991 82.4629 182.94 83.1061 183.027 83.4804C183.129 83.8452 183.362 84.297 183.725 84.8358Z" fill="white"/>
        <path d="M196.728 83.1487C196.13 83.4023 195.665 83.7754 195.335 84.2682C195.005 84.761 194.773 85.2868 194.638 85.8455C194.503 86.4043 194.371 87.1663 194.241 88.1316C194.093 89.1418 193.943 89.9487 193.79 90.5523C193.637 91.1559 193.367 91.7253 192.981 92.2605C192.601 92.8115 192.057 93.2371 191.348 93.5374C190.576 93.8644 189.8 93.9611 189.019 93.8276C188.244 93.7098 187.519 93.3575 186.843 92.7706C186.183 92.1771 185.639 91.3763 185.212 90.3682C184.672 89.0923 184.475 87.8381 184.622 86.6056C184.635 86.5068 184.667 86.4283 184.717 86.3701C184.767 86.3119 184.851 86.2483 184.97 86.1791L188.168 84.5179C188.224 84.4755 188.277 84.4903 188.326 84.5624C188.382 84.6502 188.382 84.7154 188.325 84.7578C187.293 85.5666 186.503 86.4865 185.955 87.5175C185.423 88.5418 185.394 89.6131 185.868 90.7315C186.195 91.5033 186.673 92.0623 187.303 92.4086C187.933 92.7549 188.712 92.7312 189.641 92.3376C190.35 92.0373 190.89 91.6229 191.26 91.0943C191.647 90.5591 191.916 89.9897 192.069 89.3861C192.245 88.7916 192.398 88.0116 192.527 87.0463C192.689 86.0676 192.837 85.2989 192.972 84.7402C193.122 84.1747 193.378 83.639 193.74 83.1328C194.117 82.62 194.644 82.2202 195.322 81.9332C196.125 81.5929 196.892 81.5186 197.624 81.7104C198.371 81.8954 199.025 82.2778 199.587 82.8574C200.164 83.4304 200.616 84.1027 200.943 84.8746C201.356 85.8511 201.572 86.8651 201.59 87.9164C201.58 88.1994 201.489 88.3776 201.315 88.451L198.54 89.7938C198.477 89.8205 198.418 89.79 198.362 89.7021C198.313 89.63 198.316 89.5728 198.373 89.5303C199.141 89.0192 199.778 88.3311 200.285 87.4662C200.792 86.6013 200.825 85.649 200.385 84.6094C200.031 83.7746 199.517 83.2401 198.841 83.0059C198.173 82.7875 197.469 82.8351 196.728 83.1487Z" fill="white"/>
        <path d="M210.201 117.859C210.321 117.859 210.381 118.038 210.382 118.397C210.384 118.739 210.324 118.911 210.205 118.911L187.496 118.995C187.428 118.995 187.376 118.944 187.342 118.842C187.307 118.739 187.29 118.619 187.289 118.483C187.289 118.329 187.305 118.2 187.339 118.097C187.373 117.995 187.424 117.943 187.492 117.943L210.201 117.859Z" fill="white"/>
    </g>
    <g clip-path="url(#clip0_1494_156023)">
        <path d="M135.841 119.091C135.842 119.495 135.738 119.894 135.539 120.247C135.341 120.6 135.054 120.895 134.708 121.105L113.227 134.245C112.865 134.467 112.45 134.588 112.026 134.596C111.601 134.604 111.182 134.498 110.812 134.29C110.446 134.085 110.14 133.786 109.927 133.424C109.715 133.062 109.602 132.65 109.602 132.23V105.951C109.602 105.531 109.715 105.119 109.927 104.757C110.14 104.395 110.446 104.096 110.812 103.891C111.182 103.683 111.601 103.577 112.026 103.585C112.45 103.593 112.865 103.714 113.227 103.936L134.708 117.076C135.054 117.286 135.341 117.581 135.539 117.934C135.738 118.287 135.842 118.686 135.841 119.091Z" fill="white"/>
    </g>
    <defs>
        <clipPath id="clip0_1494_156023">
            <rect width="38.1661" height="38.1669" fill="white" transform="translate(100.055 100.007)"/>
        </clipPath>
    </defs>
</svg>
