<svg width="144" height="144" fill="none" version="1.1" viewBox="0 0 144 144" xmlns="http://www.w3.org/2000/svg">
 <g fill="#fff">
  <path d="m45.818 8.7266c-1.2049 0-2.1815 0.97669-2.1816 2.1816v2.1816s1.6377 1e-4 2.1816 0c0.6965 1e-4 2.1816 0.001953 2.1816 0.001953v-2.1836c0-1.205-0.97664-2.1816-2.1816-2.1816zm2.1816 4.3652h-4.3633v4.3633 2.1816c0 1.2049 0.97674 2.1816 2.1816 2.1816 1.205 0 2.1816-0.97674 2.1816-2.1816v-2.1816-4.3633z"/>
  <path d="m54.546 8.7273c1.205 0 2.1818 0.97685 2.1818 2.1818 0 1.205-0.9768 2.1818-2.1818 2.1818s-2.1818-0.9768-2.1818-2.1818c0-1.205 0.9768-2.1818 2.1818-2.1818z"/>
  <path d="m76.363 8.7266c-1.2054 0-2.1816 0.97697-2.1816 2.1816 0 1.2046 0.97624 2.1836 2.1816 2.1836h2.1816v-2.1836-2.1816h-2.1816zm2.1836 0v4.3652 4.3633 4.3633 4.3633 4.3633 4.3652 4.3633 4.3633c2.41 0 4.3633-1.9533 4.3633-4.3633v-4.3633h4.3633v2.1816c-1e-6 1.2049 0.97664 2.1816 2.1816 2.1816 1.2049-1e-6 2.1816-0.97674 2.1816-2.1816v-2.1836-4.3633c2.41 0 4.3633-1.9533 4.3633-4.3633h2.1816c1.2049 0 2.1816-0.97674 2.1816-2.1816 0-1.205-0.97674-2.1816-2.1816-2.1816h-2.1816c-2.41 0-4.3633 1.9533-4.3633 4.3633-2.41 0-4.3633 1.9533-4.3633 4.3633h-4.3633v-4.3633h2.1816c1.2049 0 2.1816-0.97674 2.1816-2.1816-1e-6 -1.205-0.97674-2.1816-2.1816-2.1816h-2.1816v-4.3633h2.1816c1.2049 0 2.1816-0.97674 2.1816-2.1816-1e-6 -1.205-0.97674-2.1816-2.1816-2.1816h-2.1816c0-2.41-1.9533-4.3652-4.3633-4.3652zm15.271 4.3652c-1.2054 0-2.1816 0.97694-2.1816 2.1816 0 1.2045 0.97624 2.1816 2.1816 2.1816h2.1816 2.1816c1.2049 0 2.1816-0.97674 2.1816-2.1816 0-1.205-0.97674-2.1816-2.1816-2.1816h-2.1816-2.1816zm-17.455 4.3633c-1.2054 0-2.1816 0.97694-2.1816 2.1816 0 1.2046 0.97624 2.1816 2.1816 2.1816h2.1816v-2.1816-2.1816h-2.1816zm-4.3633 8.7266c-1.2054 0-2.1816 0.97694-2.1816 2.1816 0 1.2045 0.97624 2.1816 2.1816 2.1816h2.1816c0 2.41 1.9533 4.3652 4.3633 4.3652v-4.3652-4.3633h-4.3633-2.1816zm26.182 4.3633c-1.205 0-2.1815 0.97674-2.1816 2.1816v2.1816 2.1836c0 1.2049 0.97664 2.1816 2.1816 2.1816 1.2049-1e-6 2.1816-0.97674 2.1816-2.1816v-2.1816-0.001953-2.1816c0-1.205-0.97674-2.1816-2.1816-2.1816zm-21.818 8.7285c-1.2054 0-2.1816 0.97694-2.1816 2.1816 0 1.2046 0.97624 2.1816 2.1816 2.1816h2.1816v-2.1816-2.1816h-2.1816z"/>
  <path d="m89.455 8.7273c1.205 0 2.1818 0.97685 2.1818 2.1818 0 1.205-0.9768 2.1818-2.1818 2.1818s-2.1819-0.9768-2.1819-2.1818c0-1.205 0.9769-2.1818 2.1819-2.1818z"/>
  <path d="m63.273 13.092c-1.2049 0-2.1835 0.97674-2.1836 2.1816v2.1816 4.3633h-2.1797c-1.2054 0-2.1836 0.97694-2.1836 2.1816 0 1.2045 0.9782 2.1816 2.1836 2.1816h2.1797v4.3633 4.3652 4.3633c0 2.41 1.9551 4.3633 4.3652 4.3633v4.3633 4.3633h-4.3633-0.001953-4.3613-0.001954-4.3613v4.3633 4.3652 4.3633 2.1816c0 1.2049 0.97664 2.1816 2.1816 2.1816 1.2049 0 2.1816-0.97674 2.1816-2.1816v-2.1816c2.4091-0.001061 4.3633-1.9539 4.3633-4.3633v-4.3652h4.3633v4.3652 4.3633h-2.1816c-1.2054 0-2.1836 0.97694-2.1836 2.1816 0 1.2046 0.9782 2.1816 2.1836 2.1816h2.1816v2.1816c0 1.2049 0.97664 2.1816 2.1816 2.1816 1.2049 0 2.1816-0.97674 2.1816-2.1816v-2.1816h2.1816c1.2049 0 2.1816-0.97674 2.1816-2.1816 0-1.205-0.97674-2.1816-2.1816-2.1816h-2.1816v-4.3633-4.3652-4.3633-4.3633-4.3633c0-2.41-1.9534-4.3633-4.3633-4.3633v-4.3652-4.3633-4.3633-4.3633-4.3633-2.1816c0-1.205-0.97664-2.1816-2.1816-2.1816zm-13.092 26.182c-1.205 0-2.1815 0.97674-2.1816 2.1816v2.1816h-4.3633-4.3633-4.3633-4.3633v4.3633 4.3633 4.3633 4.3652 4.3633h4.3633 4.3633c2.41 0 4.3633-1.9533 4.3633-4.3633h-4.3633-4.3633v-4.3652h2.1816c1.2049 0 2.1816-0.97674 2.1816-2.1816-1e-6 -1.205-0.97674-2.1816-2.1816-2.1816h-2.1816v-4.3633h4.3633v2.1816c0 1.2049 0.97664 2.1816 2.1816 2.1816 1.2049 0 2.1816-0.97674 2.1816-2.1816v-2.1816h4.3633v4.3633 4.3633c0 2.41 1.9533 4.3652 4.3633 4.3652v-4.3652-4.3633-4.3633-4.3633-2.1816c0-1.205-0.97674-2.1816-2.1816-2.1816zm-6.5449 21.818v-2.1836c0-1.205-0.97664-2.1816-2.1816-2.1816-1.2049 1e-6 -2.1815 0.97664-2.1816 2.1816v2.1816s1.6376 1e-4 2.1816 0c0.6964 1e-4 2.1816 0.001953 2.1816 0.001953zm-19.637-17.455c-1.2054 0-2.1816 0.97694-2.1816 2.1816 0 1.2045 0.97624 2.1816 2.1816 2.1816h2.1816v4.3633h-2.1816c-1.2054 0-2.1816 0.97694-2.1816 2.1816 0 1.2045 0.97624 2.1816 2.1816 2.1816h2.1816 4.3633v-4.3633-4.3633-4.3633h-4.3633-2.1816zm-13.09 8.7266c-1.2049 0-2.1816 0.97674-2.1816 2.1816v2.1816c1e-5 2.4093 1.9522 4.3642 4.3613 4.3652v4.3633c0 2.41 1.9551 4.3633 4.3652 4.3633h4.3633c2.4099 0 4.3633-1.9533 4.3633-4.3633h4.3633v-4.3633h-4.3633c-2.4099 1e-4 -4.3633 1.9533-4.3633 4.3633h-4.3633v-4.3633c0-2.4093-1.9542-4.3642-4.3633-4.3652v-2.1816c0-1.205-0.97664-2.1816-2.1816-2.1816z"/>
  <path d="m45.818 26.182c1.2051 0 2.1819 0.9768 2.1819 2.1818s-0.9768 2.1818-2.1819 2.1818c-1.2049 0-2.1818-0.9768-2.1818-2.1818s0.9769-2.1818 2.1818-2.1818z"/>
  <path d="m50.182 30.545c-1.2054 0-2.1816 0.97694-2.1816 2.1816 0 1.2045 0.97624 2.1836 2.1816 2.1836h2.1816v-2.1836-2.1816h-2.1816zm2.1836 0v4.3633 0.001953 2.1816c0 1.2049 0.97664 2.1816 2.1816 2.1816 1.2049-1e-6 2.1816-0.97674 2.1816-2.1816v-2.1816-0.001953c-0.001061-2.4091-1.954-4.3633-4.3633-4.3633z"/>
  <path d="m45.818 34.909c1.2051 0 2.1819 0.9768 2.1819 2.1818s-0.9768 2.1818-2.1819 2.1818c-1.2049 0-2.1818-0.9768-2.1818-2.1818s0.9769-2.1818 2.1818-2.1818z"/>
  <path d="m72 34.909c1.205 0 2.1818 0.9768 2.1818 2.1818s-0.9768 2.1818-2.1818 2.1818-2.1818-0.9768-2.1818-2.1818 0.9768-2.1818 2.1818-2.1818z"/>
  <path d="m10.909 43.636c1.205 0 2.1818 0.9768 2.1818 2.1818s-0.9768 2.1818-2.1818 2.1818c-1.205 0-2.1819-0.9768-2.1819-2.1818s0.97684-2.1818 2.1819-2.1818z"/>
  <path d="m85.092 43.637c-1.2049 0-2.1816 0.97674-2.1816 2.1816v2.1816c-2.4099 0-4.3633 1.9533-4.3633 4.3633v4.3633 4.3652 4.3633 4.3633c0 2.41 1.9533 4.3633 4.3633 4.3633 2.4099 0 4.3633-1.9533 4.3633-4.3633 2.41 0 4.3633-1.9533 4.3633-4.3633v-4.3633c0-2.41-1.9533-4.3652-4.3633-4.3652h-4.3633v-4.3633h4.3633 4.3633 4.3633 2.1816c1.2049 0 2.1816-0.97674 2.1816-2.1816 0-1.205-0.97674-2.1816-2.1816-2.1816h-2.1816-4.3633-4.3633v-2.1816c-1e-6 -1.205-0.97664-2.1816-2.1816-2.1816zm-8.7285 8.7266c-1.2054 0-2.1816 0.97694-2.1816 2.1816 0 1.2045 0.97624 2.1816 2.1816 2.1816h2.1816v-2.1816-2.1816h-2.1816zm21.818 4.3633c-1.205 1e-6 -2.1815 0.97664-2.1816 2.1816v2.1816s1.6377 1e-4 2.1816 0c0.6965 1e-4 2.1816 0.001953 2.1816 0.001953v-2.1836c0-1.205-0.97674-2.1816-2.1816-2.1816zm2.1816 4.3652h-2.1816-2.1816v2.1816c0 1.2049 0.97664 2.1816 2.1816 2.1816 1.2049 0 2.1816-0.97674 2.1816-2.1816v-2.1816zm-24 0c-1.2054 0-2.1816 0.97694-2.1816 2.1816 0 1.2045 0.97624 2.1816 2.1816 2.1816h2.1816v-2.1816-2.1816h-2.1816zm6.5469 0h4.3633v4.3633h-4.3633v-4.3633z"/>
  <path d="m102.55 43.636c1.205 0 2.182 0.9768 2.182 2.1818s-0.977 2.1818-2.182 2.1818-2.182-0.9768-2.182-2.1818 0.977-2.1818 2.182-2.1818z"/>
  <path d="m115.64 43.637c-1.205 0-2.1816 0.97674-2.1816 2.1816v2.1816 4.3633c2.41 0 4.3633-1.9533 4.3633-4.3633v-2.1816c0-1.205-0.97664-2.1816-2.1816-2.1816zm10.908 0c-2.41 0-4.3633 1.9533-4.3633 4.3633v4.3633 2.1816c0 1.2049 0.97664 2.1816 2.1816 2.1816s2.1816-0.97674 2.1816-2.1816v-2.1816-4.3633-4.3633zm0.00196 0v4.3633 4.3633c2.41 0 4.3633-1.9533 4.3633-4.3633h2.1816c1.205 0 2.1816-0.97674 2.1816-2.1816 0-1.205-0.97664-2.1816-2.1816-2.1816h-2.1816-0.00196-4.3613zm-15.273 4.3633c-1.206 0-2.1816 0.97694-2.1816 2.1816 0 1.2046 0.97564 2.1816 2.1816 2.1816h2.1797v-2.1816-2.1816h-2.1797z"/>
  <path d="m19.637 48c1.205 0 2.1818 0.9768 2.1818 2.1818 0 1.2051-0.9768 2.1818-2.1818 2.1818s-2.1818-0.9767-2.1818-2.1818c0-1.205 0.9768-2.1818 2.1818-2.1818z"/>
  <path d="m106.91 52.363c-1.205 0-2.1797 0.97674-2.1797 2.1816v2.1816 4.3652 4.3633c0 2.41 1.9533 4.3633 4.3633 4.3633h4.3613v-4.3633-4.3633-4.3652h-4.3613v-2.1816c0-1.205-0.9786-2.1816-2.1836-2.1816zm6.5469 4.3633v4.3652h4.3633 2.1816c1.205 0 2.1816-0.9787 2.1816-2.1836 0-1.205-0.97664-2.1816-2.1816-2.1816h-2.1816-4.3633zm19.637 0c-1.205 1e-6 -2.1836 0.97664-2.1836 2.1816v2.1816s1.6396 1e-4 2.1836 0c0.696 1e-4 2.1816 0.001953 2.1816 0.001953v-2.1836c0-1.205-0.97664-2.1816-2.1816-2.1816zm2.1816 4.3652h-4.3652v4.3633h-4.3613v4.3633h4.3613v4.3633 2.1816c0 1.2049 0.9786 2.1816 2.1836 2.1816s2.1816-0.97674 2.1816-2.1816v-2.1816-4.3633-4.3633-4.3633zm-21.818 4.3633v4.3633h4.3633 4.3633v4.3633 2.1816c0 1.2049 0.97664 2.1816 2.1816 2.1816s2.1816-0.97674 2.1816-2.1816v-2.1816-4.3633-4.3633h-4.3633-4.3633-4.3633z"/>
  <path d="m45.818 65.455c1.2051 0 2.1819 0.9768 2.1819 2.1818s-0.9768 2.1818-2.1819 2.1818c-1.2049 0-2.1818-0.9768-2.1818-2.1818s0.9769-2.1818 2.1818-2.1818z"/>
  <path d="m28.363 69.818c-1.2049 0-2.1815 0.97674-2.1816 2.1816v2.1816c0 2.41 1.9533 4.3633 4.3633 4.3633v-4.3633-2.1816c0-1.205-0.97664-2.1816-2.1816-2.1816zm8.7285 0c-1.2054 0-2.1816 0.97694-2.1816 2.1816 0 1.2045 0.97624 2.1816 2.1816 2.1816h2.1816c0 2.41 1.9533 4.3633 4.3633 4.3633v2.1816c0 1.205 0.97674 2.1816 2.1816 2.1816 1.205 0 2.1816-0.97664 2.1816-2.1816v-2.1816c2.41 0 4.3633-1.9533 4.3633-4.3633v-2.1816c0-1.205-0.97674-2.1816-2.1816-2.1816-1.205 0-2.1815 0.97674-2.1816 2.1816v2.1816h-4.3633c0-2.41-1.9533-4.3633-4.3633-4.3633h-2.1816zm-6.5449 4.3633v4.3633c0 2.41 1.9533 4.3633 4.3633 4.3633h2.1816c1.2049 0 2.1816-0.97664 2.1816-2.1816-1e-6 -1.205-0.97674-2.1816-2.1816-2.1816h-2.1816c0-2.41-1.9533-4.3633-4.3633-4.3633z"/>
  <path d="m58.909 69.818c1.205 0 2.1818 0.9769 2.1818 2.1819s-0.9768 2.1818-2.1818 2.1818-2.1819-0.9768-2.1819-2.1818 0.9769-2.1819 2.1819-2.1819z"/>
  <path d="m96 69.818c-2.41 0-4.3633 1.9533-4.3633 4.3633h-2.1816c-1.2054 0-2.1816 0.97694-2.1816 2.1816 0 1.2045 0.97624 2.1816 2.1816 2.1816h2.1816v4.3633c-2.41 0-4.3633 1.9552-4.3633 4.3652h-2.1816c-1.2054-1e-6 -2.1816 0.97694-2.1816 2.1816 0 1.2046 0.97624 2.1816 2.1816 2.1816h2.1816v2.1816c-1e-6 1.2049 0.97664 2.1816 2.1816 2.1816 1.2049 0 2.1816-0.97674 2.1816-2.1816v-2.1816c2.41 0 4.3633-1.9533 4.3633-4.3633h4.3633c0 2.41 1.9552 4.3633 4.3652 4.3633h2.1797c1.205 0 2.1836-0.97674 2.1836-2.1816 0-1.205-0.9786-2.1816-2.1836-2.1816h-2.1797c0-2.41-1.9552-4.3652-4.3652-4.3652 0-2.41-1.9533-4.3633-4.3633-4.3633v-4.3633h4.3633c0 2.41 1.9552 4.3633 4.3652 4.3633h4.3633v2.1816c0 1.205 0.97664 2.1816 2.1816 2.1816s2.1797-0.97664 2.1797-2.1816v-2.1816c0-2.41-1.9513-4.3633-4.3613-4.3633h-4.3633c0-2.41-1.9552-4.3633-4.3652-4.3633h-4.3633z"/>
  <path d="m10.909 74.182c1.205 0 2.1818 0.9768 2.1818 2.1818s-0.9768 2.1818-2.1818 2.1818c-1.205 0-2.1819-0.9768-2.1819-2.1818s0.97684-2.1818 2.1819-2.1818z"/>
  <path d="m63.273 74.182c-1.2049 0-2.1835 0.97664-2.1836 2.1816v2.1816h-2.1797c-1.2054 0-2.1836 0.97694-2.1836 2.1816 0 1.2046 0.9782 2.1816 2.1836 2.1816h2.1797v4.3652 2.1816c0 1.2049 0.9787 2.1816 2.1836 2.1816 1.205 0 2.1816-0.97674 2.1816-2.1816v-2.1816h4.3633c2.4099 0 4.3633-1.9553 4.3633-4.3652v-2.1816c0-1.2049-0.97664-2.1816-2.1816-2.1816-1.2049 0-2.1816 0.97674-2.1816 2.1816v2.1816h-4.3633v-4.3633-2.1816c0-1.205-0.97664-2.1816-2.1816-2.1816z"/>
  <path d="m76.364 74.182c1.205 0 2.1818 0.9768 2.1818 2.1818s-0.9768 2.1818-2.1818 2.1818-2.1819-0.9768-2.1819-2.1818 0.9769-2.1818 2.1819-2.1818z"/>
  <path d="m17.455 78.545c-2.41 0-4.3652 1.9533-4.3652 4.3633-2.4091 0.001061-4.3613 1.9559-4.3613 4.3652v4.3633 4.3633c1e-5 2.4093 1.9522 4.3622 4.3613 4.3633h0.001953c2.4091-0.00106 4.3633-1.9539 4.3633-4.3633h2.1816c1.2049 0 2.1816-0.97674 2.1816-2.1816 0-1.205-0.97674-2.1816-2.1816-2.1816h-2.1816v-4.3633-4.3652h4.3633 2.1816c1.2049 0 2.1816-0.97664 2.1816-2.1816 0-1.205-0.97674-2.1816-2.1816-2.1816h-2.1816-4.3633z"/>
  <path d="m80.729 78.545c-1.205 0-2.1815 0.97674-2.1816 2.1816v2.1816 2.1836c0 1.2049 0.97664 2.1816 2.1816 2.1816 1.2049-1e-6 2.1816-0.97674 2.1816-2.1816v-2.1836-2.1816c0-1.2049-0.97674-2.1816-2.1816-2.1816z"/>
  <path d="m120 78.545c1.205 0 2.182 0.9769 2.182 2.1818 0 1.2051-0.977 2.1818-2.182 2.1818s-2.182-0.9767-2.182-2.1818c0-1.2049 0.977-2.1818 2.182-2.1818z"/>
  <path d="m41.455 82.909c1.205 0 2.1818 0.9768 2.1818 2.1818s-0.9768 2.1818-2.1818 2.1818-2.1819-0.9768-2.1819-2.1818 0.9769-2.1818 2.1819-2.1818z"/>
  <path d="m50.182 82.908c-1.205 0-2.1815 0.97674-2.1816 2.1816v2.1836c-2.41 0-4.3633 1.9533-4.3633 4.3633v2.1816c0 1.2049 0.97674 2.1816 2.1816 2.1816 1.205 0 2.1816-0.97674 2.1816-2.1816v-2.1816c2.41 0 4.3633-1.9533 4.3633-4.3633v-2.1816c0-1.205-0.97674-2.1836-2.1816-2.1836z"/>
  <path d="m115.64 82.909c1.205 0 2.182 0.9768 2.182 2.1818s-0.977 2.1818-2.182 2.1818-2.182-0.9768-2.182-2.1818 0.977-2.1818 2.182-2.1818z"/>
  <path d="m124.36 82.908c-1.205 0-2.1816 0.9789-2.1816 2.1836 0 1.2045 0.97664 2.1816 2.1816 2.1816h2.1816v-2.1816-2.1836h-2.1816zm2.1836 0v2.1836 2.1816h2.1816c1.205-1e-6 2.1816-0.97674 2.1816-2.1816 0-1.205-0.97665-2.1836-2.1816-2.1836h-2.1816z"/>
  <path d="m30.545 87.273c-2.41 0-4.3633 1.9533-4.3633 4.3633 0 2.4099 1.9533 4.3633 4.3633 4.3633v-4.3633-4.3633zm0.001953 0v4.3633 4.3633c2.41 0 4.3633-1.9534 4.3633-4.3633h2.1816c1.2049 0 2.1816-0.97674 2.1816-2.1816-1e-6 -1.205-0.97674-2.1816-2.1816-2.1816h-2.1816-4.3633z"/>
  <path d="m76.364 87.273c1.205 0 2.1818 0.9768 2.1818 2.1818 0 1.2051-0.9768 2.1818-2.1818 2.1818s-2.1819-0.9767-2.1819-2.1818c0-1.205 0.9769-2.1818 2.1819-2.1818z"/>
  <path d="m120 87.273c-1.205 0-2.1816 0.97674-2.1816 2.1816v2.1816 4.3633h-4.3633v4.3633 4.3633 4.3652 4.3633 4.3633h4.3633 2.1816c1.205 0 2.1816-0.97664 2.1816-2.1816s-0.97664-2.1816-2.1816-2.1816h-2.1816v-4.3633c2.41 0 4.3633-1.9552 4.3633-4.3652v-4.3633h4.3633v-4.3633c0-2.41-1.9533-4.3633-4.3633-4.3633v-2.1816c0-1.205-0.97664-2.1816-2.1816-2.1816zm-21.818 4.3633c-1.205 0-2.1815 0.97674-2.1816 2.1816v2.1816h-2.1816c-1.2054 0-2.1816 0.97694-2.1816 2.1816 0 1.2046 0.97624 2.1816 2.1816 2.1816h2.1816v4.3633c-2.41 0-4.3633 1.9552-4.3633 4.3652h-4.3633v-2.1836c-1e-6 -1.205-0.97664-2.1816-2.1816-2.1816-1.2049 0-2.1816 0.97664-2.1816 2.1816v2.1836c0 2.41 1.9533 4.3633 4.3633 4.3633h4.3633v4.3633h-4.3633-2.1816c-1.2054 0-2.1816 0.97664-2.1816 2.1816s0.97624 2.1816 2.1816 2.1816h2.1816 4.3633c2.41 0 4.3633-1.9533 4.3633-4.3633h4.3633v2.1816c0 1.205 0.9786 2.1816 2.1836 2.1816 1.205 0 2.1816-0.97664 2.1816-2.1816v-2.1816h4.3633 4.3613v-4.3633h-4.3613-4.3633-4.3652v-4.3633-4.3652-4.3633h4.3652 4.3633 4.3613v-4.3633-2.1816c1e-5 -1.205-0.97468-2.1816-2.1797-2.1816s-2.1816 0.97674-2.1816 2.1816v2.1816h-4.3633-4.3652v-2.1816c0-1.205-0.97674-2.1816-2.1816-2.1816zm28.365 4.3633v2.1816 2.1816h2.1816c1.205 0 2.1816-0.97674 2.1816-2.1816 0-1.205-0.97665-2.1816-2.1816-2.1816h-2.1816zm-19.639 8.7266c-1.205 0-2.1797 0.97664-2.1797 2.1816s0.97468 2.1836 2.1797 2.1836 2.1836-0.9786 2.1836-2.1836-0.9786-2.1816-2.1836-2.1816z"/>
  <path d="m133.09 87.273c1.205 0 2.182 0.9768 2.182 2.1818 0 1.2051-0.977 2.1818-2.182 2.1818s-2.182-0.9767-2.182-2.1818c0-1.205 0.977-2.1818 2.182-2.1818z"/>
  <path d="m54.546 91.636c1.205 0 2.1818 0.9768 2.1818 2.1818s-0.9768 2.1818-2.1818 2.1818-2.1818-0.9768-2.1818-2.1818 0.9768-2.1818 2.1818-2.1818z"/>
  <path d="m72 91.637c-1.2049 0-2.1816 0.97674-2.1816 2.1816v2.1816h-4.3633-2.1816c-1.2054 0-2.1836 0.97694-2.1836 2.1816 0 1.2046 0.9782 2.1816 2.1836 2.1816h2.1816 4.3633v4.3633 4.3652 4.3633h-4.3633-4.3633-0.001953-2.1797c-1.2054 0-2.1836 0.97764-2.1836 2.1816 0 1.205 0.9782 2.1816 2.1836 2.1816h2.1797v4.3633h-4.3613c0-2.41-1.9534-4.3633-4.3633-4.3633v4.3633 4.3652 4.3613 4.3652h4.3633 2.1816c1.2049 0 2.1816-0.97664 2.1816-2.1816s-0.97674-2.1836-2.1816-2.1836h-2.1816v-4.3613h4.3613 0.001953c2.4091-0.00107 4.3633-1.9559 4.3633-4.3652 2.4099 0 4.3633-1.9533 4.3633-4.3633 2.4099 0 4.3633-1.9533 4.3633-4.3633h2.1816c1.2049 0 2.1816-0.97664 2.1816-2.1816s-0.97674-2.1816-2.1816-2.1816h-2.1816v-4.3652-4.3633h4.3633v-4.3633h-4.3633v-2.1816c0-1.205-0.97664-2.1816-2.1816-2.1816zm-21.818 4.3633c-1.205 0-2.1815 0.97674-2.1816 2.1816v2.1816c-2.41 0-4.3633 1.9533-4.3633 4.3633v4.3652 4.3633 4.3633c0 2.41 1.9532 4.3633 4.3633 4.3633 0 2.41 1.9533 4.3652 4.3633 4.3652v-4.3652-4.3633-4.3633-4.3633-4.3652-4.3633-2.1816c0-1.205-0.97674-2.1816-2.1816-2.1816zm28.365 0v4.3633h4.3633 2.1816c1.2049 0 2.1816-0.97674 2.1816-2.1816-1e-6 -1.205-0.97674-2.1816-2.1816-2.1816h-2.1816-4.3633zm-19.637 8.7266c-1.2054 0-2.1836 0.97664-2.1836 2.1816s0.9782 2.1836 2.1836 2.1836h2.1816 2.1816c1.205 0 2.1816-0.9786 2.1816-2.1836s-0.97664-2.1816-2.1816-2.1816h-2.1816-0.001953-2.1797zm-13.092 26.182c-1.2054 0-2.1816 0.9786-2.1816 2.1836s0.97624 2.1816 2.1816 2.1816h2.1816 4.3633v-4.3652h-4.3633-2.1816z"/>
  <path d="m37.091 96c1.205 0 2.1818 0.9768 2.1818 2.1818 0 1.2051-0.9768 2.1822-2.1818 2.1822s-2.1818-0.9771-2.1818-2.1822c0-1.205 0.9768-2.1818 2.1818-2.1818z"/>
  <path d="m80.728 113.46c1.2051 0 2.1818 0.976 2.1818 2.181s-0.9767 2.182-2.1818 2.182c-1.205 0-2.1818-0.977-2.1818-2.182s0.9768-2.181 2.1818-2.181z"/>
  <path d="m128.73 117.82c-1.205 0-2.1816 0.97664-2.1816 2.1816v2.1816 4.3652h4.3613v2.1797c0 1.205 0.9786 2.1816 2.1836 2.1816s2.1816-0.97664 2.1816-2.1816v-2.1797c0-2.4094-1.9542-4.3642-4.3633-4.3652v-2.1816c0-1.205-0.97665-2.1816-2.1816-2.1816zm-15.275 4.3633c-2.409 0-4.3613 1.9552-4.3613 4.3652-2.41 0-4.3633 1.9513-4.3633 4.3613v2.1836c0 1.205 0.97468 2.1816 2.1797 2.1816s2.1836-0.97664 2.1836-2.1816v-2.1836h4.3613v-4.3613-4.3652zm0.00196 0v4.3652 4.3613h4.3633 4.3633c2.41 0 4.3633-1.9523 4.3633-4.3613v-4.3652c-2.41 0-4.3633 1.9552-4.3633 4.3652h-4.3633c0-2.41-1.9533-4.3652-4.3633-4.3652z"/>
  <path d="m76.363 122.18c-1.204 0-2.1816 0.97624-2.1816 2.1816v2.1816h2.1816 2.1816v-2.1816c0-1.2054-0.97664-2.1816-2.1816-2.1816zm2.1816 2.1816c0 1.2049 0.9786 2.1816 2.1836 2.1816 1.205 0 2.1816-0.97674 2.1816-2.1816v-2.1816h-2.1816-2.1836v2.1816z"/>
  <path d="m98.182 122.18c1.2051 0 2.1822 0.977 2.1822 2.182s-0.9771 2.182-2.1822 2.182c-1.205 0-2.1818-0.977-2.1818-2.182s0.9768-2.182 2.1818-2.182z"/>
  <path d="m72 126.55c1.205 0 2.1818 0.976 2.1818 2.181s-0.9768 2.182-2.1818 2.182-2.1818-0.977-2.1818-2.182 0.9768-2.181 2.1818-2.181z"/>
  <path d="m67.637 130.91c1.205 0 2.1818 0.977 2.1818 2.182s-0.9768 2.182-2.1818 2.182-2.1818-0.977-2.1818-2.182 0.9768-2.182 2.1818-2.182z"/>
  <path d="m98.182 130.91c1.2051 0 2.1822 0.977 2.1822 2.182s-0.9771 2.182-2.1822 2.182c-1.205 0-2.1818-0.977-2.1818-2.182s0.9768-2.182 2.1818-2.182z"/>
  <path d="m28.844 8.7295h-9.6884c-4.7218 0-8.722 3.1196-10.001 7.3834-0.13227 0.4411-0.23551 0.8944-0.30729 1.3578-0.07911 0.5113-0.12035 1.0349-0.12035 1.5679v9.9184c0 5.6873 4.6796 10.312 10.429 10.312l4.8442 1e-3 4.8442-0.0013c5.7486 0 10.428-4.6249 10.428-10.312v-9.9181c0-5.6845-4.6796-10.309-10.428-10.309zm5.8467 20.228c0 3.1596-2.6227 5.7303-5.8479 5.7303l-4.843 9e-4 -4.843-0.0012c-3.2253 0-5.8479-2.5707-5.8479-5.73v-9.9184c0-0.9869 0.2559-1.9161 0.7065-2.728 0.4337-0.7811 1.0474-1.4528 1.7863-1.9614 0.9499-0.6539 2.1067-1.0379 3.3536-1.0379h9.6887c3.224 0 5.8467 2.5692 5.8467 5.7273z"/>
  <path d="m124.84 8.7295h-9.688c-4.722 0-8.722 3.1196-10.001 7.3834-0.132 0.4411-0.235 0.8944-0.307 1.3578-0.079 0.5113-0.12 1.0349-0.12 1.5679v9.9184c0 5.6873 4.679 10.312 10.428 10.312l4.844 1e-3 4.844-0.0013c5.749 0 10.429-4.6249 10.429-10.312v-9.9181c0-5.6845-4.68-10.309-10.429-10.309zm5.847 20.228c0 3.1596-2.622 5.7303-5.848 5.7303l-4.843 9e-4 -4.843-0.0012c-3.225 0-5.848-2.5707-5.848-5.73v-9.9184c0-0.9869 0.256-1.9161 0.707-2.728 0.434-0.7811 1.047-1.4528 1.786-1.9614 0.95-0.6539 2.107-1.0379 3.354-1.0379h9.688c3.225 0 5.847 2.5692 5.847 5.7273z"/>
  <path d="m28.844 104.73h-9.6884c-4.7218 0-8.722 3.119-10.001 7.383-0.13227 0.441-0.23551 0.895-0.30729 1.358-0.07911 0.511-0.12035 1.035-0.12035 1.568v9.918c0 5.687 4.6796 10.312 10.429 10.312l4.8442 1e-3 4.8442-1e-3c5.7486 0 10.428-4.625 10.428-10.312v-9.918c0-5.685-4.6796-10.309-10.428-10.309zm5.8467 20.227c0 3.16-2.6227 5.731-5.8479 5.731h-4.843l-4.843-1e-3c-3.2253 0-5.8479-2.57-5.8479-5.73v-9.918c0-0.987 0.2559-1.916 0.7065-2.728 0.4337-0.781 1.0474-1.453 1.7863-1.962 0.9499-0.653 2.1067-1.037 3.3536-1.037h9.6887c3.224 0 5.8467 2.569 5.8467 5.727z"/>
  <path d="m30.546 17.455h-13.091v13.091h13.091z"/>
  <path d="m126.55 17.455h-13.091v13.091h13.091z"/>
  <path d="m30.546 113.46h-13.091v13.09h13.091z"/>
 </g>
</svg>
