<svg width="343" height="342" viewBox="0 0 343 342" fill="none" xmlns="http://www.w3.org/2000/svg" preserveAspectRatio="none">
<g clip-path="url(#clip0_1536_35560)">
<g filter="url(#filter0_f_1536_35560)">
<path d="M-549.837 348.427C-743.608 348.427 -709.81 448.404 -299.838 464.218C110.135 480.033 407.213 463.077 617.637 464.218C880.666 465.645 1166.31 388.292 830.171 355.76C420.199 316.081 -37.3723 348.427 -549.837 348.427Z" fill="#088859"/>
</g>
<g filter="url(#filter1_f_1536_35560)">
<path d="M255.12 -65.7196C237.943 -65.7196 240.939 57.2151 277.282 76.661C313.624 96.1068 339.959 75.2575 358.612 76.6611C381.929 78.4155 407.25 -16.7 377.452 -56.7031C341.11 -105.493 300.548 -65.7196 255.12 -65.7196Z" fill="#088859"/>
</g>
<g filter="url(#filter2_b_1536_35560)">
<rect width="343" height="342" fill="black" fill-opacity="0.1"/>
</g>
<rect opacity="0.5" width="343" height="342" fill="#22322F"/>
</g>
<defs>
<filter id="filter0_f_1536_35560" x="-814" y="186" width="1947" height="435" filterUnits="userSpaceOnUse" color-interpolation-filters="sRGB">
<feFlood flood-opacity="0" result="BackgroundImageFix"/>
<feBlend mode="normal" in="SourceGraphic" in2="BackgroundImageFix" result="shape"/>
<feGaussianBlur stdDeviation="75" result="effect1_foregroundBlur_1536_35560"/>
</filter>
<filter id="filter1_f_1536_35560" x="95" y="-231" width="446" height="466" filterUnits="userSpaceOnUse" color-interpolation-filters="sRGB">
<feFlood flood-opacity="0" result="BackgroundImageFix"/>
<feBlend mode="normal" in="SourceGraphic" in2="BackgroundImageFix" result="shape"/>
<feGaussianBlur stdDeviation="75" result="effect1_foregroundBlur_1536_35560"/>
</filter>
<filter id="filter2_b_1536_35560" x="-80" y="-80" width="503" height="502" filterUnits="userSpaceOnUse" color-interpolation-filters="sRGB">
<feFlood flood-opacity="0" result="BackgroundImageFix"/>
<feGaussianBlur in="BackgroundImageFix" stdDeviation="40"/>
<feComposite in2="SourceAlpha" operator="in" result="effect1_backgroundBlur_1536_35560"/>
<feBlend mode="normal" in="SourceGraphic" in2="effect1_backgroundBlur_1536_35560" result="shape"/>
</filter>
<clipPath id="clip0_1536_35560">
<rect width="343" height="342" fill="white"/>
</clipPath>
</defs>
</svg>
