<svg width="1180" height="316" viewBox="0 0 1180 316" fill="none" xmlns="http://www.w3.org/2000/svg" preserveAspectRatio="none">
<g clip-path="url(#clip0_1536_36439)">
<g filter="url(#filter0_f_1536_36439)">
<path d="M338.38 844.109C186.146 963.993 274.554 1021.63 606.427 780.408C938.301 539.188 1161.21 342.068 1327.23 212.779C1534.76 51.1668 1711.31 -186.328 1427.1 -3.92302C1080.47 218.548 740.991 527.054 338.38 844.109Z" fill="#088859"/>
</g>
<g filter="url(#filter1_f_1536_36439)">
<path d="M218.736 -36.0514C170.015 -25.3457 194.883 47.2884 300.556 36.4223C406.228 25.5563 478.149 -3.49231 531.245 -14.2675C597.614 -27.7364 656.771 -101.16 566.925 -106.832C457.345 -113.749 347.59 -64.3648 218.736 -36.0514Z" fill="#088859"/>
</g>
</g>
<defs>
<filter id="filter0_f_1536_36439" x="116.242" y="-219.772" width="1608.88" height="1317.45" filterUnits="userSpaceOnUse" color-interpolation-filters="sRGB">
<feFlood flood-opacity="0" result="BackgroundImageFix"/>
<feBlend mode="normal" in="SourceGraphic" in2="BackgroundImageFix" result="shape"/>
<feGaussianBlur stdDeviation="75" result="effect1_foregroundBlur_1536_36439"/>
</filter>
<filter id="filter1_f_1536_36439" x="44.7969" y="-257.488" width="717.852" height="445.015" filterUnits="userSpaceOnUse" color-interpolation-filters="sRGB">
<feFlood flood-opacity="0" result="BackgroundImageFix"/>
<feBlend mode="normal" in="SourceGraphic" in2="BackgroundImageFix" result="shape"/>
<feGaussianBlur stdDeviation="75" result="effect1_foregroundBlur_1536_36439"/>
</filter>
<clipPath id="clip0_1536_36439">
<rect width="1180" height="316" fill="white"/>
</clipPath>
</defs>
</svg>
