<svg width="28" height="31" viewBox="0 0 28 31" fill="none" xmlns="http://www.w3.org/2000/svg">
<path d="M8.17447 0.533269C8.65358 0.709944 9.06705 1.0292 9.35918 1.44803C9.65132 1.86686 9.80809 2.36516 9.80838 2.87581V27.662C9.80855 28.1731 9.65199 28.6719 9.35983 29.0912C9.06766 29.5104 8.65394 29.83 8.17447 30.0068C6.31648 30.6913 4.27541 30.6913 2.41742 30.0068C1.93752 29.8304 1.52332 29.511 1.23073 29.0917C0.938137 28.6723 0.781251 28.1734 0.78125 27.662L0.78125 2.87581C0.781542 2.36516 0.938312 1.86686 1.23045 1.44803C1.52258 1.0292 1.93605 0.709944 2.41516 0.533269C4.27383 -0.151715 6.3158 -0.151715 8.17447 0.533269Z" fill="white"/>
<path d="M26.2292 0.533269C26.7083 0.709944 27.1217 1.0292 27.4139 1.44803C27.706 1.86686 27.8628 2.36516 27.8631 2.87581V27.662C27.8632 28.1731 27.7067 28.6719 27.4145 29.0912C27.1224 29.5104 26.7086 29.83 26.2292 30.0068C24.3712 30.6913 22.3301 30.6913 20.4721 30.0068C19.9922 29.8304 19.578 29.511 19.2854 29.0917C18.9928 28.6723 18.8359 28.1734 18.8359 27.662V2.87581C18.8362 2.36516 18.993 1.86686 19.2851 1.44803C19.5773 1.0292 19.9907 0.709944 20.4698 0.533269C22.3285 -0.151715 24.3705 -0.151715 26.2292 0.533269Z" fill="white"/>
</svg>
