<svg width="24" height="24" viewBox="0 0 24 24" fill="none" xmlns="http://www.w3.org/2000/svg">
<path d="M11.0312 4.71896C11.1009 4.78861 11.1563 4.87133 11.194 4.96238C11.2318 5.05343 11.2512 5.15102 11.2512 5.24958C11.2512 5.34815 11.2318 5.44574 11.194 5.53679C11.1563 5.62784 11.1009 5.71055 11.0312 5.78021L5.5609 11.2496L20.2506 11.2496C20.4495 11.2496 20.6403 11.3286 20.7809 11.4693C20.9216 11.6099 21.0006 11.8007 21.0006 11.9996C21.0006 12.1985 20.9216 12.3893 20.7809 12.5299C20.6403 12.6706 20.4495 12.7496 20.2506 12.7496L5.5609 12.7496L11.0312 18.219C11.1719 18.3597 11.251 18.5506 11.251 18.7496C11.251 18.9486 11.1719 19.1395 11.0312 19.2802C10.8905 19.4209 10.6996 19.5 10.5006 19.5C10.3016 19.5 10.1107 19.4209 9.96997 19.2802L3.21996 12.5302C3.15023 12.4606 3.09491 12.3778 3.05717 12.2868C3.01943 12.1957 3 12.0981 3 11.9996C3 11.901 3.01943 11.8034 3.05717 11.7124C3.09491 11.6213 3.15023 11.5386 3.21996 11.469L9.96996 4.71896C10.0396 4.64923 10.1223 4.59391 10.2134 4.55616C10.3044 4.51842 10.402 4.49899 10.5006 4.49899C10.5992 4.49899 10.6967 4.51842 10.7878 4.55616C10.8788 4.59391 10.9616 4.64923 11.0312 4.71896Z" fill="#466765"/>
</svg>
