<svg width="48" height="48" viewBox="0 0 48 48" fill="none" xmlns="http://www.w3.org/2000/svg">
<path d="M11.0825 22.2402C1.7225 22.9002 1.7225 36.5202 11.0825 37.1802H14.9226" stroke="#FFCA0A" stroke-width="3" stroke-miterlimit="10" stroke-linecap="round" stroke-linejoin="round"/>
<path d="M11.184 22.2393C4.76397 4.3793 31.8439 -2.76068 34.9439 15.9993C43.6039 17.0993 47.104 28.6393 40.544 34.3793C38.544 36.1993 35.9639 37.1993 33.2639 37.1793H33.0839" stroke="#FFCA0A" stroke-width="3" stroke-miterlimit="10" stroke-linecap="round" stroke-linejoin="round"/>
<path d="M34 33.0605C34 34.5405 33.68 35.9405 33.08 37.1805C32.92 37.5405 32.74 37.8806 32.54 38.2006C30.82 41.1006 27.64 43.0605 24 43.0605C20.36 43.0605 17.18 41.1006 15.46 38.2006C15.26 37.8806 15.08 37.5405 14.92 37.1805C14.32 35.9405 14 34.5405 14 33.0605C14 27.5405 18.48 23.0605 24 23.0605C29.52 23.0605 34 27.5405 34 33.0605Z" stroke="#FFCA0A" stroke-width="3" stroke-miterlimit="10" stroke-linecap="round" stroke-linejoin="round"/>
<path d="M20.8828 33.0596L22.8628 35.0396L27.1228 31.0996" stroke="#FFCA0A" stroke-width="3" stroke-linecap="round" stroke-linejoin="round"/>
</svg>
