<svg width="48" height="48" viewBox="0 0 48 48" fill="none" xmlns="http://www.w3.org/2000/svg">
<path d="M18.4009 29.5609L23.5609 34.0809C23.8009 34.3009 24.1809 34.3009 24.4209 34.0809L29.5809 29.5609C30.9209 28.3809 31.1009 26.3809 29.9809 24.9809C28.8609 23.5809 26.8209 23.3209 25.4009 24.4009L24.0009 25.4809L22.5809 24.4209C21.1409 23.3409 19.1209 23.6009 18.0009 25.0009C16.8809 26.3809 17.0609 28.4009 18.4009 29.5609Z" stroke="#FFCA0A" stroke-width="3" stroke-linecap="round" stroke-linejoin="round"/>
<path d="M44 22V34C44 42 42 44 34 44H14C6 44 4 42 4 34V14C4 6 6 4 14 4H17C20 4 20.66 4.88 21.8 6.4L24.8 10.4C25.56 11.4 26 12 28 12H34C42 12 44 14 44 22Z" stroke="#FFCA0A" stroke-width="3" stroke-miterlimit="10"/>
</svg>
