<svg width="48" height="48" viewBox="0 0 48 48" fill="none" xmlns="http://www.w3.org/2000/svg">
<rect width="48" height="48" rx="16" fill="#333333"/>
<g clip-path="url(#clip0_3078_140294)">
<path d="M24.0027 31.1636L29.7924 34.8658C29.9427 34.9606 30.1165 35.007 30.2921 34.9991C30.4677 34.9912 30.637 34.9294 30.7788 34.8214C30.9206 34.7134 31.0284 34.5642 31.0886 34.3925C31.1488 34.2208 31.1588 34.0345 31.1171 33.8569L29.5427 26.9486L34.6955 22.3277C34.8269 22.2078 34.9216 22.0504 34.9679 21.8751C35.0143 21.6999 35.0103 21.5143 34.9564 21.3413C34.9025 21.1684 34.8011 21.0156 34.6646 20.902C34.5282 20.7883 34.3627 20.7186 34.1887 20.7016L27.4266 20.1295L24.8217 13.5722C24.7553 13.403 24.6419 13.2582 24.4961 13.1563C24.3502 13.0544 24.1785 13 24.0027 13C23.827 13 23.6553 13.0544 23.5094 13.1563C23.3636 13.2582 23.2502 13.403 23.1838 13.5722L20.5789 20.1295L13.8168 20.7016C13.6416 20.7176 13.4747 20.7869 13.3372 20.901C13.1996 21.015 13.0974 21.1687 13.0433 21.3427C12.9893 21.5168 12.9857 21.7036 13.0331 21.8798C13.0806 22.0559 13.1769 22.2136 13.31 22.3332L18.4628 26.9541L16.8884 33.8569C16.8467 34.0345 16.8567 34.2208 16.9169 34.3925C16.9771 34.5642 17.0849 34.7134 17.2267 34.8214C17.3685 34.9294 17.5378 34.9912 17.7134 34.9991C17.889 35.007 18.0628 34.9606 18.2131 34.8658L24.0027 31.1636Z" fill="#FFCA0A"/>
</g>
<defs>
<clipPath id="clip0_3078_140294">
<rect width="24" height="24" fill="white" transform="translate(12 12)"/>
</clipPath>
</defs>
</svg>
