<svg width="42" height="42" viewBox="0 0 42 42" fill="none" xmlns="http://www.w3.org/2000/svg">
<path d="M12.1964 14.0536C11.9501 13.8073 11.8118 13.4733 11.8118 13.125C11.8118 12.7767 11.9501 12.4427 12.1964 12.1964C12.4427 11.9501 12.7767 11.8118 13.125 11.8118C13.4733 11.8118 13.8073 11.9501 14.0536 12.1964L19.6875 17.832V3.9375C19.6875 3.5894 19.8258 3.25556 20.0719 3.00942C20.3181 2.76328 20.6519 2.625 21 2.625C21.3481 2.625 21.6819 2.76328 21.9281 3.00942C22.1742 3.25556 22.3125 3.5894 22.3125 3.9375V17.832L27.9464 12.1964C28.1927 11.9501 28.5267 11.8118 28.875 11.8118C29.2233 11.8118 29.5573 11.9501 29.8036 12.1964C30.0499 12.4427 30.1882 12.7767 30.1882 13.125C30.1882 13.4733 30.0499 13.8073 29.8036 14.0536L21.9286 21.9286C21.8067 22.0506 21.6619 22.1474 21.5026 22.2135C21.3433 22.2795 21.1725 22.3135 21 22.3135C20.8275 22.3135 20.6567 22.2795 20.4974 22.2135C20.3381 22.1474 20.1933 22.0506 20.0714 21.9286L12.1964 14.0536ZM39.375 22.3125V32.8125C39.375 33.5087 39.0984 34.1764 38.6062 34.6687C38.1139 35.1609 37.4462 35.4375 36.75 35.4375H5.25C4.55381 35.4375 3.88613 35.1609 3.39384 34.6687C2.90156 34.1764 2.625 33.5087 2.625 32.8125V22.3125C2.625 21.6163 2.90156 20.9486 3.39384 20.4563C3.88613 19.9641 4.55381 19.6875 5.25 19.6875H13.8469C13.9331 19.6874 14.0185 19.7043 14.0981 19.7373C14.1778 19.7702 14.2502 19.8185 14.3112 19.8795L18.2109 23.7891C18.5767 24.1561 19.0114 24.4474 19.49 24.6461C19.9686 24.8449 20.4818 24.9472 21 24.9472C21.5182 24.9472 22.0314 24.8449 22.51 24.6461C22.9886 24.4474 23.4233 24.1561 23.7891 23.7891L27.6938 19.8844C27.8149 19.7607 27.98 19.69 28.1531 19.6875H36.75C37.4462 19.6875 38.1139 19.9641 38.6062 20.4563C39.0984 20.9486 39.375 21.6163 39.375 22.3125ZM32.8125 27.5625C32.8125 27.1731 32.697 26.7925 32.4807 26.4687C32.2644 26.145 31.9569 25.8926 31.5972 25.7436C31.2374 25.5946 30.8416 25.5556 30.4597 25.6316C30.0778 25.7075 29.727 25.8951 29.4516 26.1704C29.1763 26.4457 28.9888 26.7965 28.9128 27.1784C28.8369 27.5603 28.8759 27.9562 29.0249 28.3159C29.1739 28.6756 29.4262 28.9831 29.75 29.1995C30.0737 29.4158 30.4544 29.5312 30.8438 29.5312C31.3659 29.5312 31.8667 29.3238 32.2359 28.9546C32.6051 28.5854 32.8125 28.0846 32.8125 27.5625Z" fill="#FFCA0A"/>
</svg>
