<svg width="32" height="32" viewBox="0 0 32 32" fill="none" xmlns="http://www.w3.org/2000/svg">
<path d="M29.4056 10.5471L25.8981 13.5071L26.9681 17.9309C27.0457 18.2511 27.0267 18.5872 26.9134 18.8967C26.8002 19.2061 26.5978 19.4751 26.3318 19.6696C26.0627 19.8674 25.741 19.9811 25.4074 19.9965C25.0737 20.0118 24.743 19.9281 24.4568 19.7559L20.5006 17.3746L16.5443 19.7571C16.2583 19.9298 15.9275 20.0138 15.5937 19.9985C15.26 19.9831 14.9383 19.8691 14.6693 19.6709C14.4028 19.4767 14.2 19.2079 14.0865 18.8983C13.973 18.5888 13.954 18.2525 14.0318 17.9321L15.1018 13.5084L11.5956 10.5471C11.3416 10.3325 11.1574 10.0471 11.0663 9.72735C10.9752 9.40759 10.9815 9.06795 11.0842 8.75174C11.1869 8.43553 11.3815 8.15707 11.6431 7.95188C11.9047 7.74669 12.2215 7.62406 12.5531 7.59963L17.1706 7.23463L18.9468 3.02713C19.0766 2.72244 19.293 2.46262 19.5693 2.27999C19.8455 2.09737 20.1694 2 20.5006 2C20.8317 2 21.1556 2.09737 21.4318 2.27999C21.7081 2.46262 21.9246 2.72244 22.0543 3.02713L23.8306 7.23463L28.4481 7.59963C28.7796 7.62406 29.0964 7.74669 29.358 7.95188C29.6196 8.15707 29.8142 8.43553 29.9169 8.75174C30.0197 9.06795 30.0259 9.40759 29.9348 9.72735C29.8437 10.0471 29.6595 10.3325 29.4056 10.5471ZM11.0143 13.9859C10.9214 13.8929 10.8111 13.8191 10.6897 13.7688C10.5683 13.7185 10.4382 13.6926 10.3068 13.6926C10.1754 13.6926 10.0453 13.7185 9.92387 13.7688C9.80247 13.8191 9.69218 13.8929 9.59931 13.9859L2.29306 21.2921C2.10542 21.4798 2 21.7343 2 21.9996C2 22.265 2.10542 22.5195 2.29306 22.7071C2.4807 22.8948 2.73519 23.0002 3.00056 23.0002C3.26592 23.0002 3.52042 22.8948 3.70806 22.7071L11.0143 15.4009C11.1073 15.308 11.181 15.1977 11.2314 15.0763C11.2817 14.9549 11.3076 14.8248 11.3076 14.6934C11.3076 14.562 11.2817 14.4318 11.2314 14.3104C11.181 14.189 11.1073 14.0788 11.0143 13.9859ZM10.9518 21.6346L4.29306 28.2921C4.20015 28.385 4.12645 28.4953 4.07616 28.6167C4.02588 28.7381 4 28.8682 4 28.9996C4 29.131 4.02588 29.2611 4.07616 29.3825C4.12645 29.5039 4.20015 29.6142 4.29306 29.7071C4.4807 29.8948 4.73519 30.0002 5.00056 30.0002C5.13195 30.0002 5.26206 29.9743 5.38345 29.924C5.50485 29.8737 5.61515 29.8 5.70806 29.7071L12.3656 23.0484C12.5452 22.8593 12.6438 22.6076 12.6405 22.3468C12.6372 22.086 12.5321 21.8369 12.3477 21.6525C12.1633 21.4681 11.9141 21.363 11.6534 21.3597C11.3926 21.3564 11.1409 21.455 10.9518 21.6346ZM20.0768 21.5096L13.2906 28.2946C13.1976 28.3875 13.1239 28.4978 13.0737 28.6192C13.0234 28.7406 12.9975 28.8707 12.9975 29.0021C12.9975 29.1335 13.0234 29.2636 13.0737 29.385C13.1239 29.5064 13.1976 29.6167 13.2906 29.7096C13.4782 29.8973 13.7327 30.0027 13.9981 30.0027C14.1295 30.0027 14.2596 29.9768 14.381 29.9265C14.5023 29.8762 14.6126 29.8025 14.7056 29.7096L21.4906 22.9246C21.6782 22.7372 21.7837 22.4828 21.7838 22.2176C21.7839 21.9523 21.6787 21.6979 21.4912 21.5103C21.3037 21.3226 21.0494 21.2171 20.7841 21.217C20.5189 21.2169 20.2644 21.3222 20.0768 21.5096Z" fill="#FFCA0A"/>
</svg>
