<svg width="240" height="240" viewBox="0 0 240 240" fill="none" xmlns="http://www.w3.org/2000/svg">
<g opacity="0.08">
<path d="M220.05 116.5H162.05C146.75 116.5 136.25 104.9 136.25 90.7001V58.4998C136.25 44.2998 146.75 32.7002 162.05 32.7002H194.25C208.45 32.7002 220.05 44.2998 220.05 58.4998V116.5Z" stroke="#FFCA0A" stroke-width="15" stroke-linecap="round" stroke-linejoin="round"/>
<path d="M220.066 116.499C220.066 176.999 208.766 186.998 174.766 207.198" stroke="#FFCA0A" stroke-width="15" stroke-linecap="round" stroke-linejoin="round"/>
<path d="M103.722 116.5H45.7219C30.4219 116.5 19.9219 104.9 19.9219 90.7001V58.4998C19.9219 44.2998 30.4219 32.7002 45.7219 32.7002H78.0219C92.2219 32.7002 103.822 44.2998 103.822 58.4998V116.5" stroke="#FFCA0A" stroke-width="15" stroke-linecap="round" stroke-linejoin="round"/>
<path d="M103.737 116.499C103.737 176.999 92.4375 186.998 58.4375 207.198" stroke="#FFCA0A" stroke-width="15" stroke-linecap="round" stroke-linejoin="round"/>
</g>
</svg>
