<svg width="48" height="48" viewBox="0 0 48 48" fill="none" xmlns="http://www.w3.org/2000/svg">
<path d="M34.315 47.2969H14.0318C12.1935 47.2969 10.7031 45.8065 10.7031 43.9682V4.03181C10.7031 2.19347 12.1935 0.703125 14.0318 0.703125H34.3149C36.1532 0.703125 37.6436 2.19347 37.6436 4.03181V43.9682C37.6436 45.8065 36.1533 47.2969 34.315 47.2969Z" fill="white"/>
<path d="M34.3142 0.703125H30.7578C32.5962 0.703125 34.0865 2.19337 34.0865 4.03181V43.9682C34.0865 45.8065 32.5963 47.2969 30.7578 47.2969H34.3142C36.1526 47.2969 37.6429 45.8065 37.6429 43.9682V4.03181C37.6428 2.19337 36.1526 0.703125 34.3142 0.703125Z" fill="#E5EDFC"/>
<path d="M17.3735 14.2016H14.8438C14.4813 14.2016 14.1875 13.9078 14.1875 13.5454V11.0156C14.1875 10.6532 14.4813 10.3594 14.8438 10.3594H17.3735C17.7359 10.3594 18.0297 10.6532 18.0297 11.0156V13.5454C18.0297 13.9078 17.7359 14.2016 17.3735 14.2016Z" fill="#28C1FD"/>
<path d="M25.436 14.2016H22.9062C22.5438 14.2016 22.25 13.9078 22.25 13.5454V11.0156C22.25 10.6532 22.5438 10.3594 22.9062 10.3594H25.436C25.7984 10.3594 26.0923 10.6532 26.0923 11.0156V13.5454C26.0923 13.9078 25.7984 14.2016 25.436 14.2016Z" fill="#FEB237"/>
<path d="M33.4985 14.2016H30.9688C30.6063 14.2016 30.3125 13.9078 30.3125 13.5454V11.0156C30.3125 10.6532 30.6063 10.3594 30.9688 10.3594H33.4985C33.8609 10.3594 34.1547 10.6532 34.1547 11.0156V13.5454C34.1547 13.9078 33.8608 14.2016 33.4985 14.2016Z" fill="#8FD674"/>
<path d="M17.3735 22.268H14.8438C14.4813 22.268 14.1875 21.9742 14.1875 21.6118V19.082C14.1875 18.7196 14.4813 18.4258 14.8438 18.4258H17.3735C17.7359 18.4258 18.0297 18.7196 18.0297 19.082V21.6118C18.0297 21.9742 17.7359 22.268 17.3735 22.268Z" fill="#FEB237"/>
<path d="M25.436 22.268H22.9062C22.5438 22.268 22.25 21.9742 22.25 21.6118V19.082C22.25 18.7196 22.5438 18.4258 22.9062 18.4258H25.436C25.7984 18.4258 26.0923 18.7196 26.0923 19.082V21.6118C26.0923 21.9742 25.7984 22.268 25.436 22.268Z" fill="#8FD674"/>
<path d="M33.4985 22.268H30.9688C30.6063 22.268 30.3125 21.9742 30.3125 21.6118V19.082C30.3125 18.7196 30.6063 18.4258 30.9688 18.4258H33.4985C33.8609 18.4258 34.1547 18.7196 34.1547 19.082V21.6118C34.1547 21.9742 33.8608 22.268 33.4985 22.268Z" fill="#FB2B3A"/>
<path d="M17.3735 30.3344H14.8438C14.4813 30.3344 14.1875 30.0406 14.1875 29.6782V27.1484C14.1875 26.786 14.4813 26.4922 14.8438 26.4922H17.3735C17.7359 26.4922 18.0297 26.786 18.0297 27.1484V29.6782C18.0297 30.0406 17.7359 30.3344 17.3735 30.3344Z" fill="#28C1FD"/>
<path d="M25.436 30.3344H22.9062C22.5438 30.3344 22.25 30.0406 22.25 29.6782V27.1484C22.25 26.786 22.5438 26.4922 22.9062 26.4922H25.436C25.7984 26.4922 26.0923 26.786 26.0923 27.1484V29.6782C26.0923 30.0406 25.7984 30.3344 25.436 30.3344Z" fill="#FB2B3A"/>
<path d="M33.4985 30.3344H30.9688C30.6063 30.3344 30.3125 30.0406 30.3125 29.6782V27.1484C30.3125 26.786 30.6063 26.4922 30.9688 26.4922H33.4985C33.8609 26.4922 34.1547 26.786 34.1547 27.1484V29.6782C34.1547 30.0406 33.8608 30.3344 33.4985 30.3344Z" fill="#FEB237"/>
<path d="M17.3735 38.399H14.8438C14.4813 38.399 14.1875 38.1052 14.1875 37.7427V35.2129C14.1875 34.8505 14.4813 34.5566 14.8438 34.5566H17.3735C17.7359 34.5566 18.0297 34.8505 18.0297 35.2129V37.7426C18.0297 38.1051 17.7359 38.399 17.3735 38.399Z" fill="#FB2B3A"/>
<path d="M25.436 38.399H22.9062C22.5438 38.399 22.25 38.1052 22.25 37.7427V35.2129C22.25 34.8505 22.5438 34.5566 22.9062 34.5566H25.436C25.7984 34.5566 26.0923 34.8505 26.0923 35.2129V37.7426C26.0923 38.1051 25.7984 38.399 25.436 38.399Z" fill="#8FD674"/>
<path d="M33.4985 38.399H30.9688C30.6063 38.399 30.3125 38.1052 30.3125 37.7427V35.2129C30.3125 34.8505 30.6063 34.5566 30.9688 34.5566H33.4985C33.8609 34.5566 34.1547 34.8505 34.1547 35.2129V37.7426C34.1547 38.1051 33.8608 38.399 33.4985 38.399Z" fill="#28C1FD"/>
<path d="M18.0297 43.5469H14.1875C13.7991 43.5469 13.4844 43.2322 13.4844 42.8438C13.4844 42.4553 13.7991 42.1406 14.1875 42.1406H18.0297C18.4182 42.1406 18.7329 42.4553 18.7329 42.8438C18.7329 43.2322 18.4181 43.5469 18.0297 43.5469Z" fill="#564E57"/>
<path d="M26.0923 43.5469H22.25C21.8616 43.5469 21.5469 43.2322 21.5469 42.8438C21.5469 42.4553 21.8616 42.1406 22.25 42.1406H26.0923C26.4807 42.1406 26.7954 42.4553 26.7954 42.8438C26.7954 43.2322 26.4807 43.5469 26.0923 43.5469Z" fill="#564E57"/>
<path d="M34.1547 43.5469H30.3125C29.9241 43.5469 29.6094 43.2322 29.6094 42.8438C29.6094 42.4553 29.9241 42.1406 30.3125 42.1406H34.1547C34.5432 42.1406 34.8579 42.4553 34.8579 42.8438C34.8579 43.2322 34.5431 43.5469 34.1547 43.5469Z" fill="#564E57"/>
<path d="M34.315 48H14.0318C11.8086 48 10 46.1914 10 43.9682V4.03181C10 1.80862 11.8086 0 14.0318 0H34.315C36.5382 0 38.3468 1.80862 38.3468 4.03181V43.9682C38.3468 46.1914 36.5382 48 34.315 48ZM14.0318 1.40625C12.5841 1.40625 11.4062 2.58403 11.4062 4.03181V43.9682C11.4062 45.4159 12.584 46.5938 14.0318 46.5938H34.315C35.7627 46.5938 36.9406 45.416 36.9406 43.9682V4.03181C36.9406 2.58413 35.7628 1.40625 34.315 1.40625H14.0318Z" fill="#564E57"/>
<path d="M28.6228 4.64363H19.7315C18.9349 4.64363 18.2891 3.99778 18.2891 3.20119V0.703125H30.0651V3.20119C30.0652 3.99778 29.4193 4.64363 28.6228 4.64363Z" fill="#564E57"/>
</svg>
