<svg width="48" height="48" viewBox="0 0 48 48" fill="none" xmlns="http://www.w3.org/2000/svg">
<path d="M37.3866 7.65625H10.6094C9.78095 7.65625 9.10938 8.32782 9.10938 9.15625V44.2503C9.10938 45.0787 9.78095 45.7503 10.6094 45.7503H37.3866C38.2151 45.7503 38.8866 45.0787 38.8866 44.2503V9.15625C38.8866 8.32782 38.2151 7.65625 37.3866 7.65625Z" fill="#EEEEEE"/>
<path d="M34.6094 9.15625H38.8866C38.8866 8.32784 38.215 7.65625 37.3866 7.65625H10.6094C9.78095 7.65625 9.10938 8.32782 9.10938 9.15625V44.2503C9.10938 45.0787 9.78096 45.7503 10.6094 45.7503V33.1562C10.6094 19.9014 21.3545 9.15625 34.6094 9.15625Z" fill="#E0E0E0"/>
<path d="M29.222 5.51734V3.75C29.222 2.92157 28.5504 2.25 27.722 2.25H20.2814C19.453 2.25 18.7814 2.92157 18.7814 3.75V5.51734H16.9844C16.1559 5.51734 15.4844 6.18891 15.4844 7.01734V8.29454C15.4844 9.12297 16.1559 9.79454 16.9844 9.79454H31.019C31.8475 9.79454 32.519 9.12297 32.519 8.29454V7.01734C32.519 6.18891 31.8475 5.51734 31.019 5.51734H29.222Z" fill="#FAA629"/>
<path d="M18.4844 7.01734H20.2814V5.25C20.2814 4.42154 20.953 3.75 21.7814 3.75H29.222C29.222 2.92154 28.5504 2.25 27.722 2.25H20.2814C19.453 2.25 18.7814 2.92154 18.7814 3.75V5.51734H16.9844C16.156 5.51734 15.4844 6.18888 15.4844 7.01734V8.29454C15.4844 9.12295 16.156 9.79454 16.9844 9.79454V8.51734C16.9844 7.68888 17.656 7.01734 18.4844 7.01734Z" fill="#F78C1E"/>
<path d="M14.5181 20.8987C14.6587 21.0393 14.8491 21.1184 15.0483 21.1184C15.2476 21.1184 15.438 21.0393 15.5786 20.8987L19.574 16.9033C19.8669 16.6103 19.8669 16.1357 19.574 15.8428C19.281 15.5498 18.8064 15.5498 18.5134 15.8428L15.0483 19.3079L13.8896 18.1484C13.5967 17.8555 13.1221 17.8555 12.8291 18.1484C12.5361 18.4414 12.5361 18.916 12.8291 19.209L14.5181 20.8987Z" fill="#7CB342"/>
<path d="M18.5134 25.5576L15.0483 29.022L13.8896 27.8633C13.5967 27.5703 13.1221 27.5703 12.8291 27.8633C12.5361 28.1563 12.5361 28.6309 12.8291 28.9238L14.5181 30.6128C14.6645 30.7593 14.8564 30.8325 15.0483 30.8325C15.2402 30.8325 15.4321 30.7593 15.5786 30.6128L19.574 26.6182C19.8669 26.3252 19.8669 25.8506 19.574 25.5576C19.281 25.2647 18.8064 25.2646 18.5134 25.5576Z" fill="#7CB342"/>
<path d="M13.9531 35.5332H18.4531V40.0332H13.9531V35.5332Z" fill="#00ACC1"/>
<path d="M24.4844 17.123H34.6431C35.0576 17.123 35.3931 16.7876 35.3931 16.373C35.3931 15.9585 35.0576 15.623 34.6431 15.623H24.4844C24.0698 15.623 23.7344 15.9585 23.7344 16.373C23.7344 16.7876 24.0698 17.123 24.4844 17.123Z" fill="#757576"/>
<path d="M34.6438 19.6191H33.8125C33.398 19.6191 33.0625 19.9546 33.0625 20.3691C33.0625 20.7837 33.398 21.1191 33.8125 21.1191H34.6438C35.0583 21.1191 35.3938 20.7837 35.3938 20.3691C35.3938 19.9546 35.0583 19.6191 34.6438 19.6191Z" fill="#757576"/>
<path d="M24.4844 21.1191H30.8118C31.2263 21.1191 31.5618 20.7837 31.5618 20.3691C31.5618 19.9546 31.2263 19.6191 30.8118 19.6191H24.4844C24.0698 19.6191 23.7344 19.9546 23.7344 20.3691C23.7344 20.7837 24.0698 21.1191 24.4844 21.1191Z" fill="#757576"/>
<path d="M34.6431 25.3379H24.4844C24.0698 25.3379 23.7344 25.6733 23.7344 26.0879C23.7344 26.5024 24.0698 26.8379 24.4844 26.8379H34.6431C35.0576 26.8379 35.3931 26.5024 35.3931 26.0879C35.3931 25.6733 35.0576 25.3379 34.6431 25.3379Z" fill="#757576"/>
<path d="M34.6438 29.332H33.8125C33.398 29.332 33.0625 29.6675 33.0625 30.082C33.0625 30.4966 33.398 30.832 33.8125 30.832H34.6438C35.0583 30.832 35.3938 30.4966 35.3938 30.082C35.3938 29.6675 35.0583 29.332 34.6438 29.332Z" fill="#757576"/>
<path d="M24.4844 30.832H30.8118C31.2263 30.832 31.5618 30.4966 31.5618 30.082C31.5618 29.6675 31.2263 29.332 30.8118 29.332H24.4844C24.0698 29.332 23.7344 29.6675 23.7344 30.082C23.7344 30.4966 24.0698 30.832 24.4844 30.832Z" fill="#757576"/>
<path d="M34.6431 35.0352H24.4844C24.0698 35.0352 23.7344 35.3706 23.7344 35.7852C23.7344 36.1997 24.0698 36.5352 24.4844 36.5352H34.6431C35.0576 36.5352 35.3931 36.1997 35.3931 35.7852C35.3931 35.3706 35.0576 35.0352 34.6431 35.0352Z" fill="#757576"/>
<path d="M34.6438 39.0293H33.8125C33.398 39.0293 33.0625 39.3647 33.0625 39.7793C33.0625 40.1938 33.398 40.5293 33.8125 40.5293H34.6438C35.0583 40.5293 35.3938 40.1938 35.3938 39.7793C35.3938 39.3647 35.0583 39.0293 34.6438 39.0293Z" fill="#757576"/>
<path d="M30.8118 39.0293H24.4844C24.0698 39.0293 23.7344 39.3647 23.7344 39.7793C23.7344 40.1938 24.0698 40.5293 24.4844 40.5293H30.8118C31.2263 40.5293 31.5618 40.1938 31.5618 39.7793C31.5618 39.3647 31.2263 39.0293 30.8118 39.0293Z" fill="#757576"/>
</svg>
