<svg width="48" height="48" viewBox="0 0 48 48" fill="none" xmlns="http://www.w3.org/2000/svg">
<g clip-path="url(#clip0_3603_186049)">
<path d="M28.1449 42.207H31.4553C34.6547 42.207 37.2484 44.8007 37.2484 48.0001H10.7656C10.7656 44.8007 13.3593 42.207 16.5587 42.207H28.1449Z" fill="#955BA5"/>
<path d="M28.143 40.1299V42.2071C28.143 43.5783 27.0315 44.6899 25.6603 44.6899H22.3499C20.9805 44.6858 19.8713 43.5766 19.8672 42.2071V40.1299H28.143Z" fill="#F09372"/>
<path d="M24.0061 6.20703C-4.46282 19.4741 6.89581 40.5519 24.0061 40.5519C41.1165 40.5519 52.4751 19.4741 24.0061 6.20703Z" fill="#F9C795"/>
<path d="M24.0071 6.20703C2.2788 19.4741 10.9494 40.5519 24.0071 40.5519C37.0647 40.5519 45.7353 19.4741 24.0071 6.20703Z" fill="#FDD7AD"/>
<path d="M24.8343 31.4481H23.1791C22.7221 31.4481 22.3516 31.0776 22.3516 30.6206C22.3516 30.1635 22.7221 29.793 23.1791 29.793H24.8343C25.2914 29.793 25.6619 30.1635 25.6619 30.6206C25.6619 31.0776 25.2914 31.4481 24.8343 31.4481Z" fill="#F09372"/>
<path d="M26.489 34.7592C26.4891 35.4176 26.227 36.0489 25.7607 36.5137C25.726 36.5511 25.6872 36.5845 25.6449 36.613C24.7134 37.4517 23.2991 37.4517 22.3676 36.613C21.8277 36.149 21.519 35.4711 21.5235 34.7592C21.5235 34.3022 21.894 33.9316 22.3511 33.9316H25.6614C25.8809 33.9316 26.0914 34.0188 26.2466 34.174C26.4018 34.3292 26.489 34.5397 26.489 34.7592Z" fill="#35495E"/>
<path d="M17.3807 23.1728H14.8979C14.4408 23.1728 14.0703 22.8022 14.0703 22.3452C14.0703 21.8881 14.4408 21.5176 14.8979 21.5176H17.3807C17.8377 21.5176 18.2082 21.8881 18.2082 22.3452C18.2082 22.8022 17.8377 23.1728 17.3807 23.1728Z" fill="#A56A43"/>
<path d="M16.5536 33.9315H15.726C15.269 33.9315 14.8984 33.561 14.8984 33.104C14.8984 32.6469 15.269 32.2764 15.726 32.2764H16.5536C17.0107 32.2764 17.3812 32.6469 17.3812 33.104C17.3812 33.561 17.0107 33.9315 16.5536 33.9315Z" fill="#FB7B76"/>
<path d="M32.2802 33.9315H31.4526C30.9955 33.9315 30.625 33.561 30.625 33.104C30.625 32.6469 30.9955 32.2764 31.4526 32.2764H32.2802C32.7372 32.2764 33.1078 32.6469 33.1078 33.104C33.1078 33.561 32.7372 33.9315 32.2802 33.9315Z" fill="#FB7B76"/>
<path d="M45.5206 21.6089C45.5304 28.418 42.3168 34.83 36.8557 38.8972C37.3244 37.7983 37.6847 36.6563 37.9316 35.4875C39.1316 30.1082 39.0075 22.991 38.933 20.6737C38.9131 20.1548 38.6532 19.6747 38.2295 19.3744C33.1813 15.6916 24.0033 15.7661 24.0033 15.7661C22.7782 15.7781 21.5546 15.8527 20.3371 15.9896C19.9895 10.4199 21.4378 8.39234 21.5123 8.28475C21.355 8.37578 16.5468 11.2061 15.8268 16.7758C13.6642 17.2522 11.6115 18.134 9.77712 19.3744C9.35348 19.6747 9.09352 20.1548 9.07367 20.6737C8.99919 22.991 8.87505 30.1082 10.075 35.4875C10.3219 36.6563 10.6822 37.7983 11.1509 38.8972C3.84998 33.4462 0.76168 23.9955 3.43494 15.2852C6.10819 6.57483 13.9663 0.483706 23.0682 0.0668198C23.3744 0.050268 23.6888 0.0419922 24.0033 0.0419922C24.3178 0.0419922 24.624 0.050268 24.9302 0.0668198C27.4721 0.171021 29.9749 0.728758 32.3206 1.71372L43.2364 11.9344C44.7451 14.9358 45.5275 18.2497 45.5206 21.6089Z" fill="#805333"/>
<path d="M37.9331 35.4875C39.1331 30.1082 39.009 22.991 38.9345 20.6737C38.9147 20.1548 38.6547 19.6747 38.2311 19.3744C33.1828 15.6916 24.0049 15.7661 24.0049 15.7661C22.7798 15.7781 21.5561 15.8527 20.3387 15.9896C19.9911 10.4199 21.4393 8.39234 21.5138 8.28475C21.3566 8.37578 16.5483 11.2061 15.8283 16.7758C13.6658 17.2522 11.613 18.134 9.77865 19.3744C9.35502 19.6747 9.09506 20.1548 9.0752 20.6737C9.00072 22.991 8.87658 30.1082 10.0766 35.4875C7.24587 31.4168 5.75067 26.5668 5.79796 21.6089C5.79796 10.0723 13.4449 0.64613 23.0697 0.0668198C23.3759 0.050268 23.6904 0.0419922 24.0049 0.0419922C24.3193 0.0419922 24.6255 0.050268 24.9318 0.0668198C27.0579 0.197792 29.1356 0.758019 31.0393 1.71372L40.2752 11.9344C41.5662 14.9957 42.2249 18.2865 42.2118 21.6089C42.259 26.5668 40.7638 31.4168 37.9331 35.4875Z" fill="#A56A43"/>
<path d="M40.9189 6.51093C42.0054 6.11901 43.1958 6.12546 44.2781 6.52913C44.726 6.65253 45.1014 6.95851 45.3127 7.37233C45.5239 7.78615 45.5515 8.2697 45.3887 8.70486C45.0889 9.35056 44.59 9.88312 43.9652 10.2243C43.8878 10.9321 43.5849 11.5962 43.1012 12.1187C42.7607 12.4348 42.303 12.5933 41.8399 12.5553C41.3768 12.5174 40.951 12.2866 40.6665 11.9192C39.8821 11.0717 39.4235 9.97355 39.3721 8.81989L35.2466 6.05658C34.1604 6.44906 32.9702 6.44379 31.8874 6.04169C31.4395 5.91829 31.0641 5.6123 30.8528 5.19849C30.6416 4.78467 30.614 4.30112 30.7768 3.86596C31.075 3.21866 31.5739 2.68468 32.1994 2.3432C32.2767 1.63557 32.5793 0.971482 33.0626 0.448858C33.403 0.132338 33.8609 -0.0264411 34.3242 0.0113411C34.7875 0.0491232 35.2136 0.279984 35.4982 0.647479C36.2828 1.49523 36.7414 2.59367 36.7925 3.74762L40.9189 6.51093Z" fill="#FF5364"/>
<path d="M18.2089 28.1386C17.8389 28.1386 17.5138 27.8929 17.4128 27.537C17.2957 26.9264 16.7616 26.4849 16.1399 26.4849C15.5182 26.4849 14.9841 26.9264 14.8671 27.537C14.7876 27.8228 14.5611 28.0442 14.2736 28.1173C13.986 28.1903 13.6814 28.1039 13.4751 27.8906C13.2687 27.6774 13.1923 27.3701 13.2748 27.0851C13.5937 25.7612 14.7781 24.8281 16.1399 24.8281C17.5017 24.8281 18.6862 25.7612 19.005 27.0851C19.0759 27.3347 19.0256 27.603 18.8691 27.81C18.7127 28.017 18.4683 28.1386 18.2089 28.1386Z" fill="#3D324C"/>
<path d="M33.1072 23.1728H30.6245C30.1674 23.1728 29.7969 22.8022 29.7969 22.3452C29.7969 21.8881 30.1674 21.5176 30.6245 21.5176H33.1072C33.5643 21.5176 33.9348 21.8881 33.9348 22.3452C33.9348 22.8022 33.5643 23.1728 33.1072 23.1728Z" fill="#A56A43"/>
<path d="M33.9355 28.1386C33.5654 28.1386 33.2403 27.8929 33.1393 27.537C33.0223 26.9264 32.4882 26.4849 31.8665 26.4849C31.2448 26.4849 30.7107 26.9264 30.5937 27.537C30.5142 27.8228 30.2877 28.0442 30.0002 28.1173C29.7126 28.1903 29.4079 28.1039 29.2016 27.8906C28.9953 27.6774 28.9189 27.3701 29.0014 27.0851C29.3203 25.7612 30.5047 24.8281 31.8665 24.8281C33.2283 24.8281 34.4127 25.7612 34.7316 27.0851C34.8024 27.3347 34.7521 27.603 34.5957 27.81C34.4393 28.017 34.1949 28.1386 33.9355 28.1386Z" fill="#3D324C"/>
<path d="M40.8449 5.1603L38.094 3.31643C37.7142 3.06185 37.1999 3.16337 36.9453 3.54319L35.1014 6.29409C34.8468 6.67391 34.9484 7.1882 35.3282 7.44278L38.0791 9.28664C38.4589 9.54123 38.9732 9.4397 39.2278 9.05988L41.0716 6.30899C41.3262 5.92917 41.2247 5.41488 40.8449 5.1603Z" fill="#FB7B76"/>
<path d="M25.6548 36.414C25.6575 36.4806 25.6519 36.5473 25.6382 36.6126C24.7068 37.4513 23.2924 37.4513 22.361 36.6126C22.3473 36.5473 22.3417 36.4806 22.3444 36.414C22.3444 35.4998 23.0855 34.7588 23.9996 34.7588C24.9137 34.7588 25.6548 35.4998 25.6548 36.414Z" fill="#CC4B4C"/>
</g>
<defs>
<clipPath id="clip0_3603_186049">
<rect width="48" height="48" fill="white"/>
</clipPath>
</defs>
</svg>
