<svg width="48" height="48" viewBox="0 0 48 48" fill="none" xmlns="http://www.w3.org/2000/svg">
<path d="M40.6879 8.26987C38.9567 5.99953 36.7718 4.09453 34.2701 2.68622H27.9249L17.2437 1.11328C14.8931 1.91288 12.7297 3.11756 10.8371 4.64475L7.79381 13.9875L3.02344 20.976C3.02344 23.8488 3.60159 26.5864 4.64681 29.0796V29.0792L12.6201 32.9662L16.8082 40.6854L16.8073 40.686C19.0505 41.5047 21.4725 41.9515 23.9989 41.9515C28.9107 41.9515 33.4278 40.2627 37.0023 37.4347L38.014 35.3138L41.0315 31.1701L42.8568 17.4939L40.6879 8.26987Z" fill="#62DBFB"/>
<path d="M23.9996 0C21.6353 0 19.3625 0.3915 17.2422 1.11263L19.3316 5.32219C20.0537 6.77691 21.9225 7.2135 23.2143 6.22913C24.3591 5.35678 25.996 5.58741 26.8553 6.74194L27.0752 7.03725C27.6404 7.79672 28.5754 8.18653 29.5128 8.05341L30.8816 7.85897C31.8146 7.7265 32.6015 7.09678 32.9356 6.21572L34.2737 2.68575C31.237 0.976406 27.7325 0 23.9996 0Z" fill="#A2E62E"/>
<path d="M38.0104 35.3132L41.0279 31.1695L42.8532 17.4933L40.6849 8.27216C39.2137 6.34251 37.4172 4.67423 35.3747 3.35254C37.4956 6.63041 38.7276 10.5371 38.7276 14.7318C38.7276 26.3163 29.3365 35.7074 17.752 35.7074C16.4411 35.7074 15.1583 35.5872 13.9141 35.3569L16.8047 40.6846L16.8044 40.6848C19.0473 41.5035 21.4691 41.9507 23.9955 41.9507C28.9073 41.9507 33.4244 40.2619 36.9989 37.4339L38.0104 35.3132Z" fill="#01D0FB"/>
<path d="M18.3982 38.2238L16.7049 36.6152C16.4038 36.3291 16.2198 35.9413 16.1888 35.5271L15.876 31.3574C15.8545 31.0712 15.907 30.7845 16.0283 30.5245L17.1999 28.0141C17.4902 27.3922 17.3713 26.6562 16.9001 26.1572L15.945 25.1459C15.6289 24.8111 15.1887 24.6214 14.7283 24.6214H12.6408C11.8949 24.6214 11.239 24.1278 11.0326 23.411L10.9466 23.1124C10.6386 22.0426 11.4415 20.9758 12.5548 20.9758C13.0579 20.9758 13.5343 20.7495 13.8521 20.3595L15.9922 17.7336C16.2355 17.435 16.3685 17.0615 16.3685 16.6763V14.597C16.3685 14.0524 16.1034 13.5418 15.658 13.2284L13.2973 11.5671C12.9912 11.3518 12.7662 11.04 12.6581 10.6817L10.8371 4.64453C6.07228 8.48959 3.02344 14.3762 3.02344 20.9758H4.15088C4.69659 20.9758 5.21184 21.2277 5.54691 21.6585L6.42319 22.7849C6.72881 23.1777 6.85481 23.6811 6.77025 24.1716L6.34219 26.6537C6.29006 26.9561 6.16003 27.2398 5.96503 27.4768L4.64681 29.0791C6.89747 34.4472 11.3162 38.6812 16.8082 40.6853C17.7601 41.0327 18.7073 40.5146 18.8473 39.511C18.9145 39.03 18.7439 38.5524 18.3982 38.2238Z" fill="#A2E62E"/>
<path d="M16.7015 36.6154C16.4305 36.3581 16.2556 36.018 16.2003 35.6508C12.5958 35.3872 9.2445 34.2127 6.375 32.3564C8.83397 36.1557 12.4873 39.1098 16.8048 40.6853C17.7567 41.0326 18.7039 40.5146 18.8439 39.511C18.9111 39.0299 18.7404 38.5524 18.3946 38.2239L16.7015 36.6154Z" fill="#97D729"/>
<path d="M44.9757 20.9757C44.9757 16.1988 43.3778 11.7958 40.6889 8.26953L40.73 9.90594C40.7524 10.7969 40.2575 11.6205 39.4603 12.0192L37.7923 12.8532C37.3382 13.0802 36.8216 13.1505 36.3232 13.053L33.7942 12.5582C32.3748 12.2805 31.0547 13.3673 31.0547 14.8137V15.453C31.0547 16.1841 31.4025 16.8715 31.9914 17.3045L34.9095 19.4502C35.3041 19.7403 35.7811 19.8968 36.2708 19.8968H37.7041C38.738 19.8968 39.6445 20.5872 39.9195 21.5838L40.3355 23.0917C40.4458 23.4916 40.4458 23.914 40.3355 24.3139L39.7435 26.4597C39.5603 27.1238 39.089 27.6706 38.4592 27.9497L36.9641 28.6122C36.3011 28.906 35.8156 29.4955 35.6544 30.2025L34.3849 35.7726C34.2711 36.2718 34.3961 36.7955 34.7232 37.1894C35.2916 37.8741 36.3051 37.9876 37.0029 37.4356C41.8595 33.5937 44.9757 27.6487 44.9757 20.9757Z" fill="#A2E62E"/>
<path d="M40.6888 8.26953L40.7298 9.90594C40.7522 10.7969 40.2573 11.6205 39.4602 12.0192L38.6076 12.4454C38.6891 13.1967 38.7322 13.9594 38.7322 14.7323C38.7322 16.5257 38.5067 18.2665 38.0832 19.9281C38.9538 20.0733 39.6788 20.7111 39.9196 21.5837L40.3355 23.0916C40.4459 23.4915 40.4459 23.9139 40.3355 24.3139L39.7436 26.4597C39.5604 27.1238 39.089 27.6706 38.4592 27.9497L36.9642 28.6122C36.3012 28.906 35.8157 29.4955 35.6545 30.2025L34.3849 35.7726C34.2711 36.2718 34.3962 36.7955 34.7233 37.1894C35.2917 37.8741 36.305 37.9876 37.0029 37.4356C41.8593 33.5937 44.9756 27.6487 44.9756 20.9757C44.9756 16.1988 43.3777 11.7957 40.6888 8.26953Z" fill="#97D729"/>
<path d="M36.3906 27.9224C36.0022 27.9224 35.6875 27.6076 35.6875 27.2193V20.7803C35.6875 20.392 36.0022 20.0771 36.3906 20.0771C36.779 20.0771 37.0938 20.392 37.0938 20.7803V27.2193C37.0938 27.6076 36.779 27.9224 36.3906 27.9224Z" fill="#8D9CA8"/>
<path d="M31.1172 27.9224C30.7288 27.9224 30.4141 27.6076 30.4141 27.2193V20.7803C30.4141 20.392 30.7288 20.0771 31.1172 20.0771C31.5056 20.0771 31.8203 20.392 31.8203 20.7803V27.2193C31.8203 27.6076 31.5055 27.9224 31.1172 27.9224Z" fill="#8D9CA8"/>
<path d="M30.0526 47.9998H28.6867C28.2557 47.9998 27.9062 47.6504 27.9062 47.2193V44.2236H30.8331V47.2193C30.8331 47.6504 30.4836 47.9998 30.0526 47.9998Z" fill="#8D9CA8"/>
<path d="M37.4681 47.9998H38.8339C39.265 47.9998 39.6144 47.6504 39.6144 47.2193V44.2236H36.6875V47.2193C36.6876 47.6504 37.037 47.9998 37.4681 47.9998Z" fill="#8D9CA8"/>
<path d="M39.6117 45.4634H27.9043C26.8267 45.4634 25.9531 44.5898 25.9531 43.5121V27.9024C25.9531 26.8247 26.8267 25.9512 27.9043 25.9512H39.6117C40.6893 25.9512 41.5629 26.8247 41.5629 27.9024V43.5121C41.5629 44.5898 40.6893 45.4634 39.6117 45.4634Z" fill="#FE646F"/>
<path d="M39.6144 25.9512H36.6875C37.7652 25.9512 38.6387 26.8247 38.6387 27.9024V43.5121C38.6387 44.5898 37.7652 45.4634 36.6875 45.4634H39.6144C40.692 45.4634 41.5656 44.5898 41.5656 43.5121V27.9024C41.5656 26.8247 40.692 25.9512 39.6144 25.9512Z" fill="#FD4755"/>
<path d="M37.3672 22.0483H30.1477C29.7166 22.0483 29.3672 21.6989 29.3672 21.2678V20.2922C29.3672 19.8611 29.7166 19.5117 30.1477 19.5117H37.3672C37.7982 19.5117 38.1476 19.8611 38.1476 20.2922V21.2678C38.1476 21.6989 37.7982 22.0483 37.3672 22.0483Z" fill="#528FD8"/>
<path d="M37.3644 19.5117H34.4375C34.8686 19.5117 35.218 19.8611 35.218 20.2922V21.2678C35.218 21.6989 34.8686 22.0483 34.4375 22.0483H37.3644C37.7954 22.0483 38.1448 21.6989 38.1448 21.2678V20.2922C38.1448 19.8611 37.7954 19.5117 37.3644 19.5117Z" fill="#0573CE"/>
<path d="M29.3672 43.2396C28.9788 43.2396 28.6641 42.9248 28.6641 42.5365V28.8779C28.6641 28.4896 28.9788 28.1748 29.3672 28.1748C29.7556 28.1748 30.0703 28.4896 30.0703 28.8779V42.5365C30.0703 42.9248 29.7556 43.2396 29.3672 43.2396Z" fill="#E41F2D"/>
<path d="M32.2969 43.2396C31.9085 43.2396 31.5938 42.9248 31.5938 42.5365V28.8779C31.5938 28.4896 31.9085 28.1748 32.2969 28.1748C32.6853 28.1748 33 28.4896 33 28.8779V42.5365C33 42.9248 32.6853 43.2396 32.2969 43.2396Z" fill="#E41F2D"/>
<path d="M35.2188 43.2396C34.8303 43.2396 34.5156 42.9248 34.5156 42.5365V28.8779C34.5156 28.4896 34.8303 28.1748 35.2188 28.1748C35.6072 28.1748 35.9219 28.4896 35.9219 28.8779V42.5365C35.9219 42.9248 35.6071 43.2396 35.2188 43.2396Z" fill="#E41F2D"/>
<path d="M38.1484 43.2396C37.76 43.2396 37.4453 42.9248 37.4453 42.5365V28.8779C37.4453 28.4896 37.76 28.1748 38.1484 28.1748C38.5368 28.1748 38.8516 28.4896 38.8516 28.8779V42.5365C38.8516 42.9248 38.5368 43.2396 38.1484 43.2396Z" fill="#E41F2D"/>
<path d="M18.8281 35.3595C18.4397 35.3595 18.125 35.0447 18.125 34.6564V31.0732C18.125 30.6849 18.4397 30.3701 18.8281 30.3701C19.2165 30.3701 19.5312 30.6849 19.5312 31.0732V34.6564C19.5312 35.0448 19.2164 35.3595 18.8281 35.3595Z" fill="#AC5E2E"/>
<path d="M13.5625 35.3595C13.1741 35.3595 12.8594 35.0447 12.8594 34.6564V31.0732C12.8594 30.6849 13.1741 30.3701 13.5625 30.3701C13.9509 30.3701 14.2656 30.6849 14.2656 31.0732V34.6564C14.2656 35.0448 13.9509 35.3595 13.5625 35.3595Z" fill="#AC5E2E"/>
<path d="M19.6106 31.4951H12.7812C12.3928 31.4951 12.0781 31.1803 12.0781 30.792C12.0781 30.4037 12.3928 30.0889 12.7812 30.0889H19.6106C19.999 30.0889 20.3137 30.4037 20.3137 30.792C20.3137 31.1803 19.9989 31.4951 19.6106 31.4951Z" fill="#C86D36"/>
<path d="M23.9985 33.7188H22.8277L21.5595 35.0907L20.2912 33.7188H12.0961L10.9421 34.6562L9.55947 33.7188H8.38872C7.31106 33.7188 6.4375 34.5923 6.4375 35.67V46.0487C6.4375 47.1263 7.31106 47.9999 8.38872 47.9999H9.55947L10.8277 46.6522L12.0961 48H20.2912L21.7549 46.6523L22.8277 48H23.9985C25.0761 48 25.9497 47.1264 25.9497 46.0488V35.67C25.9497 34.5924 25.0761 33.7188 23.9985 33.7188Z" fill="#FFE177"/>
<path d="M23.9969 33.7188H22.8262L22.3672 34.2153C22.7677 34.5726 23.0213 35.0911 23.0213 35.6701V46.0488C23.0213 46.6098 22.7832 47.1139 22.4042 47.4699L22.8262 48H23.9969C25.0746 48 25.9482 47.1264 25.9482 46.0488V35.67C25.9482 34.5924 25.0746 33.7188 23.9969 33.7188Z" fill="#FFC344"/>
<path d="M20.2891 33.7188H22.8257V48H20.2891V33.7188Z" fill="#EA9B58"/>
<path d="M9.5625 33.7188H12.0991V48H9.5625V33.7188Z" fill="#EA9B58"/>
</svg>
