<svg width="48" height="48" viewBox="0 0 48 48" fill="none" xmlns="http://www.w3.org/2000/svg">
<path d="M13.5 9.375H7.5C7.29291 9.375 7.125 9.54291 7.125 9.75V11.25C7.125 11.4571 7.29291 11.625 7.5 11.625H13.5C13.7071 11.625 13.875 11.4571 13.875 11.25V9.75C13.875 9.54291 13.7071 9.375 13.5 9.375Z" fill="#607D8B"/>
<path d="M40.5 9.375H34.5C34.2929 9.375 34.125 9.54291 34.125 9.75V11.25C34.125 11.4571 34.2929 11.625 34.5 11.625H40.5C40.7071 11.625 40.875 11.4571 40.875 11.25V9.75C40.875 9.54291 40.7071 9.375 40.5 9.375Z" fill="#607D8B"/>
<path d="M28.5 3.375H19.5C17.6391 3.375 16.125 4.8891 16.125 6.75V11.25C16.125 11.4571 16.2929 11.625 16.5 11.625H18.75C18.9571 11.625 19.125 11.4571 19.125 11.25V6.75C19.125 6.55023 19.3002 6.375 19.5 6.375H28.5C28.6998 6.375 28.875 6.55023 28.875 6.75V11.25C28.875 11.4571 29.0429 11.625 29.25 11.625H31.5C31.7071 11.625 31.875 11.4571 31.875 11.25V6.75C31.875 4.8891 30.3609 3.375 28.5 3.375Z" fill="#607D8B"/>
<path d="M42 10.875H6C3.31183 10.875 1.125 13.0618 1.125 15.75V39.75C1.125 42.4382 3.31183 44.625 6 44.625H42C44.6882 44.625 46.875 42.4382 46.875 39.75V15.75C46.875 13.0618 44.6882 10.875 42 10.875Z" fill="#EF5350"/>
<path d="M24 15.375C17.1764 15.375 11.625 20.9264 11.625 27.75C11.625 34.5736 17.1764 40.125 24 40.125C30.8236 40.125 36.375 34.5736 36.375 27.75C36.375 20.9264 30.8236 15.375 24 15.375Z" fill="#E0E0E0"/>
<path d="M31.5 25.125H26.625V20.25C26.625 20.0429 26.4571 19.875 26.25 19.875H21.75C21.5429 19.875 21.375 20.0429 21.375 20.25V25.125H16.5C16.2929 25.125 16.125 25.2929 16.125 25.5V30C16.125 30.2071 16.2929 30.375 16.5 30.375H21.375V35.25C21.375 35.4571 21.5429 35.625 21.75 35.625H26.25C26.4571 35.625 26.625 35.4571 26.625 35.25V30.375H31.5C31.7071 30.375 31.875 30.2071 31.875 30V25.5C31.875 25.2929 31.7071 25.125 31.5 25.125Z" fill="#EF5350"/>
<path d="M3 21.375C2.79291 21.375 2.625 21.2071 2.625 21V15.75C2.625 15.5429 2.79291 15.375 3 15.375C3.20709 15.375 3.375 15.5429 3.375 15.75V21C3.375 21.2071 3.20709 21.375 3 21.375Z" fill="#EF9A9A"/>
<path d="M3 25.125C2.79291 25.125 2.625 24.9571 2.625 24.75V23.25C2.625 23.0429 2.79291 22.875 3 22.875C3.20709 22.875 3.375 23.0429 3.375 23.25V24.75C3.375 24.9571 3.20709 25.125 3 25.125Z" fill="#EF9A9A"/>
</svg>
