<svg width="48" height="48" viewBox="0 0 48 48" fill="none" xmlns="http://www.w3.org/2000/svg">
<g clip-path="url(#clip0_3603_186009)">
<path d="M11.7882 40.3848C7.75509 40.3848 3.46875 41.7192 3.46875 44.1921C3.46875 46.6651 7.75519 47.9996 11.7882 47.9996C15.8212 47.9996 20.1077 46.6651 20.1077 44.1921C20.1077 41.7192 15.8212 40.3848 11.7882 40.3848Z" fill="#FFDB56"/>
<path d="M11.7923 14.4287C5.30297 14.4287 0.0234375 19.7082 0.0234375 26.1976C0.0234375 30.2267 1.94006 34.5587 5.72016 39.0733C8.50322 42.3972 11.2461 44.5332 11.3616 44.6226C11.4883 44.7207 11.6404 44.7698 11.7923 44.7698C11.9443 44.7698 12.0963 44.7207 12.2231 44.6226C12.3385 44.5332 15.0816 42.3972 17.8645 39.0733C21.6446 34.5587 23.5613 30.2266 23.5613 26.1976C23.5613 19.7082 18.2817 14.4287 11.7923 14.4287ZM16.2056 26.1976C16.2056 28.6349 14.2297 30.6108 11.7923 30.6108C9.35503 30.6108 7.37916 28.6349 7.37916 26.1976C7.37916 23.7603 9.35503 21.7843 11.7923 21.7843C14.2297 21.7843 16.2056 23.7603 16.2056 26.1976Z" fill="#FF4A4A"/>
<path d="M43.1726 20.6999C41.9847 20.2158 40.4204 19.9492 38.7681 19.9492C37.1158 19.9492 35.5515 20.2158 34.3636 20.6999C32.9755 21.2656 32.2109 22.0961 32.2109 23.0384C32.2109 23.9807 32.9754 24.8113 34.3636 25.3769C35.5514 25.8609 37.1157 26.1275 38.7681 26.1275C40.4204 26.1275 41.9847 25.8609 43.1726 25.3769C44.5606 24.8113 45.3251 23.9807 45.3251 23.0384C45.3251 22.0961 44.5606 21.2657 43.1726 20.6999Z" fill="#FFDB56"/>
<path d="M11.7882 46.2419C8.26266 46.2419 4.54369 45.2222 3.66347 43.3135C3.53681 43.5882 3.46875 43.8813 3.46875 44.1926C3.46875 46.6656 7.75519 48 11.7882 48C15.8212 48 20.1077 46.6655 20.1077 44.1926C20.1077 43.8814 20.0396 43.5883 19.913 43.3135C19.0328 45.2221 15.3139 46.2419 11.7882 46.2419Z" fill="#FFBB24"/>
<path d="M43.1725 23.6196C41.9847 24.1036 40.4204 24.3702 38.768 24.3702C37.1157 24.3702 35.5514 24.1036 34.3635 23.6196C33.4272 23.2381 32.7761 22.7357 32.4505 22.1602C32.2933 22.4379 32.2109 22.7324 32.2109 23.0392C32.2109 23.9815 32.9754 24.8122 34.3636 25.3778C35.5514 25.8618 37.1157 26.1284 38.7681 26.1284C40.4204 26.1284 41.9847 25.8618 43.1726 25.3778C44.5606 24.8122 45.3251 23.9815 45.3251 23.0392C45.3251 22.7326 45.2427 22.4379 45.0855 22.1602C44.7599 22.7357 44.1087 23.2381 43.1725 23.6196Z" fill="#FFBB24"/>
<path d="M38.7706 0C33.6932 0 29.5625 4.13081 29.5625 9.20813C29.5625 12.3441 31.0484 15.7087 33.9789 19.2087C36.129 21.7767 38.2507 23.4289 38.3399 23.498C38.4668 23.5961 38.6187 23.6452 38.7707 23.6452C38.9227 23.6452 39.0746 23.5961 39.2015 23.498C39.2908 23.4289 41.4125 21.7767 43.5626 19.2087C46.493 15.7088 47.9788 12.3442 47.9788 9.20813C47.9787 4.13081 43.8479 0 38.7706 0ZM42.1626 9.20813C42.1626 11.0814 40.6439 12.6001 38.7706 12.6001C36.8973 12.6001 35.3787 11.0814 35.3787 9.20813C35.3787 7.33481 36.8973 5.81625 38.7706 5.81625C40.6439 5.81625 42.1626 7.33481 42.1626 9.20813Z" fill="#FF4A4A"/>
<path d="M11.7945 14.4287C11.3462 14.4287 10.9041 14.4548 10.4688 14.5038C16.3364 15.1646 20.912 20.1564 20.912 26.1976C20.912 30.2267 18.9954 34.5587 15.2153 39.0733C13.3589 41.2905 11.5216 42.9778 10.4688 43.8831C10.9943 44.335 11.3252 44.5928 11.3637 44.6225C11.4904 44.7206 11.6425 44.7697 11.7945 44.7697C11.9464 44.7697 12.0984 44.7206 12.2253 44.6225C12.3407 44.5331 15.0837 42.3971 17.8667 39.0732C21.6468 34.5586 23.5634 30.2265 23.5634 26.1975C23.5634 19.7082 18.2838 14.4287 11.7945 14.4287Z" fill="#E7343F"/>
<path d="M38.771 0C38.3209 0 37.8783 0.033 37.4453 0.0958125C41.8967 0.740438 45.3278 4.58091 45.3278 9.20813C45.3278 12.3441 43.8419 15.7087 40.9115 19.2087C39.59 20.7871 38.2802 22.0185 37.4453 22.75C37.9687 23.2087 38.3058 23.4713 38.3402 23.4979C38.4671 23.596 38.6191 23.6451 38.771 23.6451C38.923 23.6451 39.0749 23.596 39.2018 23.4979C39.2911 23.4288 41.4128 21.7766 43.5629 19.2086C46.4933 15.7087 47.9792 12.3441 47.9792 9.20803C47.9791 4.13081 43.8483 0 38.771 0Z" fill="#E7343F"/>
<path d="M22.7116 44.8973C22.3244 44.8973 22.0096 44.5843 22.0078 44.1966C22.006 43.8078 22.3197 43.4912 22.7085 43.4895L23.6381 43.4853C23.6393 43.4853 23.6403 43.4853 23.6414 43.4853C24.0286 43.4853 24.3435 43.7982 24.3452 44.186C24.347 44.5748 24.0333 44.8914 23.6445 44.8931L22.7149 44.8973C22.7138 44.8973 22.7126 44.8973 22.7116 44.8973ZM26.4302 44.8804C26.043 44.8804 25.7282 44.5675 25.7264 44.1797C25.7246 43.7909 26.0383 43.4743 26.4271 43.4726L27.3567 43.4684C27.3579 43.4684 27.3589 43.4684 27.36 43.4684C27.7472 43.4684 28.062 43.7814 28.0638 44.1691C28.0656 44.5579 27.7519 44.8745 27.3631 44.8762L26.4335 44.8804C26.4324 44.8804 26.4312 44.8804 26.4302 44.8804ZM30.1489 44.8634C29.7617 44.8634 29.4469 44.5505 29.4451 44.1627C29.4433 43.7741 29.757 43.4574 30.1458 43.4557L31.0753 43.4515C31.0764 43.4515 31.0775 43.4515 31.0786 43.4515C31.4658 43.4515 31.7806 43.7644 31.7824 44.1521C31.7841 44.5409 31.4705 44.8575 31.0817 44.8592L30.1522 44.8634C30.151 44.8634 30.1499 44.8634 30.1489 44.8634ZM33.8676 44.8466C33.4804 44.8466 33.1656 44.5336 33.1638 44.1459C33.162 43.7572 33.4757 43.4405 33.8645 43.4388L34.7941 43.4346C34.7952 43.4346 34.7963 43.4346 34.7974 43.4346C35.1846 43.4346 35.4994 43.7475 35.5012 44.1353C35.5029 44.524 35.1893 44.8406 34.8005 44.8423L33.8709 44.8466C33.8697 44.8466 33.8686 44.8466 33.8676 44.8466ZM37.5862 44.8298C37.199 44.8298 36.8842 44.5168 36.8824 44.1291C36.8806 43.7403 37.1943 43.4237 37.5831 43.422L38.5127 43.4178C38.5138 43.4178 38.5149 43.4178 38.516 43.4178C38.9032 43.4178 39.218 43.7307 39.2198 44.1185C39.2215 44.5073 38.9079 44.8239 38.5191 44.8256L37.5894 44.8298C37.5883 44.8298 37.5873 44.8298 37.5862 44.8298ZM41.3048 44.8129C40.9178 44.8129 40.6029 44.5001 40.6011 44.1124C40.5991 43.7237 40.9127 43.407 41.3016 43.4051L41.4333 43.4045C41.6688 43.4035 41.9048 43.3868 42.1353 43.3549C42.5197 43.3013 42.8755 43.5707 42.9289 43.9558C42.982 44.3409 42.7131 44.6962 42.3279 44.7494C42.0359 44.7897 41.737 44.8109 41.4398 44.8122L41.3083 44.8129C41.3072 44.8129 41.306 44.8129 41.3048 44.8129ZM44.8065 43.7525C44.5835 43.7525 44.3641 43.6467 44.2274 43.4496C44.0061 43.1301 44.0854 42.6916 44.4049 42.47C44.6291 42.3146 44.8428 42.1404 45.0403 41.9522C45.3216 41.684 45.7672 41.6948 46.0355 41.9762C46.3036 42.2576 46.2929 42.7031 46.0115 42.9714C45.7614 43.2097 45.4908 43.4302 45.2071 43.6269C45.0846 43.7118 44.9449 43.7525 44.8065 43.7525ZM47.0325 40.85C46.954 40.85 46.8742 40.8368 46.7961 40.8089C46.4299 40.6783 46.239 40.2757 46.3694 39.9096C46.4609 39.6532 46.5327 39.3874 46.5832 39.1195C46.6552 38.7374 47.0236 38.4862 47.4051 38.5581C47.787 38.63 48.0384 38.9981 47.9664 39.38C47.9024 39.7198 47.8113 40.0571 47.6952 40.3824C47.5928 40.6704 47.3216 40.85 47.0325 40.85ZM47.1464 37.1937C46.8405 37.1937 46.5588 36.9926 46.4703 36.6838C46.3952 36.4223 46.2986 36.1643 46.1833 35.9172C46.019 35.5649 46.1713 35.1461 46.5235 34.9817C46.8762 34.8175 47.2947 34.9697 47.4591 35.3219C47.6055 35.6356 47.7279 35.9631 47.8234 36.2954C47.9305 36.669 47.7147 37.0589 47.341 37.1662C47.2761 37.1848 47.2107 37.1937 47.1464 37.1937ZM45.105 34.1573C44.9522 34.1573 44.7985 34.1079 44.6693 34.0059C44.4552 33.8367 44.2262 33.6834 43.989 33.5497C43.6503 33.359 43.5304 32.9296 43.7212 32.591C43.9119 32.2523 44.3414 32.1323 44.6798 32.3231C44.9804 32.4925 45.2704 32.6868 45.5416 32.9008C45.8467 33.1417 45.8988 33.5844 45.6579 33.8894C45.519 34.0655 45.313 34.1573 45.105 34.1573ZM41.6786 32.8815C41.6681 32.8815 41.6575 32.8813 41.6469 32.8808C41.5683 32.8773 41.4891 32.8755 41.4096 32.8755H40.7485C40.3598 32.8755 40.0447 32.5605 40.0447 32.1716C40.0447 31.783 40.3597 31.4678 40.7485 31.4678H41.4096C41.5089 31.4678 41.6096 31.4699 41.7092 31.4744C42.0975 31.4916 42.3984 31.8204 42.3811 32.2087C42.3646 32.5866 42.053 32.8815 41.6786 32.8815ZM37.9596 32.8756H37.0299C36.6412 32.8756 36.3261 32.5606 36.3261 32.1717C36.3261 31.7831 36.6412 31.4679 37.0299 31.4679H37.9596C38.3484 31.4679 38.6634 31.7831 38.6634 32.1717C38.6634 32.5605 38.3484 32.8756 37.9596 32.8756ZM34.2409 32.8756H33.3113C32.9225 32.8756 32.6074 32.5606 32.6074 32.1717C32.6074 31.7831 32.9225 31.4679 33.3113 31.4679H34.2409C34.6297 31.4679 34.9448 31.7831 34.9448 32.1717C34.9448 32.5605 34.6297 32.8756 34.2409 32.8756ZM30.5221 32.8756H29.5925C29.2037 32.8756 28.8886 32.5606 28.8886 32.1717C28.8886 31.7831 29.2037 31.4679 29.5925 31.4679H30.5221C30.9109 31.4679 31.226 31.7831 31.226 32.1717C31.226 32.5605 30.911 32.8756 30.5221 32.8756ZM26.9363 32.1755C26.8079 32.1755 26.678 32.1404 26.5614 32.0669C26.2597 31.8766 25.9762 31.6543 25.7185 31.4067C25.4384 31.1373 25.4297 30.6917 25.6992 30.4116C25.9685 30.1316 26.4142 30.1227 26.6944 30.3923C26.8833 30.5739 27.0912 30.7369 27.3125 30.8763C27.6414 31.0837 27.7398 31.5184 27.5323 31.8472C27.3984 32.0592 27.1698 32.1755 26.9363 32.1755ZM24.8905 29.1937C24.5604 29.1937 24.2659 28.9604 24.2004 28.6244C24.1359 28.2933 24.1031 27.9532 24.1031 27.6132L24.1034 27.5577C24.1079 27.1719 24.4222 26.862 24.8071 26.862C24.8099 26.862 24.8127 26.862 24.8154 26.8621C25.2042 26.8666 25.5157 27.1854 25.5111 27.5741L25.5109 27.6131C25.5109 27.8629 25.5349 28.1126 25.5821 28.3551C25.6565 28.7366 25.4075 29.1062 25.0259 29.1806C24.9804 29.1895 24.9351 29.1937 24.8905 29.1937ZM25.6598 25.6611C25.5174 25.6611 25.374 25.6181 25.2497 25.5289C24.9339 25.3021 24.8619 24.8623 25.0885 24.5466C25.2969 24.2565 25.5355 23.9868 25.7979 23.7448C26.0839 23.4813 26.529 23.4994 26.7925 23.785C27.0562 24.0707 27.0382 24.516 26.7524 24.7796C26.5599 24.9571 26.3848 25.155 26.232 25.3678C26.0945 25.5592 25.8788 25.6611 25.6598 25.6611ZM28.7584 23.7985C28.4109 23.7985 28.1087 23.5412 28.0615 23.1873C28.0103 22.802 28.2811 22.448 28.6664 22.3967C28.8965 22.3661 29.1316 22.3506 29.3656 22.3506H29.687C30.0758 22.3506 30.3909 22.6657 30.3909 23.0545C30.3909 23.4432 30.0758 23.7583 29.687 23.7583H29.3656C29.1935 23.7583 29.0207 23.7697 28.852 23.7921C28.8205 23.7965 28.7893 23.7985 28.7584 23.7985Z" fill="#1EA4E9"/>
</g>
<defs>
<clipPath id="clip0_3603_186009">
<rect width="48" height="48" fill="white"/>
</clipPath>
</defs>
</svg>
